<svg xmlns="http://www.w3.org/2000/svg" xmlns:xlink="http://www.w3.org/1999/xlink" viewBox="0 0 500 400"><defs><linearGradient id="a" x1="149.97" y1="149.25" x2="333.55" y2="149.25" gradientUnits="userSpaceOnUse"><stop offset="0" stop-color="#f84e49"/><stop offset="1" stop-color="#ef3598"/></linearGradient><clipPath id="b"><polyline points="81.48 160.96 99.05 144.25 81.48 144.25 63.92 144.25 81.48 160.96" style="fill:none"/></clipPath></defs><title>landing_page</title><g style="isolation:isolate"><g style="opacity:0.15"><path d="M388.65,24.23C276.32-8.38,259.15,63.28,237,79.08c-25.87,18.45-59.6,22.49-89.21,32.07-26.34,8.51-55.44,23.36-65.11,51.2-6.75,19.44-7.89,59.86-38.81,78.24-10.41,6.19-29,12-32.72,25.46-3.92,14.12,1.86,26.7,20.92,32.62,17.82,5.54,44.61-2.55,80.1,0,29.91,2.15,32.72,31.21,54.15,46.34,26.23,18.52,62.83,4.91,92.4,13.37,21.43,6.13,40.45,18.61,62.23,23.34,31.56,6.86,76.29-1.2,104.48-16.47,63.49-34.39,70.43-82.35,61.28-163.69S467.33,47.07,388.65,24.23Z" style="fill:#89b5f4"/></g><ellipse cx="89.41" cy="282.56" rx="59.52" ry="5.48" style="fill:#b3c9ff;opacity:0.5"/><ellipse cx="243.44" cy="291.78" rx="109.13" ry="5.48" style="fill:#d9e8ff;opacity:0.55;mix-blend-mode:multiply"/><ellipse cx="372.41" cy="313.66" rx="69.35" ry="5.48" style="fill:#d9e8ff;opacity:0.55;mix-blend-mode:multiply"/><ellipse cx="289.19" cy="308.23" rx="13.87" ry="2.9" style="fill:#d9e8ff;opacity:0.55;mix-blend-mode:multiply"/><path d="M322.45,149.18a26.28,26.28,0,0,0-1-11.15l-6.76,1.62a19.24,19.24,0,0,0-2.75-5.24l5.18-4.64a26.42,26.42,0,0,0-8.6-7.17l-3.63,5.93a19.24,19.24,0,0,0-5.65-1.76l.38-6.94a26.29,26.29,0,0,0-11.15,1l1.62,6.76a19.24,19.24,0,0,0-5.24,2.75l-4.64-5.18a26.42,26.42,0,0,0-7.17,8.6l5.93,3.63a19.24,19.24,0,0,0-1.76,5.65l-6.94-.38a26.28,26.28,0,0,0,1,11.15l6.76-1.62a19.24,19.24,0,0,0,2.75,5.24l-5.18,4.64a26.42,26.42,0,0,0,8.6,7.17l3.63-5.93a19.24,19.24,0,0,0,5.65,1.76L293.1,172a26.28,26.28,0,0,0,11.15-1l-1.62-6.76a19.23,19.23,0,0,0,5.24-2.75l4.64,5.18a26.43,26.43,0,0,0,7.17-8.6l-5.93-3.63a19.23,19.23,0,0,0,1.76-5.65Zm-25.12,7.44A10.74,10.74,0,1,1,307,145,10.74,10.74,0,0,1,297.33,156.63Z" style="fill:#b3c9ff"/><path d="M279.27,105a15.6,15.6,0,0,0-.6-6.62l-4,1A11.42,11.42,0,0,0,273,96.2l3.07-2.75a15.69,15.69,0,0,0-5.1-4.25l-2.15,3.52a11.42,11.42,0,0,0-3.35-1l.23-4.12a15.61,15.61,0,0,0-6.62.6l1,4a11.42,11.42,0,0,0-3.11,1.63l-2.75-3.07a15.69,15.69,0,0,0-4.25,5.1L253.45,98a11.42,11.42,0,0,0-1,3.35l-4.12-.23a15.6,15.6,0,0,0,.6,6.62l4-1a11.42,11.42,0,0,0,1.63,3.11l-3.07,2.75a15.69,15.69,0,0,0,5.1,4.25l2.15-3.52a11.42,11.42,0,0,0,3.35,1l-.23,4.12a15.6,15.6,0,0,0,6.62-.6l-1-4a11.41,11.41,0,0,0,3.11-1.63l2.75,3.07a15.69,15.69,0,0,0,4.25-5.1l-3.52-2.15a11.41,11.41,0,0,0,1-3.35Zm-14.91,4.42a6.37,6.37,0,1,1,5.77-6.92A6.37,6.37,0,0,1,264.35,109.38Z" style="fill:#b3c9ff;opacity:0.5"/><path d="M327.37,238.94c3.29-4.12,6.67-8.44,7.74-13.6,1-4.78,2.4-10,2.23-14.9a39.52,39.52,0,0,1,2.35-14.37c5.06-14.45,11.1-12.08,13.23-10.68s2.86,3.94,2.51,7.87c-.28,3.16-4.29,17.65.79,16.05,5.87-1.85,7.58-17.27,9.09-22.3,2.25-7.51,6.41-15.33,12.94-19.94,3.22-2.27,7.72-3.67,11-1.51a9.11,9.11,0,0,1,3.54,5.91c1.45,7-1.72,13.61-5.11,19.48-1.42,2.46-11.81,13.34-4.31,13.08,1.79-.06,17.87-9.72,17.83,2.35,0,4.25-5.23,8-13.34,12.42-5.06,2.78-23.34,9.41-23,14.15s10.74-1.48,8.54,7c-1.23,4.76-8,7.45-12.55,8.74-2.16.61-4.43.8-6.54,1.55-2.51.89-5.75,3.41-4.29,6.42.63,1.32,2.08,2.12,2.67,3.46a4.17,4.17,0,0,1-.78,4.17,9.65,9.65,0,0,1-3.63,2.52c-8.67,3.94-18.87,3.49-27.92.5s-17.12-8.33-24.77-14" style="fill:#acc9f9"/><g style="opacity:0.25"><path d="M383.68,173.06s-16,49.3-50.59,77" style="fill:none;stroke:#fff;stroke-linecap:round;stroke-linejoin:round;stroke-width:1.17141675949097px"/><path d="M393.53,208.09s-18.78,11.23-33.1,11.41" style="fill:none;stroke:#fff;stroke-linecap:round;stroke-linejoin:round;stroke-width:1.17141675949097px"/><path d="M349.55,191.36c-1.88,7.83-5.34,29.91.85,41.54" style="fill:none;stroke:#fff;stroke-linecap:round;stroke-linejoin:round;stroke-width:1.17141675949097px"/><path d="M366.84,240.84s-7.45,5-28.55,4.75" style="fill:none;stroke:#fff;stroke-linecap:round;stroke-linejoin:round;stroke-width:1.17141675949097px"/><path d="M348.4,261s-11,.56-19.84-6.25" style="fill:none;stroke:#fff;stroke-linecap:round;stroke-linejoin:round;stroke-width:1.17141675949097px"/></g><path d="M395.1,270.16c-3.82-13.14-1-27.31,3.52-40.23,1.08-3.1,2.32-6.28,4.64-8.61,1.19-1.19,2.83-2.17,4.48-1.84,2.42.49,3.44,3.37,3.71,5.83,1.72,15.49-8.48,29.68-11.07,45.05" style="fill:#bdd0ff"/><path d="M384.24,263.56a40.31,40.31,0,0,0-3.64-11.3,20,20,0,0,0-8.08-8.51c-1.56-.82-3.64-1.32-5-.15s-1,3.65-.13,5.39c4.69,9.51,16.66,13.78,21.22,23.35" style="fill:#bdd0ff"/><path d="M389.76,271.32c-3-5.55-5.84-11.21-7.48-17.29s-2-12.65.06-18.6c.63-1.84,2.21-3.94,4-3.3A3.67,3.67,0,0,1,388,233.5c3.42,4.5,4.73,10.25,5.35,15.87s.64,11.32,1.87,16.84a4.74,4.74,0,0,0,1,2.29,1.77,1.77,0,0,0,2.27.36,2.4,2.4,0,0,0,.7-1.21c.78-2.46,13-27.76,24-29.54a8.39,8.39,0,0,1,2.7-.09c13.84,2.3-17.34,31.23-17.58,35.54,11.28-9.67,13.68-11.46,18.81-12.38,4-.71,10.86,2.8,8.59,7.64-1.57,3.35-5.49,4.84-9.11,5.57-4,.79-8,1-11.92,2.15s-7.71,3.23-9.69,6.75" style="fill:#bdd0ff"/><path d="M152.39,212.24c-11.14-5.86-4.58-16.7-6.23-23.76-2.72-11.63-5.8-14-12.17-11.69-3.11,1.11-4.85,5.64-5.54,8.56-1.1,4.65-.26,9.48.37,14.13.55,4,2.94,12.72-1.86,14.25s-5.54-4.83-11.36-9.45c-2.62-2.08-9.67-2.95-11.24,2.21-2.78,9.15,1.54,13.5,23.19,25.63,3.69,2.07,11.67,4.24,11.21,6.31s-6.09-.41-10.26,1c-6.73,2.3-3.69,6.53-1.33,7.89,18.82,10.87,34.12,6.09,41.47,9.49,3.2,1.48,5.32,4.55,7.83,7,5.54,5.49,7.63,4.52,15.43,4.32,4.56-.12,9.23-1.41,12.64-4.44,1.39-1.24,2.61-3.11,2-4.86a5.29,5.29,0,0,0-2.43-2.48c-7-4.34-15.3-6.23-22.49-10.29a42.55,42.55,0,0,1-20.73-29.69" style="fill:#acc9f9"/><g style="opacity:0.25"><path d="M136.42,184.61a38,38,0,0,0,1.35,9c2.35,10.11,4.74,20.34,9.4,29.61,6.11,12.14,15.8,22.05,25.63,31.43,3.46,3.3,7.05,6.63,11.45,8.52" style="fill:none;stroke:#fff;stroke-linecap:round;stroke-linejoin:round;stroke-width:1.17141675949097px"/><path d="M110,212.26c11,10.88,26.47,16,41.64,19.1" style="fill:none;stroke:#fff;stroke-linecap:round;stroke-linejoin:round;stroke-width:1.17141675949097px"/><path d="M134.3,245.09c8.49,1.72,25.42,5.57,32.83,4.1" style="fill:none;stroke:#fff;stroke-linecap:round;stroke-linejoin:round;stroke-width:1.17141675949097px"/></g><path d="M381.65,97.1,387.17,93a34.23,34.23,0,0,0-10.53-10.53L372.52,88a27,27,0,0,0-7.68-3.19l1-6.82a33.41,33.41,0,0,0-14.9,0l1,6.82A27,27,0,0,0,344.26,88l-4.11-5.52A34.23,34.23,0,0,0,329.61,93l5.52,4.11a27,27,0,0,0-3.19,7.68l-6.82-1a33.41,33.41,0,0,0,0,14.9l6.82-1a27,27,0,0,0,3.19,7.68l-5.52,4.11A34.22,34.22,0,0,0,340.15,140l4.11-5.52a27,27,0,0,0,7.68,3.19l-1,6.82a33.41,33.41,0,0,0,14.9,0l-1-6.82a27,27,0,0,0,7.68-3.19l4.11,5.52a34.23,34.23,0,0,0,10.53-10.53l-5.52-4.11a27,27,0,0,0,3.19-7.68l6.82,1a33.4,33.4,0,0,0,0-14.9l-6.82,1A27,27,0,0,0,381.65,97.1Zm-23.26,32.23a18.1,18.1,0,1,1,18.1-18.1A18.1,18.1,0,0,1,358.39,129.33Z" style="fill:#b3c9ff"/><path d="M165.46,134.59l2.31-3.33a20.17,20.17,0,0,0-7.85-3.92l-1.26,3.85a15.93,15.93,0,0,0-4.89-.34l-.72-4a19.68,19.68,0,0,0-8.32,2.79l1.83,3.62a15.93,15.93,0,0,0-3.7,3.22l-3.33-2.31a20.17,20.17,0,0,0-3.92,7.85l3.85,1.26a15.93,15.93,0,0,0-.34,4.89l-4,.72a19.69,19.69,0,0,0,2.79,8.32l3.62-1.83a15.93,15.93,0,0,0,3.22,3.7l-2.31,3.33a20.17,20.17,0,0,0,7.85,3.92l1.26-3.85a15.93,15.93,0,0,0,4.89.34l.72,4a19.68,19.68,0,0,0,8.32-2.79l-1.83-3.62a15.93,15.93,0,0,0,3.7-3.22l3.33,2.31a20.17,20.17,0,0,0,3.92-7.85l-3.85-1.26a15.93,15.93,0,0,0,.34-4.89l4-.72a19.69,19.69,0,0,0-2.79-8.32l-3.62,1.83A15.93,15.93,0,0,0,165.46,134.59Zm-7.11,21.94a10.22,10.22,0,1,1,6.45-12.94A10.22,10.22,0,0,1,158.35,156.53Z" style="fill:#b3c9ff"/><path d="M160.56,141.43H323A10.59,10.59,0,0,1,333.55,152V291.79a0,0,0,0,1,0,0H150a0,0,0,0,1,0,0V152A10.59,10.59,0,0,1,160.56,141.43Z" style="fill:#fff"/><rect x="163.29" y="250.04" width="61.2" height="30.4" rx="2.43" ry="2.43" style="fill:#dbe0fe;opacity:0.55"/><rect x="163.29" y="164.49" width="109.44" height="5.44" rx="1.38" ry="1.38" style="fill:#dbe0fe;opacity:0.55"/><rect x="163.29" y="175.74" width="109.44" height="5.44" rx="1.38" ry="1.38" style="fill:#dbe0fe;opacity:0.55"/><rect x="163.29" y="186.99" width="109.44" height="5.44" rx="1.38" ry="1.38" style="fill:#dbe0fe;opacity:0.55"/><rect x="163.29" y="198.23" width="109.44" height="5.44" rx="1.38" ry="1.38" style="fill:#dbe0fe;opacity:0.55"/><rect x="163.29" y="209.48" width="109.44" height="5.44" rx="1.38" ry="1.38" style="fill:#dbe0fe;opacity:0.55"/><rect x="163.29" y="220.73" width="109.44" height="5.44" rx="1.38" ry="1.38" style="fill:#dbe0fe;opacity:0.55"/><polygon points="273.41 273.73 274.5 275.94 276.94 276.29 275.18 278.01 275.59 280.44 273.41 279.29 271.23 280.44 271.65 278.01 269.89 276.29 272.32 275.94 273.41 273.73" style="fill:#dbe0fe"/><polygon points="284.22 273.73 285.31 275.94 287.75 276.29 285.99 278.01 286.4 280.44 284.22 279.29 282.04 280.44 282.46 278.01 280.69 276.29 283.13 275.94 284.22 273.73" style="fill:#dbe0fe"/><polygon points="295.03 273.73 296.12 275.94 298.56 276.29 296.79 278.01 297.21 280.44 295.03 279.29 292.85 280.44 293.27 278.01 291.5 276.29 293.94 275.94 295.03 273.73" style="fill:#dbe0fe"/><polygon points="305.84 273.73 306.93 275.94 309.36 276.29 307.6 278.01 308.02 280.44 305.84 279.29 303.66 280.44 304.07 278.01 302.31 276.29 304.75 275.94 305.84 273.73" style="fill:#dbe0fe"/><polygon points="316.64 273.73 317.74 275.94 320.17 276.29 318.41 278.01 318.82 280.44 316.64 279.29 314.47 280.44 314.88 278.01 313.12 276.29 315.56 275.94 316.64 273.73" style="fill:#dbe0fe"/><path d="M263.19,187.61a48.92,48.92,0,0,1-20-12.27,48.92,48.92,0,0,1-20,12.27A77.78,77.78,0,0,1,199.18,191s0,42.23,14.48,59.24c13.6,16,29.56,18.79,29.56,18.79s16-2.82,29.56-18.79c14.48-17,14.48-59.24,14.48-59.24A77.78,77.78,0,0,1,263.19,187.61Z" style="fill:#407bff"/><path d="M241.76,262.32A51.38,51.38,0,0,1,217.18,246c-9-10.52-12-34.72-12.73-48.62a79.24,79.24,0,0,0,19.4-3.56,58.86,58.86,0,0,0,17.91-9.66,58.83,58.83,0,0,0,17.91,9.66,79.27,79.27,0,0,0,19.4,3.56c-.73,13.9-3.77,38.1-12.73,48.62A51.38,51.38,0,0,1,241.76,262.32Z" style="fill:#285699;opacity:0.75"/><path d="M241.76,260.15c-3.82-1.1-13.9-4.84-23-15.5-8.21-9.64-11.25-31.51-12.12-45.32a79.39,79.39,0,0,0,17.85-3.51,60.93,60.93,0,0,0,17.25-9,60.94,60.94,0,0,0,17.25,9,79.46,79.46,0,0,0,17.85,3.51c-.88,13.83-3.94,35.71-12.12,45.32C255.66,255.31,245.59,259,241.76,260.15Z" style="fill:#407bff"/><circle cx="241.76" cy="214.63" r="7.4" style="fill:#fff"/><path d="M241.76,237.63h0a3.12,3.12,0,0,1-3.11-3.11v-17a3.11,3.11,0,0,1,3.11-3.11h0a3.11,3.11,0,0,1,3.11,3.11v17A3.12,3.12,0,0,1,241.76,237.63Z" style="fill:#fff"/><path d="M261.73,187.61a48.92,48.92,0,0,1-20-12.27V269s16-2.82,29.56-18.79C285.8,233.24,285.8,191,285.8,191A77.78,77.78,0,0,1,261.73,187.61Z" style="fill:#5890f4;opacity:0.25;mix-blend-mode:multiply"/><path d="M323,141.43H160.56A10.59,10.59,0,0,0,150,152v5H333.55v-5A10.59,10.59,0,0,0,323,141.43Z" style="fill:url(#a)"/><circle cx="304.61" cy="149.25" r="1.7" style="fill:#fff"/><circle cx="313.04" cy="149.25" r="1.7" style="fill:#fff"/><circle cx="321.47" cy="149.25" r="1.7" style="fill:#fff"/><path d="M72.37,279.81H29.22c-8.42,0-7.05-10,16.37-5.54-5.75-2.63-5.78-6.14-5.29-7.08a3.65,3.65,0,0,1,3.06-1.33c3,.26,5.24,2.08,7.85,3.54a16.76,16.76,0,0,1-7.47-14.34,6,6,0,0,1,1.53-4.26,6.3,6.3,0,0,1,5.08-1.63c3.16.63,9,5.9,11.29,8.14-11.8-10.85-16.29-28-8.74-31.86,12.72-6.57,22.33,30.64,22.33,30.64s-6.33-28,4.28-28.13,2,32.48,2,32.48" style="fill:#acc9f9"/><path d="M420.93,276.06a18.83,18.83,0,0,0-6,1,29.27,29.27,0,0,0-58.52.86c0,.74,0,1.47.09,2.2A16.19,16.19,0,0,0,326.74,292a11.62,11.62,0,1,0-5.65,21.78h99.83a18.89,18.89,0,0,0,0-37.77Z" style="fill:#fff"/><path d="M68.56,259.65a12.38,12.38,0,0,1,4,.66,19.24,19.24,0,0,1,38.47.57c0,.49,0,1-.06,1.44a10.65,10.65,0,0,1,19.54,7.84,7.64,7.64,0,1,1,3.71,14.32H68.56a12.42,12.42,0,0,1,0-24.84Z" style="fill:#fff"/><path d="M333,193.95l4.33-1.55a22.87,22.87,0,0,0-4.68-8.79l-3.7,2.73a18.07,18.07,0,0,0-4.29-3.53l2-4.16a22.33,22.33,0,0,0-9.52-2.9l-.69,4.55a18.07,18.07,0,0,0-5.53.54l-1.55-4.33a22.87,22.87,0,0,0-8.79,4.68l2.73,3.7a18.07,18.07,0,0,0-3.53,4.29l-4.16-2a22.33,22.33,0,0,0-2.9,9.52l4.55.69a18.07,18.07,0,0,0,.54,5.53l-4.33,1.55a22.87,22.87,0,0,0,4.68,8.79l3.7-2.73a18.07,18.07,0,0,0,4.29,3.53l-2,4.16a22.33,22.33,0,0,0,9.52,2.9l.69-4.55a18.07,18.07,0,0,0,5.53-.54l1.55,4.33a22.88,22.88,0,0,0,8.79-4.68L327.5,212a18.07,18.07,0,0,0,3.53-4.29l4.16,2a22.33,22.33,0,0,0,2.9-9.52l-4.55-.69A18.07,18.07,0,0,0,333,193.95ZM312.45,208.1A10.08,10.08,0,1,1,325,201.39,10.08,10.08,0,0,1,312.45,208.1Z" style="fill:#dbe0fe"/><ellipse cx="322.1" cy="329.87" rx="22.99" ry="2.98" style="fill:#acc9f9"/><path d="M333.63,322.19s.29,3.18.41,4,2.7.69,3,.25a22.83,22.83,0,0,0,.17-4.17" style="fill:#ffccb0"/><path d="M337.74,327.09a17.27,17.27,0,0,1-.09,2.24l-3,.2-.18-.49a4.69,4.69,0,0,1-1.69.61l-2.51.17c-1.84.12-2.9,0-3-.36-.29-1.34,1.92-1.43,2.49-1.46,1.64-.11,3.37-1,3.7-1.86.24-.62.11-.77.45-.68a.85.85,0,0,1,.54.41,1.51,1.51,0,0,0,1.61.74,1.8,1.8,0,0,0,1-.55A1.09,1.09,0,0,1,337.74,327.09Z" style="fill:#7c3327"/><path d="M313.35,323.22a24.38,24.38,0,0,0,.14,3.05c.16.8,2.74.54,3,.09a22.83,22.83,0,0,0-.06-4.18" style="fill:#ffccb0"/><path d="M317.21,327.13c.07.84.07,2.44.07,2.44l-2.64.64-.34-.45a4.62,4.62,0,0,1-1.55.85,10.34,10.34,0,0,1-2.49.24c-2.18-.15-3.69-.83-3.76-1.15-.31-1.33,2.59-1.17,3.18-1.22a3.82,3.82,0,0,0,3.17-2.22c.24-.63.1-.77.46-.69a.88.88,0,0,1,.56.4,1.57,1.57,0,0,0,1.67.71,1.88,1.88,0,0,0,1-.57A1.09,1.09,0,0,1,317.21,327.13Z" style="fill:#7c3327"/><path d="M329.21,233.57c.26-.3.42,3.27,4,5.09s9.45.84,11.31.09c2.92-1.16,2-20-1.46-26.09-.8-1.42-3.91-2.12-5.81-2.52-.54,5.11,1.43,17.6,4.32,22.87C341.43,234,329.21,233.57,329.21,233.57Z" style="fill:#f4713d"/><path d="M343.33,234.41c.85-1.17-.43-14.29-.35-16.32l-4,7.32c.72,3-2.28,8.27-5.87,8.24l-.52.73C334.68,234.87,342.48,235.58,343.33,234.41Z" style="fill:#e25833"/><path d="M327.38,283.13a99.3,99.3,0,0,0,1.28,12.68c.55,2.81,6.91,1.12,6.76-1.37-.23-3.54,1.34-10,2.75-26.83.2-2.55,1.35-2.84,2.11-8.08s-2.16-10.71-2.16-10.71l-10.87-.7-.16,15.28,0,5.17S327,275.66,327.38,283.13Z" style="fill:#30334c"/><path d="M335.39,293.85a22.93,22.93,0,0,1,2.36,7.55c.44,5.39-.1,23.11-.1,23.11a11.56,11.56,0,0,1-4.27.17s-5-29.58-5.27-33S335.39,293.85,335.39,293.85Z" style="fill:#30334c"/><path d="M327.38,283.13a94.73,94.73,0,0,1,3.56-9.92c1.76-3.75,2.79-6,2.79-6,6.23-6.53.67-14.36.67-14.36s-3.11,4.2-3.46,4.63-2.36,4-3.86,5.92l0,5.17S327,275.66,327.38,283.13Z" style="fill:#262a3f"/><path d="M318.39,295.58c-.25-4,2.61-8.8,2.61-8.8s-8.3-6.36-8.43-7.83c0,0-1.18,9.31-1.61,12.18-.74,5,1.75,33.45,1.75,33.45a10.25,10.25,0,0,0,4.2.06s.45-11,2.25-18.44C320,302.67,318.69,296.56,318.39,295.58Z" style="fill:#30334c"/><path d="M319.08,248.8c-3.24,7.23-6.76,30.55-7.6,38.61-.36,3.41,2.49,8.59,5.8,5.5,4-3.69,9.51-21.74,11.5-24.72s9.42-5.71,4.34-20.83" style="fill:#30334c"/><path d="M334.72,208.22a14,14,0,0,1-.5-5.2c.39-2.21,1.71-6.18,1.21-9.16s-4.25-5.46-8.22-5.08-5.13,4.19-5.79,6.4a22.78,22.78,0,0,0-.39,7.4,5.12,5.12,0,0,0,1.82,3.64c.66.39,3.15-.12,3.59.35s.77,3.29.77,3.29" style="fill:#ffccb0"/><path d="M336.48,210.73a5.31,5.31,0,0,0-.64-2.42c-.56-.66-4.62-1-5.85-.88a17.89,17.89,0,0,0-4.76,1.67c-.42.29.24,2,.24,2Z" style="fill:#e25833"/><path d="M334.55,204.46s-5.43.15-6.57,0c-1.56-.2-3.47-1.43-3.61-3.3,1.33,0,1.43-2.8.72-3.85s-1.63-.41-1.74.58,0,.68-.27.81-.84.15-.71-1.76a7.22,7.22,0,0,1,.73-3.19c.5-1.1.77-1,1.21-1.24a3.43,3.43,0,0,1-2-1.75c-1.1-1.72-1-3.55,1.1-5.25a2.35,2.35,0,0,0,1.86,1.7c2.4.66,6.74.11,8.86,1.34.9.53,1.7,1.7,1.26,2.61,0,0,1.75-.27,1.85,3.17.21,7-2.15,7.62-2.32,8.69S335.1,204.21,334.55,204.46Z" style="fill:#7c3327"/><path d="M319.08,248.8c.52.19,1,.5,1.51.66a10.36,10.36,0,0,0,3.91.05c1.34-.12,2.69-.24,4-.35,7-.3,9.42,1.39,10.56-.32a2,2,0,0,0,.24-1.44c-.24-1.54-.75-2.08-.55-3.63.17-1.3.42-2.86.75-4.63,1.16-6.15,3.45-15.54,3.76-21.19.45-8.08-7.77-8-7.77-8-12.07-.75-16.56,2.72-17.22,7.91,0,.37-.08.76-.11,1.18-.31,5.35,1.21,16.4,2,22.85C320.42,243.65,318.05,248.42,319.08,248.8Z" style="fill:#f4713d"/><path d="M318.64,249.27c.51.44,2,.56,4.06.38-1.86.14-3.79-1-3.38-2a16.11,16.11,0,0,0,1.7-4.79c.49-6.5.36-24.91.62-24.61-.29.58-1.12,1.39-3.46,1.93,0,5.38.94,14.89,1.32,20.92S316.72,247.61,318.64,249.27Z" style="fill:#e25833"/><path d="M293.75,203c0-.31.44-.16.54.09a1.8,1.8,0,0,1,.06.22c0-.52-.07-.94-.06-1,0-.3.4-.19.53,0,0-.21,0-.36,0-.43,0-.38.44-.23.55.09a4.55,4.55,0,0,1,.1.53,2.61,2.61,0,0,1,0-.29c0-.31.39-.24.5,0a4,4,0,0,1,.11.61c0,.31.14.65.19,1s.39,1.64,1.07,1.77c1,.21.36-1.58,1.08-2,.23-.13.49,1.26.51,2a8.71,8.71,0,0,1,0,1.64,11,11,0,0,0-.27,1.4,6.77,6.77,0,0,0,.36,1l-2.37,1A6,6,0,0,0,296,209a6.55,6.55,0,0,1-1.9-2.78,11.52,11.52,0,0,1-.33-2.1S293.74,203.14,293.75,203Z" style="fill:#ffccb0"/><path d="M296.18,210.2s.8,4.64,1.59,8.36a36.2,36.2,0,0,0,2.77,8.56s0,0,0,.07c.78,1.7,2.72,4.21,3.64,4.64,4.52,2.08,14.81-10,17.19-9.28,4.88,1.3,8.5-12.64,8.5-12.64a61.69,61.69,0,0,0-9.2.82c-3.69.78-13.54,13.1-14,13.13s-1.32-1.82-2.42-3.91c-2.46-4.7-5.19-10.62-5.19-10.62l-2.28.69Z" style="fill:#f4713d"/><path d="M321.09,196.76s-1.72,2.57-1.51,3.13,1.86.52,1.86.52" style="fill:#ffccb0"/><path d="M106.41,227c2.2,2.63,4,8.85,6.25,11.45a84.37,84.37,0,0,0,14.4,11.11c.25-1.6,3.63-.6,2.43-1.69-3.74-3.37-10.22-6.81-12.42-13-1.45-4.07-6.82-13.11-6.82-13.11" style="fill:#db856e"/><path d="M151.93,245H112.25V220.73a3.44,3.44,0,0,1,3.44-3.44h15a1.6,1.6,0,0,1,1,.38l3.63,3.06a1.7,1.7,0,0,0,1.1.4h12.09a3.44,3.44,0,0,1,3.44,3.44Z" style="fill:#37f"/><rect x="114.81" y="222.45" width="35.08" height="19.13" rx="2.04" ry="2.04" style="fill:#fff"/><rect x="112.25" y="226.32" width="39.68" height="25.11" rx="3.83" ry="3.83" style="fill:#6490ff"/><path d="M137.82,235.26H137v-1.65a5,5,0,0,0-9.91,0v1.65h-.78a1,1,0,0,0-1,1V244a2.87,2.87,0,0,0,2.87,2.87h7.65a2.87,2.87,0,0,0,2.87-2.87v-7.73A1,1,0,0,0,137.82,235.26ZM129,233.61a3.14,3.14,0,1,1,6.27,0v1.65H129Z" style="fill:#2660ef"/><path d="M133.83,239.21a1.74,1.74,0,1,0-2.47,1.56v3.11a.73.73,0,1,0,1.46,0v-3.11A1.73,1.73,0,0,0,133.83,239.21Z" style="fill:#fff"/><g style="opacity:0.35000000000000003"><ellipse cx="102.5" cy="326.03" rx="25.43" ry="3.3" style="fill:#5b8ed8"/></g><path d="M101.86,249.57,91.79,241.3s-4.55,6.35-2.72,12.39c.9,3,2,4.44,2.49,5.84s3.71,20,3.51,21.36-1.76,5.22-2.32,9.26c-.67,4.85-.33,20.63-.85,24.82s3.36,4.85,3.55,3.43c1.65-12.12,6.19-31,6.77-37.1S102.38,264.19,101.86,249.57Z" style="fill:#ed9c80"/><path d="M102.06,261.49l-4.2,10A22.27,22.27,0,0,1,101,281.87c.1,1.92,0,3.84,0,5.76a1.91,1.91,0,0,0,.06.42c.54-2.85.94-5.2,1.09-6.73.42-4.28.32-11.07.05-19.84Z" style="fill:#db856e"/><path d="M96.06,314.52s-.87,4.4-.61,5a7.7,7.7,0,0,0,2.1,2.74c1,.6,3.12,1.31,3.29,1.57a.66.66,0,0,1-.11.9,4.43,4.43,0,0,1-3,.81c-2.9-.44-3.22-1.71-4.91-1.9-.29,0-.83.41-1.64,0A1.92,1.92,0,0,1,90,321.77a8.29,8.29,0,0,1,1.24-3.12c.47-.9.76-5,.76-5" style="fill:#ed9c80"/><path d="M101,324.9c.21-.36.25-.91.05-1a17,17,0,0,0-1.82-1.06c-.57-.25-1.46-.47-1.14-.3s-.25.81-.78.78c-1.82-.09-3.17-1.27-4.21-1.52a3.55,3.55,0,0,1-2.22-2.39,7,7,0,0,0-1,2.06,3.57,3.57,0,0,0-.2,1.56,3.63,3.63,0,0,1,.19,1.49,2.85,2.85,0,0,0,1.08.37,4.23,4.23,0,0,0,1.16,0l.12-.94a4.24,4.24,0,0,1,.92.08,5,5,0,0,1,1.42.64c.21.24.38.69.66.83a5.79,5.79,0,0,0,2.39.56C99.49,326.1,100.61,325.52,101,324.9Z" style="fill:#222b70"/><path d="M115.72,324.12c-.21-.24-2.52-.61-3.6-1.06a6.22,6.22,0,0,1-2.52-2.4,26,26,0,0,1-.16-4.82c.22-8.61,1.81-29.67,2-34.71.4-8.76-.74-17.81-4.11-31.87l-12.55-9.63s-3.52,6.54-2.34,12.79c.68,3.63,3.69,4.18,4.2,5.59s8.1,24.13,8.1,24.13a42.75,42.75,0,0,0-1.56,10.29c-.07,4.59,2,18.45,2.4,23.73a17.35,17.35,0,0,1-.08,4.29c-.37,1-1.32,2.09-1.27,3.31a1.87,1.87,0,0,0,1.43,1.65c.89.28,1.39-.24,1.69-.25,1.77-.07,2.26,1.14,5.32,1.14a4.83,4.83,0,0,0,3-1.26A.65.65,0,0,0,115.72,324.12Z" style="fill:#ed9c80"/><path d="M116,325.19c.17-.39.14-.94-.08-1a17.48,17.48,0,0,0-2-.78c-.62-.16-1.57-.24-1.22-.13s-.16.84-.71.89c-1.89.19-3.44-.79-4.54-.87a2.9,2.9,0,0,1-2.29-2,7.3,7.3,0,0,0-1.13,2.2,3.45,3.45,0,0,0,0,1.58,3.45,3.45,0,0,1,.38,1.44,3,3,0,0,0,1.16.21,4.62,4.62,0,0,0,1.19-.17v-.95a4.62,4.62,0,0,1,1-.06,3.2,3.2,0,0,1,1.56.55c.26.2.53.52.84.6a6.41,6.41,0,0,0,2.48.19C114.61,326.61,115.7,325.86,116,325.19Z" style="fill:#222b70"/><path d="M92.24,240.63a14.48,14.48,0,0,0-4.12,13.31c.31,1.39,2.06,5.14,2.4,6.52.77,3.16,2.2,7.78,2.46,11.43,5,3,14.42,1.87,18.49-1a79.69,79.69,0,0,0-1.16-14c-1.3-9.18-2.84-11.24-4.21-14.92-.16-.65-.16-2-.31-2.71" style="fill:#30334c"/><path d="M105.67,210.57c.79.26.49,2.14,1.28,2.4.57.19,1.69-.06,2.21.23,2.78,1.57,2.06,4.69,2.4,8.56,1.17,3,1.49,5.66.55,7.32-1.16,2.06-2.39,2.64-3.82,4.35-1.07,1.28-1.42,3.9-1.64,6.72,0,.49.37,1.34.25,1.81-.23.91-1.6,1.19-3.14,1.22-3.53.07-8.89-1.22-10.46-1.16s-2.88-.67-2.74-1.54c.1-.61.71-.86,1-2,.53-2.61.94-9.12,1.36-11.33,1.06-5.66,1.84-9.86,4.16-15.07" style="fill:#f4713d"/><path d="M113.69,224.13a26.44,26.44,0,0,0-3.2-4.2l-3,1.36c1.42,2.72,1.68,5.93,2.33,8.9a7,7,0,0,0,1.74-.17c.29-.48.18-.24.57-.93A12.2,12.2,0,0,0,113.69,224.13Z" style="fill:#e25833"/><path d="M115.75,202.94a15.06,15.06,0,0,0,.51-3.9c-.09-2.24-.37-5.49-4.1-6.83s-7.84-.53-9.06,2.15-.94,6.76-1.12,8.93a13.43,13.43,0,0,1-1.77,4.78l8,3.46s1.31-2.85,1.85-3.19.73,1,2.52.87c.76-.06,1.57-1.43,2.18-3.1l.06-.17a8.39,8.39,0,0,0,1-.08c.55-.17.51-.41.39-.76A9.1,9.1,0,0,1,115.75,202.94Z" style="fill:#ed9c80"/><path d="M126.86,248.92a4.3,4.3,0,0,0,2.22,2.7,1.43,1.43,0,0,0,.94,0c.44.2,1.82.35,1.31-.47a4,4,0,0,0,3,.65c.37,0,.36-.45-.46-.68a4.11,4.11,0,0,1-2.55-2.14c.17-.13.31.11.77.18s.79-.15.8-.37-.6-.37-.74-.45l-1.53-1a2.92,2.92,0,0,0-1.61-.59c-.11,0-1.21.06-.94.46" style="fill:#ed9c80"/><path d="M108.76,223.2c1.33,2.75,4.82,11.86,5.37,12.91,2.14,4.14,13.08,13.12,13.08,13.12a2.22,2.22,0,0,0,1.86-2.16c-3.13-2.17-9-11.51-10.23-12.62-.79-.72-4.34-15.13-4.34-15.13" style="fill:#ed9c80"/><path d="M111.76,213c-3.05-1.17-6-1.17-8.3-3.51-2.37,1.82,2.86,12.37,4.16,12.65s3,6.11,3.37,6.9c4.22-.11,5.77-2.41,5.77-2.41C115,221.38,114.71,214.18,111.76,213Z" style="fill:#f4713d"/><path d="M109.31,213.33c-.21-.79-.81-1.42-.94-2.23a3.65,3.65,0,0,1,.45-2.4,4.4,4.4,0,0,1,1-1c1.68-1.32,2.26-2.42,1.7-4.4a5.39,5.39,0,0,1-.29-2c.06-.61.18-1.24.84-1.32.45-.05.75.06.91.44s-.11,2.19.53,1.1,1.15-1.12,1.12-3.52c0-.28-.1-1.44.08-1.61a4.57,4.57,0,0,1,1.57,3.23,2.34,2.34,0,0,0,1.08-2,5.35,5.35,0,0,0-.44-2.4c-1.46-3.13-3-3.7-4.31-4.26a9.69,9.69,0,0,0-4-1c-1.37,0-3.07.44-3.47,1.47-1.9-.49-3,1.17-3.44,1.77A9.68,9.68,0,0,0,100.3,196c-.49,1.5-.6,3.1-1,4.64A6.75,6.75,0,0,1,97.5,204c-.93.84-2.23.92-3.24,1.68a5.07,5.07,0,0,0-1.92,4.21c.07,1.61.9,3.35-.07,4.82-.32.48-.76.86-1.07,1.35a3.66,3.66,0,0,0,.07,3.78,6.72,6.72,0,0,0,3.28,2.8,9.62,9.62,0,0,0,3.55.49c2.31-.13,4.26,0,6.71-2.09,1.39-1.18.5-1.86,1.83-3.12.75-.7,1.8-1.08,2.35-2a3.56,3.56,0,0,0,.36-2.56Z" style="fill:#7c3327"/><path d="M368.93,101.36c-9.73,0-16.1,9.86-16.1,9.86s6.37,9.86,16.1,9.86,16.1-9.86,16.1-9.86S378.66,101.36,368.93,101.36Z" style="fill:#fff"/><path d="M368.93,122.11c-10.18,0-16.7-9.91-17-10.33l-.36-.56.36-.56c.27-.42,6.79-10.33,17-10.33s16.7,9.91,17,10.33l.36.56-.36.56C385.63,112.2,379.11,122.11,368.93,122.11ZM354.1,111.22c1.5,2,7.1,8.82,14.83,8.82s13.33-6.79,14.83-8.82c-1.5-2-7.1-8.82-14.83-8.82S355.6,109.19,354.1,111.22Z" style="fill:#407bff"/><circle cx="368.93" cy="111.22" r="6.16" style="fill:#407bff"/><circle cx="366.89" cy="109.36" r="2.47" style="fill:#fff"/><path d="M95.15,144.19H67.81a1.93,1.93,0,0,0-1.93,1.93v17.81a1.93,1.93,0,0,0,1.93,1.93H70.3l6.2,4.07-.79-4.07H95.15a1.93,1.93,0,0,0,1.93-1.93V146.12A1.93,1.93,0,0,0,95.15,144.19Z" style="fill:#407bff"/><circle cx="81.48" cy="160.96" r="2.28" style="fill:#fff"/><g style="clip-path:url(#b)"><path d="M81.48,168.74A7.78,7.78,0,1,1,89.27,161,7.79,7.79,0,0,1,81.48,168.74Zm0-13.4A5.62,5.62,0,1,0,87.1,161,5.62,5.62,0,0,0,81.48,155.34Z" style="fill:#fff"/><path d="M81.48,173.88A12.92,12.92,0,1,1,94.4,161,12.94,12.94,0,0,1,81.48,173.88Zm0-23.68A10.75,10.75,0,1,0,92.24,161,10.77,10.77,0,0,0,81.48,150.21Z" style="fill:#fff"/></g><rect x="186.51" y="89.14" width="37.84" height="26.29" rx="2.34" ry="2.34" style="fill:#bdd5ff"/><polyline points="212.55 114.83 211.48 120.36 219.91 114.83" style="fill:#bdd5ff"/><path d="M205.87,111.23a8.64,8.64,0,1,1,8.64-8.64A8.65,8.65,0,0,1,205.87,111.23Zm0-16.4a7.76,7.76,0,1,0,7.76,7.76A7.77,7.77,0,0,0,205.87,94.83Z" style="fill:#fff"/><path d="M205.87,111.23c-2.17,0-3.87-3.8-3.87-8.64s1.7-8.64,3.87-8.64,3.87,3.8,3.87,8.64S208,111.23,205.87,111.23Zm0-16.4c-1.41,0-3,3.19-3,7.76s1.58,7.76,3,7.76,3-3.19,3-7.76S207.29,94.83,205.87,94.83Z" style="fill:#fff"/><rect x="197.67" y="102.15" width="16.4" height="0.88" style="fill:#fff"/><path d="M205.87,99.38c-4.76,0-6.43-1.67-6.5-1.74L200,97l-.32.31L200,97s1.54,1.48,5.87,1.48S211.73,97,211.75,97l.63.61C212.31,97.71,210.63,99.38,205.87,99.38Z" style="fill:#fff"/><path d="M200,108.16l-.63-.61c.07-.07,1.74-1.74,6.5-1.74s6.43,1.67,6.5,1.74l-.63.61s-1.53-1.47-5.87-1.47S200,108.15,200,108.16Z" style="fill:#fff"/><rect x="286.39" y="47.07" width="60.36" height="41.93" rx="3.73" ry="3.73" style="fill:#407bff"/><polyline points="327.92 88.03 326.21 96.87 339.67 88.03" style="fill:#407bff"/><path d="M326.18,78a10.74,10.74,0,1,1,10.74-10.74A10.75,10.75,0,0,1,326.18,78Zm0-16.87a6.13,6.13,0,1,0,6.14,6.13A6.14,6.14,0,0,0,326.18,61.12Z" style="fill:#fff"/><polygon points="300.81 74.36 296.21 74.36 296.21 64.95 317.75 64.95 317.75 69.56 300.81 69.56 300.81 74.36" style="fill:#fff"/><rect x="303.35" y="67.26" width="4.6" height="5.36" style="fill:#fff"/></g></svg>