<svg xmlns="http://www.w3.org/2000/svg" viewBox="0 0 500 380"><title>decrypt</title><path d="M131.9,193c-.79,31,5.25,70.8,41.39,81,18.1,5.09,38.14,1.73,56.17,8.3,19.2,7,31.82,17.37,54.62,18.44,88.6,4.15,141.28-75.83,135.11-139.29C414.08,109,370.46,9.9,288.24,52.41c-16.2,8.38-29.11,21-45.08,29.37-19.8,10.43-44.58,9.27-62.08,21.07C154.7,120.64,132.53,168.3,131.9,193Z" style="fill:#4dafff;opacity:0.07"/><ellipse cx="250" cy="362.24" rx="193.89" ry="11.32" style="fill:#bfbfbf;opacity:0.1"/><polygon points="313.54 354.01 305.52 353.89 303.67 335.27 311.7 335.39 313.54 354.01" style="fill:#ffb573"/><polygon points="354.83 354.04 346.81 354.04 340.56 335.45 348.58 335.45 354.83 354.04" style="fill:#ffb573"/><path d="M345.74,353.11h9.79a.7.7,0,0,1,.68.55l1.59,7.13a1.18,1.18,0,0,1-1.18,1.43c-3.15-.05-5.45-.24-9.41-.24-2.44,0-9.8.25-13.17.25s-3.81-3.33-2.43-3.63c6.18-1.35,10.85-3.22,12.83-5A2,2,0,0,1,345.74,353.11Z" style="fill:#263238"/><path d="M305.59,353l8.76.14a.7.7,0,0,1,.67.56l1.47,7.16a1.17,1.17,0,0,1-1.18,1.41c-3.16-.1-7.73-.36-11.7-.42-4.65-.07-8.66.12-14.11,0-3.29-.05-4.16-3.4-2.77-3.68,6.3-1.27,11.43-1.34,16.91-4.6A3.72,3.72,0,0,1,305.59,353Z" style="fill:#263238"/><path d="M310.52,114.83a178.56,178.56,0,0,1-8.46,16.48c-1.55,2.67-3.18,5.32-4.93,7.93a88.2,88.2,0,0,1-5.68,7.69l-.8.94-.4.47c-.14.16-.23.28-.51.57a9.71,9.71,0,0,1-4.26,2.78,8.11,8.11,0,0,1-3.15.33,8.67,8.67,0,0,1-2.71-.7,11.47,11.47,0,0,1-3.33-2.29,21.47,21.47,0,0,1-3.49-4.59,47,47,0,0,1-2.27-4.46A88.8,88.8,0,0,1,265,122l5.75-1.79c1.23,2.62,2.5,5.33,3.84,7.92s2.69,5.16,4.16,7.52A37.12,37.12,0,0,0,281,139a13.06,13.06,0,0,0,2.21,2.36c.3.23.53.28.41.19a1.31,1.31,0,0,0-.53-.17,2.5,2.5,0,0,0-.93.06c-.6.19-.69.34-.63.21l1.12-1.53a141.9,141.9,0,0,0,8.85-14.69c2.76-5.11,5.44-10.45,7.94-15.62Z" style="fill:#ffb573"/><path d="M313.86,109.8c2.16,7.36-13.07,27.44-13.07,27.44l-15.36-9.89a98,98,0,0,1,10.65-18.05C302.36,101.28,311.48,101.72,313.86,109.8Z" style="fill:#407bff"/><path d="M313.86,109.8c2.16,7.36-13.07,27.44-13.07,27.44l-15.36-9.89a98,98,0,0,1,10.65-18.05C302.36,101.28,311.48,101.72,313.86,109.8Z" style="opacity:0.2"/><path d="M304.49,118.44c-3.16,1.35-7.81,9-10.23,14.6l6.52,4.19a122.8,122.8,0,0,0,9.8-15.36C308.52,119.61,306.16,117.73,304.49,118.44Z" style="opacity:0.2"/><path d="M270.62,123.09l2-9.05-9.14-.07s-2.44,6.8,2.47,10Z" style="fill:#ffb573"/><polygon points="271.55 105.56 264.23 108.19 263.46 113.97 272.59 114.04 271.55 105.56" style="fill:#ffb573"/><polygon points="303.68 335.27 304.63 344.87 312.65 345 311.71 335.4 303.68 335.27" style="opacity:0.2"/><polygon points="348.58 335.46 340.56 335.46 343.78 345.04 351.81 345.04 348.58 335.46" style="opacity:0.2"/><path d="M349.64,106.54c-8.65,30.49-6.9,62.85-7.68,69.4-6.28-.46-29.93-2.22-42.82-3.18-5.62-45.69,5.62-69.16,5.62-69.16s2.75-.53,6.5-.92c1.17-.12,2.44-.23,3.76-.3.73,0,1.47-.07,2.22-.08a159.06,159.06,0,0,1,18.2,1.36c1.14.14,2.3.31,3.43.5s2.07.37,3,.56C346.27,105.59,349.64,106.54,349.64,106.54Z" style="fill:#407bff"/><path d="M349.64,106.54c-8.65,30.49-6.9,62.85-7.68,69.4-6.28-.46-29.93-2.22-42.82-3.18-5.62-45.69,5.62-69.16,5.62-69.16s2.75-.53,6.5-.92c1.17-.12,2.44-.23,3.76-.3.73,0,1.47-.07,2.22-.08a159.06,159.06,0,0,1,18.2,1.36c1.14.14,2.3.31,3.43.5s2.07.37,3,.56C346.27,105.59,349.64,106.54,349.64,106.54Z" style="opacity:0.2"/><path d="M340.5,119.62c-.77,2.95.11,16.41,3.19,19.73.42-4.31,1-8.81,1.72-13.41Z" style="opacity:0.2"/><path d="M335.16,83c-1.58,5.77-3.53,16.41.28,20.63-3.42,2.93-7.85,6.27-14.82,6s-5.4-5-3.38-7.35c6.65-1.07,6.84-5.93,6-10.57Z" style="fill:#ffb573"/><path d="M334.8,102s-2.88,4.75-14.46,7.64c1.92,1.77,2.85,6,2.85,6S338.3,112,337.84,103.5A10.09,10.09,0,0,0,334.8,102Z" style="fill:#263238"/><path d="M316.22,114.55s1.52-3.66,4.12-4.91c-1.21-1.26-3-5-1.94-7.81a9.39,9.39,0,0,0-2.69.17S311.14,107.77,316.22,114.55Z" style="fill:#263238"/><ellipse cx="319.08" cy="114.52" rx="1.44" ry="0.78" transform="translate(151.06 408.97) rotate(-80.03)" style="fill:#263238"/><ellipse cx="318.39" cy="119.1" rx="1.44" ry="0.78" transform="translate(172.56 426.16) rotate(-85.11)" style="fill:#263238"/><path d="M330.32,86.59l-7,5.15A18.79,18.79,0,0,1,323.6,95c2.52-.17,6.15-2.66,6.61-5.25A8.8,8.8,0,0,0,330.32,86.59Z" style="opacity:0.2"/><path d="M319.1,61.21c-6.24-.13-7.49,14.94-3.45,17.57S330.78,61.46,319.1,61.21Z" style="fill:#263238"/><path d="M336.51,74.27c-1.08,7.89-1.31,12.57-5.61,16.34-6.48,5.67-16,1.31-17.3-6.74-1.17-7.25.79-18.94,8.78-21.52A10.87,10.87,0,0,1,336.51,74.27Z" style="fill:#ffb573"/><path d="M335.38,82c-4,2.11-8.62-19.73,2-18.59C350.72,64.83,343.41,77.79,335.38,82Z" style="fill:#263238"/><path d="M317.57,63.36c0,4.89,15.87,9.75,21.31,8.08s6.8-6,3.89-9C337.83,57.27,317.57,53.78,317.57,63.36Z" style="fill:#263238"/><path d="M318.21,64a9.37,9.37,0,0,0,2.29,4.32c-1.42-.08-2.83-2.09-3.28-3.27S318.21,64,318.21,64Z" style="fill:#263238"/><path d="M339.44,83.28a7.57,7.57,0,0,1-5,3c-2.63.38-3.6-2.06-2.58-4.36.92-2.07,3.39-4.76,5.89-4.08S340.88,81.29,339.44,83.28Z" style="fill:#ffb573"/><path d="M301.65,343l13.59.21s-4.53-53.69-3.31-78.67c.37-7.6,1.9-18.23,3.91-29.62,2.54-14.35,3.76-20.08,7-38.22,2.34-12.94,4.42-21.81,4.42-21.81l-28.15-2.09s-11.94,64.7-11.66,89.2C287.76,287.43,301.65,343,301.65,343Z" style="fill:#263238"/><path d="M317.38,192c-5.06,12.6-5.16,42.12-2.83,50.43.4-2.46.83-5,1.28-7.54,2.54-14.36,3.76-20.08,7-38.22.06-.36.13-.71.19-1.06A19.5,19.5,0,0,0,317.38,192Z" style="opacity:0.2"/><path d="M314.33,173.89s2.49,67.69,4.37,91.13C320.76,290.7,340,343.19,340,343.19h14.7s-9.81-48-12.82-73c-3.43-28.4.06-94.26.06-94.26Z" style="fill:#263238"/><polygon points="338.25 343.5 355.56 343.5 355.56 338.33 336.21 337.99 338.25 343.5" style="fill:#407bff"/><polygon points="299.94 343.26 316.13 343.51 316.21 338.28 298.11 337.72 299.94 343.26" style="fill:#407bff"/><ellipse cx="323.56" cy="75.54" rx="1.17" ry="0.77" transform="translate(224.2 392.59) rotate(-85.74)" style="fill:#263238"/><ellipse cx="316.26" cy="74.99" rx="1.17" ry="0.77" transform="translate(218.01 384.82) rotate(-85.75)" style="fill:#263238"/><path d="M319.32,75.54a23.18,23.18,0,0,1-3.5,5.29,3.73,3.73,0,0,0,3,.81Z" style="fill:#ed893e"/><path d="M321.46,83.57a5.33,5.33,0,0,0,3.8-1.84.19.19,0,0,0-.3-.23,5.14,5.14,0,0,1-4.32,1.69.19.19,0,1,0,0,.38A6.3,6.3,0,0,0,321.46,83.57Z" style="fill:#263238"/><path d="M326.75,73.4a.38.38,0,0,0,.3-.59,3.77,3.77,0,0,0-3-1.79.38.38,0,0,0,0,.76h0a3,3,0,0,1,2.34,1.45A.38.38,0,0,0,326.75,73.4Z" style="fill:#263238"/><path d="M314.07,72.31a.38.38,0,0,0,.31-.19,3,3,0,0,1,2.27-1.55.38.38,0,0,0,0-.76,3.78,3.78,0,0,0-2.88,1.93.38.38,0,0,0,.35.57Z" style="fill:#263238"/><path d="M343.08,354.52a9.46,9.46,0,0,0,2.1-.29.19.19,0,0,0,.06-.35c-.29-.18-2.88-1.77-3.77-1.32a.61.61,0,0,0-.33.54,1.14,1.14,0,0,0,.39,1A2.43,2.43,0,0,0,343.08,354.52Zm1.55-.56c-1.36.27-2.41.22-2.85-.14a.77.77,0,0,1-.26-.69c0-.15.07-.2.12-.22C342.1,352.66,343.58,353.35,344.63,354Z" style="fill:#407bff"/><path d="M345.14,354.23a.19.19,0,0,0,.19-.2c0-.1-.2-2.41-1.13-3.18a1,1,0,0,0-.81-.24h0a.62.62,0,0,0-.6.5c-.17.89,1.44,2.65,2.27,3.1ZM343.52,351a.67.67,0,0,1,.44.17,4.57,4.57,0,0,1,.95,2.51c-.83-.63-1.85-2-1.75-2.48,0,0,0-.16.28-.19h.09Z" style="fill:#407bff"/><path d="M304.78,354.06a.19.19,0,0,0,0-.35c-.36-.19-3.56-1.88-4.55-1.35a.6.6,0,0,0-.32.5h0a1.07,1.07,0,0,0,.34.93c.87.79,3.17.51,4.47.28Zm-4.27-1.39c.61-.2,2.35.49,3.61,1.12-1.78.27-3.1.17-3.58-.28a.69.69,0,0,1-.22-.61.23.23,0,0,1,.12-.2Z" style="fill:#407bff"/><path d="M304.78,354.06l0,0a.19.19,0,0,0,.08-.17c0-.09-.19-2.26-1.2-3.11a1.39,1.39,0,0,0-1-.34h0c-.52,0-.68.31-.72.52-.16.91,1.73,2.67,2.69,3.12A.19.19,0,0,0,304.78,354.06Zm-2.28-3.23.19,0h0a1,1,0,0,1,.77.25,4.46,4.46,0,0,1,1,2.49c-1-.61-2.26-2-2.17-2.54C302.33,351,302.34,350.87,302.5,350.82Zm.18-.23h0Z" style="fill:#407bff"/><path d="M351.7,111.54c2.8,5.62,5.31,11.24,7.62,17,1.17,2.89,2.25,5.81,3.31,8.77.52,1.48,1,3,1.5,4.48l.36,1.13.39,1.3c.28.89.45,1.78.65,2.67a49.16,49.16,0,0,1-.92,20.22,76.28,76.28,0,0,1-2.81,9.25q-.86,2.24-1.83,4.43c-.65,1.48-1.31,2.87-2.12,4.37l-5.53-2.4c.77-2.73,1.55-5.67,2.1-8.54s1.06-5.77,1.38-8.63a58.19,58.19,0,0,0,.34-8.45,33.46,33.46,0,0,0-1.1-7.84c-.19-.59-.34-1.2-.57-1.76-.12-.3-.19-.54-.33-.88l-.43-1c-.56-1.37-1.17-2.74-1.75-4.11-1.17-2.75-2.43-5.48-3.66-8.23l-7.55-16.43Z" style="fill:#ffb573"/><path d="M349.64,106.54c7.32,2.29,14.53,27.13,14.53,27.13l-16.94,7.42s-5.48-12-8.63-21.4C335.15,109.43,340.76,103.76,349.64,106.54Z" style="fill:#407bff"/><path d="M349.64,106.54c7.32,2.29,14.53,27.13,14.53,27.13l-16.94,7.42s-5.48-12-8.63-21.4C335.15,109.43,340.76,103.76,349.64,106.54Z" style="opacity:0.2"/><path d="M352.77,181.39l-4,7.13,9.31,2.42s2.82-6.92-.51-9.11Z" style="fill:#ffb573"/><polygon points="348.13 196.61 356.68 197.32 358.13 190.94 348.82 188.52 348.13 196.61" style="fill:#ffb573"/><polygon points="296.75 235.27 85.17 235.27 100.09 23.7 311.67 23.7 296.75 235.27" style="fill:#407bff;opacity:0.19"/><polygon points="132.84 235.27 102.41 235.27 178.22 23.7 208.65 23.7 132.84 235.27" style="fill:#fff;opacity:0.09"/><polygon points="206.75 235.27 139.63 235.27 215.44 23.7 282.56 23.7 206.75 235.27" style="fill:#fff;opacity:0.1"/><polygon points="100.65 59.83 94.45 59.39 97.19 20.59 136 20.59 136 26.81 102.98 26.81 100.65 59.83" style="fill:#407bff"/><polygon points="121.08 238.38 81.83 238.38 84.6 199.15 90.8 199.59 88.5 232.16 121.08 232.16 121.08 238.38" style="fill:#407bff"/><polygon points="312.23 59.83 306.04 59.39 308.33 26.81 275.75 26.81 275.75 20.59 315 20.59 312.23 59.83" style="fill:#407bff"/><polygon points="299.64 238.38 260.83 238.38 260.83 232.16 293.85 232.16 296.18 199.15 302.38 199.59 299.64 238.38" style="fill:#407bff"/><g style="opacity:0.4"><path d="M194.25,204.07a1.1,1.1,0,0,1-.53-.13c-.06,0-1.53-.84-4-2.35-1-.63-2.26-1.4-3.63-2.28-4.35-2.83-8.54-5.8-12.47-8.86-1-.74-1.9-1.5-2.87-2.29-3.62-3-7-5.94-9.93-8.86-.76-.75-1.52-1.51-2.27-2.29a101.9,101.9,0,0,1-7.67-8.89c-.58-.75-1.14-1.52-1.69-2.3a68.56,68.56,0,0,1-5.43-8.94c-.38-.75-.76-1.53-1.11-2.32a48.48,48.48,0,0,1-3.07-9c-.17-.71-.33-1.47-.48-2.33-.1-.56-.19-1.15-.27-1.74-.3-2.29-.57-4.62-.82-7.14-.08-.75-.15-1.5-.22-2.26-.26-3-.47-5.93-.63-8.85l0-.3c0-.67-.08-1.32-.11-2-.14-2.88-.24-5.85-.29-8.83l0-2.27c0-3.15,0-6.12,0-8.83,0-.76,0-1.52,0-2.27.07-3.26.18-6.23.31-8.83v-.17c0-.72.07-1.42.11-2.11.18-3.22.39-6.28.6-8.83.07-.88.13-1.62.2-2.28.23-2.52.4-3.92.4-3.92a1.1,1.1,0,0,1,1-1c.18,0,18.63-1.43,38.29-4.89,4-.7,7.86-1.46,11.51-2.25,5.17-1.13,9.92-2.35,14.14-3.64a2.86,2.86,0,0,1,1.73,0c4,1.29,8.59,2.51,13.6,3.64,3.54.8,7.31,1.55,11.19,2.25,19.16,3.46,37.41,4.87,37.59,4.89a1.1,1.1,0,0,1,1,1.12s0,1.41-.15,3.93c0,.68-.07,1.44-.12,2.28-.14,2.57-.37,5.62-.64,8.83-.05.64-.11,1.29-.17,2l0,.33c-.24,2.62-.55,5.59-.93,8.83-.09.77-.18,1.52-.28,2.27-.34,2.72-.75,5.69-1.23,8.82l-.35,2.26c-.48,3-1,6-1.54,8.84-.12.64-.25,1.29-.38,1.94l-.07.34c-.57,2.9-1.2,5.87-1.88,8.83-.18.76-.36,1.52-.54,2.28-.6,2.51-1.2,4.84-1.82,7.13-.16.58-.33,1.17-.52,1.74-.27.85-.53,1.62-.81,2.33a56.09,56.09,0,0,1-4.32,9c-.45.77-.93,1.55-1.43,2.31a83.27,83.27,0,0,1-6.67,8.91c-.66.77-1.32,1.54-2,2.29a125.09,125.09,0,0,1-8.91,8.87q-1.29,1.17-2.58,2.29c-3.38,2.92-7.14,5.89-11.17,8.84-1.08.79-2.15,1.55-3.2,2.28-4.36,3.05-9,6-13.7,8.84-1.5.88-2.83,1.64-4,2.28-2.68,1.51-4.26,2.31-4.32,2.35A1.09,1.09,0,0,1,194.25,204.07ZM142.88,73.59a2.92,2.92,0,0,0-2.64,2.64l-.05.54c-.06.66-.12,1.38-.19,2.18-.22,2.6-.43,5.63-.61,8.84,0,.68-.07,1.37-.11,2.09v.17c-.13,2.58-.24,5.53-.31,8.77,0,.74,0,1.49,0,2.25,0,2.69-.05,5.64,0,8.77l0,2.26c.06,3,.16,5.9.29,8.76,0,.65.07,1.3.11,2l0,.3c.16,2.9.37,5.84.63,8.76.07.75.14,1.5.22,2.25.25,2.5.51,4.81.81,7.07.07.55.15,1.1.25,1.64.14.82.29,1.54.46,2.21a46.3,46.3,0,0,0,2.94,8.6c.33.76.69,1.5,1.06,2.22a66.42,66.42,0,0,0,5.26,8.66c.53.75,1.08,1.5,1.64,2.23a99.62,99.62,0,0,0,7.51,8.71c.74.77,1.48,1.51,2.23,2.25,2.92,2.87,6.21,5.8,9.78,8.72q1.44,1.16,2.84,2.26c3.88,3,8,6,12.31,8.74,1.34.86,2.55,1.62,3.59,2.25l2,1.19a2.91,2.91,0,0,0,2.87,0l2.27-1.26c1.13-.63,2.44-1.39,3.92-2.25,4.68-2.79,9.24-5.73,13.55-8.75q1.56-1.1,3.16-2.26c4-2.92,7.69-5.85,11-8.73q1.28-1.11,2.55-2.25a123.27,123.27,0,0,0,8.75-8.72c.68-.74,1.33-1.49,2-2.24a81.09,81.09,0,0,0,6.5-8.68c.48-.74.95-1.49,1.38-2.23a54,54,0,0,0,4.16-8.62c.27-.68.52-1.41.77-2.22.18-.55.34-1.1.49-1.66.62-2.26,1.21-4.57,1.81-7.07.19-.76.36-1.51.54-2.26.67-2.93,1.3-5.88,1.86-8.76l.07-.35c.13-.64.25-1.28.37-1.92.54-2.84,1.05-5.79,1.53-8.77l.34-2.26c.47-3.11.88-6.06,1.22-8.77.1-.75.18-1.5.27-2.23.38-3.24.7-6.19.93-8.79l0-.33c.06-.66.12-1.3.17-1.93h0c.27-3.18.49-6.21.64-8.76,0-.83.09-1.58.12-2.25v0a2.92,2.92,0,0,0-2.65-3c-6.39-.6-20-2-34-4.58-3.92-.71-7.71-1.47-11.28-2.27-4.8-1.08-9.22-2.25-13.14-3.48a2.87,2.87,0,0,0-1.71,0c-4.11,1.24-8.7,2.41-13.67,3.49-3.69.8-7.59,1.57-11.6,2.27C163.25,71.57,149.1,73,142.88,73.59Z" style="fill:#457fe5;stroke:#5687f4;stroke-miterlimit:10;stroke-width:4px"/><path d="M214,108.71a14.31,14.31,0,0,1-14,13.12,12.07,12.07,0,0,1-12.2-13.12,14.3,14.3,0,0,1,14-13.12A12.07,12.07,0,0,1,214,108.71Z" style="fill:#407bff"/><polygon points="203.78 113.29 200.57 113.29 197.37 113.29 188.31 155.55 206.88 155.55 203.78 113.29" style="fill:#407bff"/></g></svg>