<svg xmlns="http://www.w3.org/2000/svg" viewBox="0 0 500 400"><title>empty_category</title><path d="M434.09,90.22c-15.46-10.52-48.71-15.91-67.43-9.7-23.91,7.94-23.06,25.36-40.46,36.13-47,29.1-94.72,9.53-144.38-3-110.07-27.81-179,78.1-70.9,143.21,65,39.14,201.5,67.72,216.87-36,6.64-44.84-17.34-48.25,38.4-58C388.19,159,504.13,137.89,434.09,90.22Z" style="fill:#a1d9ff;opacity:0.15"/><ellipse cx="250" cy="366.24" rx="193.89" ry="11.32" style="fill:#bfbfbf;opacity:0.1"/><path d="M334.7,108.63c-.17,3-.52,5.75-.91,8.6s-.92,5.64-1.53,8.44a93.87,93.87,0,0,1-5,16.57l-.9,2-.23.5L326,145c0,.08-.07.15-.15.32a7.94,7.94,0,0,1-1.15,1.73,6.74,6.74,0,0,1-1.91,1.51,6.62,6.62,0,0,1-2.28.72,8.63,8.63,0,0,1-3.63-.38,17.74,17.74,0,0,1-4.64-2.39,39.7,39.7,0,0,1-3.55-2.85,82.68,82.68,0,0,1-11.3-12.94l3.32-2.8c1.95,1.85,4,3.71,6,5.49a79.69,79.69,0,0,0,6.22,5,32.64,32.64,0,0,0,3.16,2,10.78,10.78,0,0,0,2.82,1.2c.35.07.59,0,.48,0a1.09,1.09,0,0,0-.64.28c-.06.05-.06,0,0,0l.32-.84.7-1.82a107.16,107.16,0,0,0,4.05-15.36c.52-2.62.9-5.29,1.29-7.94s.68-5.38.91-7.91Z" style="fill:#ffc3bd"/><path d="M328.64,97.62c-3.73.95-6.33,16.29-6.33,16.29l10.27,7s9.85-15.47,7-19.57C336.57,97.05,334.08,96.24,328.64,97.62Z" style="fill:#407bff"/><path d="M328.64,97.62c-3.73.95-6.33,16.29-6.33,16.29l10.27,7s9.85-15.47,7-19.57C336.57,97.05,334.08,96.24,328.64,97.62Z" style="fill:#407bff"/><path d="M328.64,97.62c-3.73.95-6.33,16.29-6.33,16.29l10.27,7s9.85-15.47,7-19.57C336.57,97.05,334.08,96.24,328.64,97.62Z" style="opacity:0.4"/><polygon points="328.97 101.05 326.11 116.5 331.88 120.42 328.97 101.05" style="opacity:0.30000000000000004"/><path d="M300.85,127.29,296,119.57l-2.77,8.77s4,4.2,7.63,3.2Z" style="fill:#ffc3bd"/><polygon points="288.8 117.02 286.88 124.48 293.19 128.34 295.96 119.57 288.8 117.02" style="fill:#ffc3bd"/><polygon points="348.8 355.75 339.76 355.75 339.15 334.81 348.2 334.81 348.8 355.75" style="fill:#ffc3bd"/><polygon points="428.59 313.75 421.7 319.61 405.93 305.53 412.82 299.68 428.59 313.75" style="fill:#ffc3bd"/><path d="M419.81,318.91l6.68-7.65a.72.72,0,0,1,.94-.14l6.81,4.42a1.45,1.45,0,0,1,.26,2.15c-2.38,2.63-3.66,3.78-6.6,7.14-1.81,2.07-4.24,5.28-6.73,8.14s-5.46.54-4.67-.87c3.51-6.34,2.67-8.56,2.73-11.68A2.36,2.36,0,0,1,419.81,318.91Z" style="fill:#263238"/><path d="M339.45,354.71h10.16a.72.72,0,0,1,.72.62l1.16,8A1.45,1.45,0,0,1,350,365c-3.54-.06-5.25-.27-9.72-.27-2.75,0-8.43.29-12.23.29s-4-3.75-2.42-4.09c7.09-1.52,9.88-3.63,12.26-5.63A2.36,2.36,0,0,1,339.45,354.71Z" style="fill:#263238"/><polygon points="339.16 334.82 339.47 345.61 348.51 345.61 348.2 334.82 339.16 334.82" style="opacity:0.2"/><polygon points="412.83 299.68 405.93 305.53 414.07 312.79 420.96 306.93 412.83 299.68" style="opacity:0.2"/><path d="M328.64,97.62s-4.31,1.52,4.32,54.58h36.72c-.62-14.95-.63-24.16,6.51-54.84A108.37,108.37,0,0,0,360.6,95.3a116.83,116.83,0,0,0-16.68,0C336.76,96,328.64,97.62,328.64,97.62Z" style="fill:#407bff"/><path d="M328.64,97.62s-4.31,1.52,4.32,54.58h36.72c-.62-14.95-.63-24.16,6.51-54.84A108.37,108.37,0,0,0,360.6,95.3a116.83,116.83,0,0,0-16.68,0C336.76,96,328.64,97.62,328.64,97.62Z" style="opacity:0.4"/><path d="M360.6,95.3a117.35,117.35,0,0,0-16.68,0c-.9.08-1.82.18-2.73.29a4.45,4.45,0,0,0-.5,3.9c1.17,2.91,5.39,3.25,8.47,3.25,11.37,0,13.29-6.64,13.37-6.92l.11-.4C362,95.38,361.28,95.33,360.6,95.3Z" style="fill:#fff"/><path d="M358.95,76.53c-1.05,5.37-2.1,15.2,1.65,18.78,0,0-1.47,5.44-11.44,5.44-11,0-5.24-5.44-5.24-5.44,6-1.43,5.83-5.87,4.79-10Z" style="fill:#ffc3bd"/><path d="M354.77,80.09l-6.06,5.17a17.18,17.18,0,0,1,.51,3c2.29-.33,5.43-2.84,5.67-5.23A8,8,0,0,0,354.77,80.09Z" style="opacity:0.2"/><path d="M352.71,47.35c-.93-3.14-1.73-8.11,3.88-10.3-2.19-2.68-2.72-7.72,0-10.71s6.8-1.89,6.8-1.89,1.2-7.31,10.09-6,4.93,7.16,4.93,7.16,12.13-2.4,12.94,9-6.15,10-6.15,10,5.41,4.54,2.42,9.53-9.93,3.27-9.93,3.27-3.26,8.82-10.94,3.8S352.71,47.35,352.71,47.35Z" style="fill:#263238"/><path d="M334.7,54c-3,3.87-1.68,8.27,1,10,6.45,4.12,15.78-13.15,13.35-15.22S337.7,50.11,334.7,54Z" style="fill:#263238"/><path d="M361.79,44.76c-4.24-1.71-8.54.08-9.88,2.66-3.27,6.29,11.58,17.62,15.88,9.76C370.34,52.51,366.16,46.52,361.79,44.76Z" style="fill:#407bff"/><path d="M360,64c.31,9,.63,12.76-3.44,17.77-6.11,7.53-17.2,5.95-20.18-2.75-2.68-7.83-2.73-21.18,5.65-25.57A12.24,12.24,0,0,1,360,64Z" style="fill:#ffc3bd"/><path d="M358.65,68.71c-4-1.49-5-6.16-4.35-8-2-.08-6.38-.8-8-3.28-3.12,2-9.71,4-10.43.68s9.24-11.9,16.75-12.55c8.94-.78,17.76,8,15.48,16.41S358.65,68.71,358.65,68.71Z" style="fill:#263238"/><path d="M333,152.2s-7.13,69.66-6.54,97.23c.62,28.68,11.13,94.1,11.13,94.1h12.23s-1.94-63.74-.85-91.91c1.18-30.71,10.93-99.42,10.93-99.42Z" style="fill:#263238"/><polygon points="350.83 343.96 336.49 343.96 335.43 339.39 351.5 338.83 350.83 343.96" style="fill:#407bff"/><path d="M348.8,169.53c-9,18.15-1.81,51.25,1.38,63.56,1.64-18.5,4.39-41.1,6.54-57.71C355.36,166,353,161.16,348.8,169.53Z" style="opacity:0.2"/><path d="M342.66,152.2s8.32,72.42,14.6,95.66c7.46,27.6,53.79,64.75,53.79,64.75l9.4-8s-33.58-40.35-39.28-54.89c-12.17-31-1.75-77.28-11.48-97.54Z" style="fill:#263238"/><polygon points="421.95 304.2 410.29 314.1 405.93 311.49 419.12 299.22 421.95 304.2" style="fill:#407bff"/><ellipse cx="345.83" cy="67.84" rx="0.86" ry="1.32" transform="translate(-4.9 33.32) rotate(-5.48)" style="fill:#263238"/><ellipse cx="337.63" cy="68.63" rx="0.86" ry="1.32" transform="translate(-5.01 32.54) rotate(-5.48)" style="fill:#263238"/><path d="M337.71,67.34,335.92,67S336.95,68.28,337.71,67.34Z" style="fill:#263238"/><path d="M340.77,69.59a19.48,19.48,0,0,1-2.14,4.88,3.14,3.14,0,0,0,2.63.24Z" style="fill:#ed847e"/><path d="M345.3,77.1a7,7,0,0,1-1.21.22.21.21,0,1,1,0-.43,5.77,5.77,0,0,0,4.47-2.7.21.21,0,1,1,.38.2A6,6,0,0,1,345.3,77.1Z" style="fill:#263238"/><path d="M362.1,70.21a6.56,6.56,0,0,1-2.48,4.35c-1.83,1.4-3.59,0-3.8-2.2-.19-2,.54-5,2.72-5.58A3,3,0,0,1,362.1,70.21Z" style="fill:#ffc3bd"/><path d="M347.57,62.62a.43.43,0,0,1-.34,0,3.41,3.41,0,0,0-3.08-.3.43.43,0,1,1-.37-.77,4.25,4.25,0,0,1,3.89.34.43.43,0,0,1-.11.78Z" style="fill:#263238"/><path d="M334.47,65.11a.43.43,0,0,1-.49-.61,4.25,4.25,0,0,1,3.17-2.29.43.43,0,0,1,.07.85,3.39,3.39,0,0,0-2.49,1.84A.43.43,0,0,1,334.47,65.11Z" style="fill:#263238"/><path d="M379.94,107.11a143.43,143.43,0,0,1,5.27,15.26,95.24,95.24,0,0,1,3.32,16c.17,1.38.22,2.82.29,4.25v.82c0,.29,0,.58-.09.85a10.58,10.58,0,0,1-.34,1.48,14.67,14.67,0,0,1-1,2.41,35.14,35.14,0,0,1-5.07,7.09,86,86,0,0,1-12,10.92L367.43,163c3.33-3.88,6.7-7.88,9.54-12a33,33,0,0,0,3.5-6,8.63,8.63,0,0,0,.39-1.27,2.39,2.39,0,0,0,.06-.44.84.84,0,0,0,0-.13s0,0,0,0V143c-.13-1.19-.22-2.36-.45-3.57a110,110,0,0,0-3.59-14.59c-1.53-4.84-3.24-9.75-5-14.43Z" style="fill:#ffc3bd"/><path d="M376.19,97.36c3.68,1.12,8.1,13.79,8.1,13.79L370,121.35s-5.21-10.58-3.66-15.33C368,101.07,372,96.08,376.19,97.36Z" style="fill:#407bff"/><path d="M376.19,97.36c3.68,1.12,8.1,13.79,8.1,13.79L370,121.35s-5.21-10.58-3.66-15.33C368,101.07,372,96.08,376.19,97.36Z" style="opacity:0.4"/><path d="M417.34,323.27a1.25,1.25,0,0,1-1-.49.73.73,0,0,1-.17-.72c.33-1.1,3.48-2,3.83-2.11a.21.21,0,0,1,.25.31c-.56,1.06-1.67,2.87-2.82,3Zm2.32-2.75c-1.25.4-2.86,1.09-3,1.67a.3.3,0,0,0,.09.31.81.81,0,0,0,.72.34C418,322.77,418.86,321.91,419.66,320.52Z" style="fill:#407bff"/><path d="M418.67,320.56a3.71,3.71,0,0,1-2.62-.73.75.75,0,0,1,0-.94,1.11,1.11,0,0,1,.81-.49c1.3-.17,3.27,1.54,3.35,1.61a.21.21,0,0,1-.07.36A5,5,0,0,1,418.67,320.56Zm-1.59-1.75h-.14a.69.69,0,0,0-.51.31c-.15.23-.1.35,0,.43.39.5,2.16.69,3.25.5A5.4,5.4,0,0,0,417.08,318.81Z" style="fill:#407bff"/><path d="M336.05,356.29a3.39,3.39,0,0,1-2.19-.56,1.19,1.19,0,0,1-.39-1,.69.69,0,0,1,.36-.57c1.11-.61,4.71,1.23,5.12,1.45a.21.21,0,0,1-.06.4A15.38,15.38,0,0,1,336.05,356.29Zm-1.61-1.87a.85.85,0,0,0-.4.08.27.27,0,0,0-.14.23.77.77,0,0,0,.25.69c.55.49,2,.58,4,.25A11.64,11.64,0,0,0,334.44,354.42Z" style="fill:#407bff"/><path d="M338.86,356l-.09,0c-1.08-.49-3.21-2.44-3-3.46,0-.24.21-.54.8-.6a1.56,1.56,0,0,1,1.19.37c1.14.95,1.35,3.38,1.35,3.48a.21.21,0,0,1-.21.23Zm-2.15-3.67h-.13c-.39,0-.42.2-.43.25-.1.62,1.35,2.15,2.44,2.81a5,5,0,0,0-1.15-2.79A1.12,1.12,0,0,0,336.7,352.3Z" style="fill:#407bff"/><path d="M370.23,150l.94,3.29c.13.25-.17.52-.6.52h-37.8c-.33,0-.61-.16-.63-.37l-.33-3.29c0-.23.26-.42.63-.42h37.19A.67.67,0,0,1,370.23,150Z" style="fill:#407bff"/><path d="M370.23,150l.94,3.29c.13.25-.17.52-.6.52h-37.8c-.33,0-.61-.16-.63-.37l-.33-3.29c0-.23.26-.42.63-.42h37.19A.67.67,0,0,1,370.23,150Z" style="fill:#fff;opacity:0.30000000000000004"/><path d="M365.24,154.2h1c.2,0,.35-.1.34-.23l-.47-4.27c0-.12-.19-.23-.39-.23h-1c-.2,0-.35.1-.34.23l.47,4.27C364.87,154.1,365,154.2,365.24,154.2Z" style="fill:#263238"/><path d="M335.58,154.2h1c.2,0,.35-.1.34-.23l-.47-4.27c0-.12-.19-.23-.39-.23h-1c-.2,0-.35.1-.34.23l.47,4.27C335.21,154.1,335.38,154.2,335.58,154.2Z" style="fill:#263238"/><path d="M350.41,154.2h1c.2,0,.35-.1.34-.23l-.47-4.27c0-.12-.19-.23-.39-.23h-1c-.2,0-.35.1-.34.23L350,154C350,154.1,350.21,154.2,350.41,154.2Z" style="fill:#263238"/><path d="M345.92,66.55l-1.79-.34S345.15,67.49,345.92,66.55Z" style="fill:#263238"/><path d="M368.39,162l-9.66,1.47,6.92,6.06s5.46-2,6-5.7Z" style="fill:#ffc3bd"/><polygon points="353.51 169.02 359.58 173.78 366.99 168.94 358.73 163.49 353.51 169.02" style="fill:#ffc3bd"/><path d="M307.84,179.55h0a12.7,12.7,0,0,1,11.71-8.33h80A9.45,9.45,0,0,1,409.32,182L388.64,355.51a12.58,12.58,0,0,1-12.28,10.73h-254a9.45,9.45,0,0,1-9.72-10.73L130,209.73A12.58,12.58,0,0,1,142.27,199H280.49A29.66,29.66,0,0,0,307.84,179.55Z" style="fill:#407bff"/><polygon points="117.23 358.25 382.64 358.25 397.76 179.67 132.36 179.67 117.23 358.25" style="fill:#f0f0f0"/><polygon points="117.23 358.25 382.64 358.25 393.58 179.67 132.36 179.67 117.23 358.25" style="fill:#e0e0e0"/><polygon points="117.23 358.25 382.64 358.25 391.76 174 126.36 174 117.23 358.25" style="fill:#f0f0f0"/><polygon points="117.23 358.25 382.64 358.25 386.25 174 126.36 174 117.23 358.25" style="fill:#e0e0e0"/><polygon points="117.23 358.25 382.64 358.25 384.22 169 118.82 169 117.23 358.25" style="fill:#f0f0f0"/><polygon points="117.23 358.25 382.64 358.25 377.19 172.58 113.5 172.58 117.23 358.25" style="fill:#e0e0e0"/><polygon points="117.23 358.25 382.64 358.25 374.76 174 109.36 174 117.23 358.25" style="fill:#f0f0f0"/><polygon points="117.23 358.25 382.64 358.25 370.09 176.78 104.69 176.78 117.23 358.25" style="fill:#e0e0e0"/><polygon points="117.23 358.25 382.64 358.25 368.09 178.33 102.69 178.33 117.23 358.25" style="fill:#f0f0f0"/><path d="M250.14,190.82h0a8.65,8.65,0,0,1,9.05-8.53h80a14,14,0,0,1,13.14,11l31.62,162c1.19,6.07-2.78,11-8.85,11h-254a14,14,0,0,1-13.14-11L81.92,221.74c-1.19-6.07,2.78-11,8.85-11H229C241,210.74,249.73,202.48,250.14,190.82Z" style="fill:#407bff"/><path d="M250.14,190.82h0a8.65,8.65,0,0,1,9.05-8.53h80a14,14,0,0,1,13.14,11l31.62,162c1.19,6.07-2.78,11-8.85,11h-254a14,14,0,0,1-13.14-11L81.92,221.74c-1.19-6.07,2.78-11,8.85-11H229C241,210.74,249.73,202.48,250.14,190.82Z" style="opacity:0.2"/></svg>