<svg xmlns="http://www.w3.org/2000/svg" viewBox="0 0 500 400"><title>empty</title><path d="M69.79,158C49.19,272.4,187,199.31,231.47,208.35c31.9,6.48,63.82,66.46,107.21,68.1,45.59,1.73,80.37-42.23,85.92-81.8C433,134.85,349.42,16,276.06,27.57c-55.64,8.77-47.88,77.6-99.9,94C143.45,131.89,81,95.66,69.79,158Z" style="fill:#a1d9ff;opacity:0.15"/><ellipse cx="250" cy="366.24" rx="193.89" ry="11.32" style="fill:#c1c1c1;opacity:0.12"/><path d="M134.59,190.69l-1.2-3.36a10.87,10.87,0,0,0-11.5-7.14L74.1,185.77a10.87,10.87,0,0,0-9.53,12.06l13.6,116.3a7.45,7.45,0,0,0,8.27,6.54l171-20A7.45,7.45,0,0,0,264,292.4L252.2,191.86a7.45,7.45,0,0,0-8.27-6.54l-99.29,11.61A9.5,9.5,0,0,1,134.59,190.69Z" style="fill:#407bff"/><rect x="92.22" y="144.76" width="55.09" height="75.9" transform="translate(-33.4 26.93) rotate(-11.27)" style="fill:#407bff"/><rect x="92.22" y="144.76" width="55.09" height="75.9" transform="translate(-33.4 26.93) rotate(-11.27)" style="fill:#fff;opacity:0.7000000000000001"/><g style="opacity:0.4"><path d="M132.15,158l-33.28,6.63a3,3,0,0,1-3.5-2.34h0a3,3,0,0,1,2.34-3.5L131,152.18a3,3,0,0,1,3.5,2.34h0A3,3,0,0,1,132.15,158Z" style="fill:#407bff"/><path d="M134.6,170.33,101.32,177a3,3,0,0,1-3.5-2.34h0a3,3,0,0,1,2.34-3.5l33.28-6.63a3,3,0,0,1,3.5,2.34h0A3,3,0,0,1,134.6,170.33Z" style="fill:#407bff"/><path d="M137.05,182.64l-33.28,6.63a3,3,0,0,1-3.5-2.34h0a3,3,0,0,1,2.34-3.5l33.28-6.63a3,3,0,0,1,3.5,2.34h0A3,3,0,0,1,137.05,182.64Z" style="fill:#407bff"/><path d="M139.51,194.95l-33.28,6.63a3,3,0,0,1-3.5-2.34h0a3,3,0,0,1,2.34-3.5l33.28-6.63a3,3,0,0,1,3.5,2.34h0A3,3,0,0,1,139.51,194.95Z" style="fill:#407bff"/><path d="M132.86,209.07l-24.18,4.82a3,3,0,0,1-3.5-2.34h0a3,3,0,0,1,2.34-3.5l24.18-4.82a3,3,0,0,1,3.5,2.34h0A3,3,0,0,1,132.86,209.07Z" style="fill:#407bff"/></g><rect x="166.66" y="129.14" width="55.09" height="75.9" transform="translate(-20.86 27.88) rotate(-7.79)" style="fill:#407bff"/><rect x="166.66" y="129.14" width="55.09" height="75.9" transform="translate(-20.86 27.88) rotate(-7.79)" style="fill:#fff;opacity:0.7000000000000001"/><g style="opacity:0.4"><path d="M208.06,143.2l-33.62,4.6a3,3,0,0,1-3.36-2.55h0a3,3,0,0,1,2.55-3.36l33.62-4.6a3,3,0,0,1,3.36,2.55h0A3,3,0,0,1,208.06,143.2Z" style="fill:#407bff"/><path d="M209.76,155.63l-33.62,4.6a3,3,0,0,1-3.36-2.55h0a3,3,0,0,1,2.55-3.36l33.62-4.6a3,3,0,0,1,3.36,2.55h0A3,3,0,0,1,209.76,155.63Z" style="fill:#407bff"/><path d="M187.1,171.4l-9.26,1.27a3,3,0,0,1-3.36-2.55h0a3,3,0,0,1,2.55-3.36l9.26-1.27a3,3,0,0,1,3.36,2.55h0A3,3,0,0,1,187.1,171.4Z" style="fill:#407bff"/><path d="M205.07,168.94l-9.26,1.27a3,3,0,0,1-3.36-2.55h0A3,3,0,0,1,195,164.3l9.26-1.27a3,3,0,0,1,3.36,2.55h0A3,3,0,0,1,205.07,168.94Z" style="fill:#407bff"/><path d="M213.16,180.5l-33.62,4.6a3,3,0,0,1-3.36-2.55h0a3,3,0,0,1,2.55-3.36l33.62-4.6a3,3,0,0,1,3.36,2.55h0A3,3,0,0,1,213.16,180.5Z" style="fill:#407bff"/><path d="M205.68,194.19l-24.43,3.34a3,3,0,0,1-3.36-2.55h0a3,3,0,0,1,2.55-3.36l24.43-3.34a3,3,0,0,1,3.36,2.55h0A3,3,0,0,1,205.68,194.19Z" style="fill:#407bff"/></g><rect x="113.15" y="138.99" width="55.09" height="75.9" transform="translate(-14.83 12.88) rotate(-4.98)" style="fill:#407bff"/><rect x="113.15" y="138.99" width="55.09" height="75.9" transform="translate(-14.83 12.88) rotate(-4.98)" style="fill:#fff;opacity:0.8"/><g style="opacity:0.4"><path d="M155.71,153.76,121.9,156.7a3,3,0,0,1-3.23-2.71h0a3,3,0,0,1,2.71-3.23l33.81-2.95a3,3,0,0,1,3.23,2.71h0A3,3,0,0,1,155.71,153.76Z" style="fill:#407bff"/><path d="M156.8,166.26,123,169.21a3,3,0,0,1-3.23-2.71h0a3,3,0,0,1,2.71-3.23l33.81-2.95a3,3,0,0,1,3.23,2.71h0A3,3,0,0,1,156.8,166.26Z" style="fill:#407bff"/><path d="M157.89,178.76l-33.81,2.95a3,3,0,0,1-3.23-2.71h0a3,3,0,0,1,2.71-3.23l33.81-2.95a3,3,0,0,1,3.23,2.71h0A3,3,0,0,1,157.89,178.76Z" style="fill:#407bff"/><path d="M159,191.26l-33.81,2.95a3,3,0,0,1-3.23-2.71h0a3,3,0,0,1,2.71-3.23l33.81-2.95a3,3,0,0,1,3.23,2.71h0A3,3,0,0,1,159,191.26Z" style="fill:#407bff"/><path d="M150.83,204.57l-24.57,2.14A3,3,0,0,1,123,204h0a3,3,0,0,1,2.71-3.23l24.57-2.14a3,3,0,0,1,3.23,2.71h0A3,3,0,0,1,150.83,204.57Z" style="fill:#407bff"/></g><rect x="178.5" y="134.34" width="55.09" height="75.9" transform="translate(-8.07 10.14) rotate(-2.76)" style="fill:#407bff"/><rect x="178.5" y="134.34" width="55.09" height="75.9" transform="translate(-8.07 10.14) rotate(-2.76)" style="fill:#fff;opacity:0.8"/><g style="opacity:0.4"><path d="M221.94,149.7,188,151.34a3,3,0,0,1-3.12-2.83h0a3,3,0,0,1,2.83-3.12l33.9-1.64a3,3,0,0,1,3.12,2.83h0A3,3,0,0,1,221.94,149.7Z" style="fill:#407bff"/><path d="M222.55,162.24l-33.9,1.64a3,3,0,0,1-3.12-2.83h0a3,3,0,0,1,2.83-3.12l33.9-1.64a3,3,0,0,1,3.12,2.83h0A3,3,0,0,1,222.55,162.24Z" style="fill:#407bff"/><path d="M198.6,176l-9.34.45a3,3,0,0,1-3.12-2.83h0a3,3,0,0,1,2.83-3.12l9.34-.45a3,3,0,0,1,3.12,2.83h0A3,3,0,0,1,198.6,176Z" style="fill:#407bff"/><path d="M216.71,175.08l-9.34.45a3,3,0,0,1-3.12-2.83h0a3,3,0,0,1,2.83-3.12l9.34-.45a3,3,0,0,1,3.12,2.83h0A3,3,0,0,1,216.71,175.08Z" style="fill:#407bff"/><path d="M223.76,187.31l-33.9,1.64a3,3,0,0,1-3.12-2.83h0a3,3,0,0,1,2.83-3.12l33.9-1.64a3,3,0,0,1,3.12,2.83h0A3,3,0,0,1,223.76,187.31Z" style="fill:#407bff"/><path d="M215.1,200.29l-24.63,1.19a3,3,0,0,1-3.12-2.83h0a3,3,0,0,1,2.83-3.12l24.63-1.19a3,3,0,0,1,3.12,2.83h0A3,3,0,0,1,215.1,200.29Z" style="fill:#407bff"/></g><path d="M149.85,192.84l-.88-3.29a9.63,9.63,0,0,0-10.71-7l-47.79,5.59A12,12,0,0,0,79.93,200l2.71,113.84a6.57,6.57,0,0,0,7.58,6.38l171-20a8.22,8.22,0,0,0,7.23-8.11l-2.34-98.41a6.57,6.57,0,0,0-7.58-6.38l-99.29,11.61A8.42,8.42,0,0,1,149.85,192.84Z" style="fill:#407bff"/><path d="M149.85,192.84l-.88-3.29a9.63,9.63,0,0,0-10.71-7l-47.79,5.59A12,12,0,0,0,79.93,200l2.71,113.84a6.57,6.57,0,0,0,7.58,6.38l171-20a8.22,8.22,0,0,0,7.23-8.11l-2.34-98.41a6.57,6.57,0,0,0-7.58-6.38l-99.29,11.61A8.42,8.42,0,0,1,149.85,192.84Z" style="opacity:0.30000000000000004"/><path d="M317,138.11c-.74,3.72-1.53,7.37-2.42,11s-1.76,7.3-2.73,10.93l-1.48,5.44-.19.69c-.09.3-.19.6-.3.91a9.25,9.25,0,0,1-1,1.93,6.91,6.91,0,0,1-1.87,1.9,6,6,0,0,1-2.73,1A7.83,7.83,0,0,1,300,171a15.15,15.15,0,0,1-2.78-1.92,24.84,24.84,0,0,1-4.07-4.59L296,162a34.21,34.21,0,0,0,4.3,2.85,10.25,10.25,0,0,0,2.06.89c.61.2,1.15.17,1.16.07s-.1,0-.15,0,0,0,0-.17.12-.35.18-.61l.23-1.1,1.17-5.46,2.35-10.92c.76-3.64,1.58-7.29,2.37-10.89Z" style="fill:#ffc3bd"/><path d="M313.68,126.68c-8.53,6.53-8.19,18.84-8.19,18.84l15.26,3.65s4.68-12.37,2.78-16.9C321.56,127.54,318.49,123,313.68,126.68Z" style="fill:#263238"/><path d="M296.76,162.15l-5.61-5.61-3,8.78s4.74,2.56,9.27.15Z" style="fill:#ffc3bd"/><polygon points="283.38 155.67 282.35 162.61 288.12 165.32 291.15 156.54 283.38 155.67" style="fill:#ffc3bd"/><polygon points="363.12 358.86 354.54 359.7 345.61 339.27 354.19 338.43 363.12 358.86" style="fill:#ffc3bd"/><polygon points="418.4 328.66 411.95 334.71 398.04 319.42 404.49 313.37 418.4 328.66" style="fill:#ffc3bd"/><path d="M409,331.81l4.84-8.73a.7.7,0,0,1,.87-.33l7.46,2.84a1.43,1.43,0,0,1,.69,2c-1.74,3-2.73,4.38-4.86,8.22-1.31,2.36-3.86,7.78-5.67,11s-5.13,1.64-4.67.13c2.07-6.81,1.68-10.61,1.1-13.61A2.32,2.32,0,0,1,409,331.81Z" style="fill:#3a3a3a"/><path d="M353.4,357h10.54a.87.87,0,0,1,.83.64l2.29,8.34a1.31,1.31,0,0,1-1.29,1.67c-3.71,0-5.47,0-10.11,0H341.51c-3.85,0-4.66-3.89-3.06-4.25,7.14-1.58,11.26-3.76,13.47-5.84A2.16,2.16,0,0,1,353.4,357Z" style="fill:#3a3a3a"/><polygon points="345.62 339.28 350.22 349.81 359.17 349.81 354.2 338.44 345.62 339.28" style="opacity:0.2"/><polygon points="404.49 313.38 398.04 319.43 405.22 327.31 411.67 321.25 404.49 313.38" style="opacity:0.2"/><path d="M316.26,125.42s-3.86,1.7,9.08,52.9l35.94-3.11c-1.87-14.58-2.67-23.6,1.73-54.22a106.47,106.47,0,0,0-15.44-.69,114.76,114.76,0,0,0-16.32,1.41A152,152,0,0,0,316.26,125.42Z" style="fill:#263238"/><path d="M347.58,120s2,0,4.45,0c1.45,2.23-3.26,12-11,18.39a19.65,19.65,0,0,0-6.25-9.06Z" style="fill:#fff"/><path d="M331.26,121.57s-.91.13-3.08.63c-1.45,2.23-3.9,11.76.37,16.62a19.18,19.18,0,0,1,6.19-9.41Z" style="fill:#fff"/><path d="M344.37,102.05c-.58,5.34-.77,15.05,3.21,18.24,0,0-4.25,4.34-12.84,9.12-6.25-4.32-3.48-7.71-3.48-7.71,5.74-1.91,5.21-6.24,3.84-10.23Z" style="fill:#ffc3bd"/><path d="M334.59,129.44s5.27-5.74,8-4.64.62,3.07.38,4.91,1.06,6.77-2.59,5.49S334.59,129.44,334.59,129.44Z" style="fill:#407bff"/><path d="M334.38,129.32s-2.49-4.4-5.18-3.82-1.09,2.13-.85,3.79c.31,2.13-1.94,6.2,1.31,5.05S334.38,129.32,334.38,129.32Z" style="fill:#407bff"/><g style="opacity:0.2"><path d="M333,128.37a5.6,5.6,0,0,0,.5,2.59,11.67,11.67,0,0,0,.86-1.63,12,12,0,0,0-1.27-1.77A2.25,2.25,0,0,0,333,128.37Z"/><path d="M336.51,127.58c-1.13,1-1.91,1.85-1.91,1.85a14.62,14.62,0,0,0,1,1.73,3.47,3.47,0,0,0,1-2.27A2.3,2.3,0,0,0,336.51,127.58Z"/></g><path d="M334.53,131.24c-.74,0-1.2-.81-1.26-2.75s1.43-.86,1.43-.86,2-1,1.64,1.32C336.08,130.78,335.3,131.24,334.53,131.24Z" style="fill:#407bff"/><path d="M340.59,105.9l-5.49,5.57a16.87,16.87,0,0,1,.75,2.85c2.21-.52,5.41-2.81,5.44-5.18A9.44,9.44,0,0,0,340.59,105.9Z" style="opacity:0.2"/><path d="M335.88,84s-6,8.31-7,12c-4.08,2.37-4.91-9.33-2.74-16.56C332.88,83.68,335.88,84,335.88,84Z" style="fill:#263238"/><path d="M349.07,93.71c-2.23,8.53-3,12.19-8.22,15.76-7.87,5.38-17.86.78-18.23-8.25-.33-8.12,3.37-20.71,12.5-22.48A12,12,0,0,1,349.07,93.71Z" style="fill:#ffc3bd"/><path d="M353.71,90.3s-4.29,6.94-4.86,10c-3.11,2.12-4.42-7.14-3.11-13C347.16,82.09,353.71,90.3,353.71,90.3Z" style="fill:#263238"/><path d="M352,85.47c-1.24.94-2.55-2.53-1.31-5.19-2.37.15-5.22-1.26-4.62-3.55-4.67,1.56-6.4-3.19-5.86-6.47.65-4,4.13-4.85,6.18-3.8,0-1.79,4.52-5.52,6.24-2.6,3.19-1.13,8.33-.78,8.23,3.14,2.11.07,8.33,2.45,6,8.05,2.75.16,4.23,3.66,2.71,6.29a4.26,4.26,0,0,1,.88,6.9c1.27,2.64-2.59,6.56-4.63,6.09-1.56,2.4-4,4.19-5.52,2.15-3,2.21-6.44-.59-5.67-2.76C351.21,93.16,347.74,87.49,352,85.47Z" style="fill:#263238"/><ellipse cx="352.61" cy="79.75" rx="5.21" ry="7.89" transform="translate(9.15 192.58) rotate(-30.93)" style="fill:#407bff"/><path d="M336.28,83c-.14,1.07-3.09.8-3.94-1.09-1.22,1.28-4.09,1.94-5.07.55-1.66,3.12-5,2.3-5.85.8s-1.43-4.26.29-4.8c-1-.87-.7-4.91,1.92-4.41,1.1-2.16,4.12-4.61,6.31-2.7,1.19-1,6-3.08,7.94.74a3.4,3.4,0,0,1,5.1,1.6c3.12-.81,4.46,1.55,4.45,2.82,2.21.6,2.36,4.42,1,5.24.52,1.93.25,4-1.79,3.83-.39,2.59-3.87,3-4.69,1.58C339.72,88.61,335.11,86.09,336.28,83Z" style="fill:#263238"/><path d="M331,75.62c2.53-3.5,11.76-5,19.75.29,7.2,4.73,6.73,15.71,1,15.13s-11.39-7.3-11.39-7.3Z" style="fill:#263238"/><path d="M349.77,101.41a6.45,6.45,0,0,1-3.79,3.14c-2.16.65-3.29-1.27-2.73-3.34.51-1.86,2.24-4.44,4.43-4.18A2.89,2.89,0,0,1,349.77,101.41Z" style="fill:#ffc3bd"/><path d="M325.34,178.31s-12.16,53.8-4,91.72c5.44,25.4,25,76.72,25,76.72l15.33-.39s-14.84-53.85-17.91-75c-5.25-36.23,7.9-95.29,7.9-95.29Z" style="fill:#407bff"/><path d="M339.36,189.18,347,201.27a370.05,370.05,0,0,0-4.39,43.31C331.86,225.27,337,199.39,339.36,189.18Z" style="opacity:0.2"/><polygon points="344.18 347.55 363.12 347.06 362.03 341.25 342.7 342.16 344.18 347.55" style="fill:#263238"/><path d="M333.2,177.74s7.13,57.05,22.6,88.2c12.49,25.16,45.82,61,45.82,61l8.52-8.78s-22.51-38.92-31.8-55.63c-22.76-41-4.16-72.25-17.06-87.29Z" style="fill:#407bff"/><polygon points="400.76 328.09 411.76 317.37 408.11 312.4 396.44 324.04 400.76 328.09" style="fill:#263238"/><path d="M361.64,173l1.9,3.08c.15.24-.13.52-.54.55l-37.7,3.26c-.32,0-.61-.11-.64-.31l-.6-3.19c0-.22.22-.43.58-.46l36.4-3.15A.65.65,0,0,1,361.64,173Z" style="fill:#407bff"/><path d="M361.64,173l1.9,3.08c.15.24-.13.52-.54.55l-37.7,3.26c-.32,0-.61-.11-.64-.31l-.6-3.19c0-.22.22-.43.58-.46l36.4-3.15A.65.65,0,0,1,361.64,173Z" style="fill:#fff;opacity:0.5"/><path d="M357.1,177.54l1-.08c.19,0,.33-.13.31-.25l-.82-4.14c0-.12-.2-.21-.4-.19l-1,.08c-.19,0-.33.13-.31.25l.82,4.14C356.73,177.47,356.91,177.56,357.1,177.54Z" style="fill:#407bff"/><path d="M328.07,180.05l1-.08c.19,0,.33-.13.31-.25l-.82-4.14c0-.12-.2-.21-.4-.19l-1,.08c-.19,0-.33.13-.31.25l.82,4.14C327.7,180,327.88,180.07,328.07,180.05Z" style="fill:#407bff"/><path d="M342.59,178.8l1-.08c.19,0,.33-.13.31-.25l-.82-4.14c0-.12-.2-.21-.4-.19l-1,.08c-.19,0-.33.13-.31.25l.82,4.14C342.22,178.73,342.39,178.81,342.59,178.8Z" style="fill:#407bff"/><ellipse cx="333.8" cy="93.25" rx="1.3" ry="0.85" transform="translate(177.9 402.79) rotate(-78.88)" style="fill:#263238"/><ellipse cx="325.85" cy="91.69" rx="1.3" ry="0.85" transform="translate(173.04 393.74) rotate(-78.88)" style="fill:#263238"/><path d="M326.3,90.5l-1.59-.82S325.31,91.17,326.3,90.5Z" style="fill:#263238"/><path d="M329.41,93.61a19.14,19.14,0,0,1-3.39,4,3.08,3.08,0,0,0,2.41,1Z" style="fill:#ed847e"/><path d="M331.69,101.91a5.83,5.83,0,0,0,4-1.52.17.17,0,1,0-.25-.24,5.73,5.73,0,0,1-5,1.29.17.17,0,0,0-.21.14.17.17,0,0,0,.14.21A6.81,6.81,0,0,0,331.69,101.91Z" style="fill:#263238"/><path d="M339.4,90.69a.35.35,0,0,0,.3-.53,4.1,4.1,0,0,0-3.17-2,.35.35,0,0,0,0,.7,3.4,3.4,0,0,1,2.6,1.71A.35.35,0,0,0,339.4,90.69Z" style="fill:#263238"/><path d="M324.48,87.87a.35.35,0,0,0,.17,0,3.43,3.43,0,0,1,3.1-.2.35.35,0,1,0,.33-.62,4.1,4.1,0,0,0-3.77.21.35.35,0,0,0,.17.66Z" style="fill:#263238"/><path d="M364.54,129.16c.68.66,1.15,1.17,1.68,1.77s1,1.17,1.48,1.76q1.43,1.78,2.71,3.66a60.52,60.52,0,0,1,4.47,7.91,51.63,51.63,0,0,1,3.12,8.57c.38,1.48.73,3,1,4.47a9.57,9.57,0,0,1-.68,6.32,8.26,8.26,0,0,1-2.24,2.66,10.91,10.91,0,0,1-2.61,1.5,18.75,18.75,0,0,1-5,1.18,41.75,41.75,0,0,1-9.13-.12,93.23,93.23,0,0,1-17.1-3.63l.91-3.63c2.72.45,5.52.87,8.29,1.16s5.54.55,8.27.61a42.83,42.83,0,0,0,7.9-.43,12.59,12.59,0,0,0,3.26-1,2.73,2.73,0,0,0,1.47-1.31,2,2,0,0,0,.12-.72,5,5,0,0,0,0-.54c0-.21-.06-.39-.16-.75-.28-1.29-.65-2.56-1-3.81a54.91,54.91,0,0,0-7.12-14.16c-.75-1.1-1.54-2.17-2.36-3.2-.41-.52-.83-1-1.26-1.51s-.89-1-1.22-1.36Z" style="fill:#ffc3bd"/><path d="M345.45,162.13l-7-3.71-.31,9.28s5,.31,7.86-2Z" style="fill:#ffc3bd"/><polygon points="333.17 212 338.95 149.19 326.6 139.73 288.9 136.26 282.35 207.32 333.17 212" style="fill:#407bff"/><polygon points="333.17 212 338.95 149.19 326.6 139.73 288.9 136.26 282.35 207.32 333.17 212" style="fill:#fff;opacity:0.8"/><polygon points="338.95 149.19 326.6 139.73 329.84 151.05 338.95 149.19" style="fill:#407bff"/><circle cx="286.77" cy="202.9" r="15.4" transform="translate(51.83 464.07) rotate(-83.31)" style="fill:#407bff"/><circle cx="286.77" cy="202.9" r="12.28" transform="translate(51.83 464.07) rotate(-83.31)" style="fill:#fff"/><polygon points="294.36 201.82 288.94 201.19 289.57 195.77 285.69 195.31 285.06 200.73 279.64 200.09 279.18 203.98 284.6 204.62 283.96 210.03 287.85 210.49 288.48 205.07 293.9 205.71 294.36 201.82" style="fill:#407bff"/><path d="M329.73,162.21h0a4.2,4.2,0,0,1-4.57,3.8l-27.5-2.53a4.2,4.2,0,0,1-3.8-4.57h0a4.2,4.2,0,0,1,4.57-3.8l27.5,2.53A4.2,4.2,0,0,1,329.73,162.21Z" style="fill:#407bff;opacity:0.4"/><path d="M320.36,173.56h0a4.2,4.2,0,0,1-4.57,3.8l-19.22-1.77a4.2,4.2,0,0,1-3.8-4.57h0a4.2,4.2,0,0,1,4.57-3.8L316.56,169A4.2,4.2,0,0,1,320.36,173.56Z" style="fill:#407bff;opacity:0.4"/><polygon points="334.17 158.97 335.22 165.9 338.12 167.69 338.44 158.42 334.17 158.97" style="fill:#ffc3bd"/><path d="M363,121c4.41.78,10.58,13.42,10.58,13.42l-11.11,10s-8.83-9.64-8.36-15.38C354.52,124.19,357.4,120,363,121Z" style="fill:#263238"/><path d="M407.28,336.5a1.08,1.08,0,0,0,.34-.06c1.05-.36,1.75-2.31,2.06-3.44a.17.17,0,0,0-.25-.2c-.32.17-3.14,1.67-3.23,2.79a.68.68,0,0,0,.3.62A1.28,1.28,0,0,0,407.28,336.5Zm1.95-3.18c-.49,1.56-1.12,2.59-1.72,2.8a.83.83,0,0,1-.79-.18.33.33,0,0,1-.16-.31C406.61,334.94,408.26,333.87,409.23,333.32Z" style="fill:#407bff"/><path d="M406.84,333.76a6.34,6.34,0,0,0,2.76-.65.17.17,0,0,0,0-.3c-.09-.05-2.32-1.28-3.52-.85a1.06,1.06,0,0,0-.66.62.7.7,0,0,0,.16.86A2,2,0,0,0,406.84,333.76Zm2.29-.8c-1,.41-2.8.66-3.33.22-.09-.07-.17-.19-.06-.47a.71.71,0,0,1,.45-.42C407,332,408.5,332.65,409.13,333Z" style="fill:#407bff"/><path d="M348.73,358.75a14.05,14.05,0,0,0,2.88-.37.17.17,0,0,0,0-.33c-.43-.2-4.26-2-5.22-1.32a.57.57,0,0,0-.25.54,1.28,1.28,0,0,0,.52,1A3.47,3.47,0,0,0,348.73,358.75Zm2.28-.6c-1.13.21-3.23.49-4.1-.16a.93.93,0,0,1-.38-.73.23.23,0,0,1,.1-.23C347.15,356.66,349.41,357.45,351,358.15Z" style="fill:#407bff"/><path d="M351.56,358.39a.18.18,0,0,0,.17-.21c0-.16-.9-3.93-3-3.69-.52.06-.66.32-.69.53-.13,1,2.28,2.9,3.43,3.37Zm-2.62-3.57c1.33,0,2.1,2.19,2.35,3.07-1.25-.65-3-2.22-2.89-2.84,0,0,0-.18.38-.23Z" style="fill:#407bff"/><path d="M334.24,92.06l-1.59-.82S333.26,92.73,334.24,92.06Z" style="fill:#263238"/></svg>