<svg xmlns="http://www.w3.org/2000/svg" viewBox="0 0 550 450"><title>empty_categories</title><path d="M468.69,59.78c26.59,53,18.18,119.87-15.06,169S365.1,309.62,307,321.2c-41.51,8.26-86.16,6.58-124.08-12.2s-67.75-56.57-70-98.83c-.86-16,2.53-32.91,13.18-44.83,17-19,46-19.7,71.56-18.92s54.53.19,71.62-18.77c13.13-14.57,15.07-35.69,22-54C303,42.41,331.34,18,364,11.15a95.09,95.09,0,0,1,13.74-1.86C413.59,7,447.63,25.51,466.45,56.14Z" style="fill:#a1d9ff;opacity:0.15"/><path d="M221.05,63.69a24.29,24.29,0,0,0-16.71,13A29.43,29.43,0,0,0,202.73,98a32.74,32.74,0,0,0,26,22.68c12,1.74,24.87-4.31,31-14.81s5-24.81-2.89-34.06-24.66-13-35.78-8.15" style="fill:#a1d9ff;opacity:0.15"/><g style="opacity:0.75"><path d="M502.39,435.3c0,.14-102.26.26-228.38.26s-228.41-.12-228.41-.26S147.85,435,274,435,502.39,435.16,502.39,435.3Z" style="fill:#4f6a72"/></g><path d="M465.52,384.79l-1.35,24.76a1.67,1.67,0,0,1-1.66,1.58l-44.55.33a1.67,1.67,0,0,1-1.68-1.66l-.14-19.27a1.67,1.67,0,0,1,1.67-1.68l27.4,0a1.67,1.67,0,0,0,1.18-.49l4.73-4.73a1.67,1.67,0,0,1,1.17-.49l11.55-.08A1.67,1.67,0,0,1,465.52,384.79Z" style="fill:#407bff"/><path d="M465.52,384.79l-1.35,24.76a1.67,1.67,0,0,1-1.66,1.58l-44.55.33a1.67,1.67,0,0,1-1.68-1.66l-.14-19.27a1.67,1.67,0,0,1,1.67-1.68l27.4,0a1.67,1.67,0,0,0,1.18-.49l4.73-4.73a1.67,1.67,0,0,1,1.17-.49l11.55-.08A1.67,1.67,0,0,1,465.52,384.79Z" style="opacity:0.30000000000000004"/><rect x="416.22" y="385.75" width="48.68" height="29.09" transform="translate(884.03 797.35) rotate(179.58)" style="fill:#f5f5f5"/><path d="M468.68,388.15l-3.49,30.36a1.07,1.07,0,0,1-1.06,1l-47.44.35a1.08,1.08,0,0,1-1.08-1L413,388.51a1.07,1.07,0,0,1,1.06-1.17l53.55-.39A1.07,1.07,0,0,1,468.68,388.15Z" style="fill:#407bff"/><path d="M478.63,380.12l-1.35,24.76a1.67,1.67,0,0,1-1.66,1.58l-44.55.33a1.67,1.67,0,0,1-1.68-1.66l-.14-19.27a1.67,1.67,0,0,1,1.67-1.68l27.4,0a1.67,1.67,0,0,0,1.18-.49l4.73-4.73a1.67,1.67,0,0,1,1.17-.49l11.55-.08A1.67,1.67,0,0,1,478.63,380.12Z" style="fill:#407bff"/><path d="M478.63,380.12l-1.35,24.76a1.67,1.67,0,0,1-1.66,1.58l-44.55.33a1.67,1.67,0,0,1-1.68-1.66l-.14-19.27a1.67,1.67,0,0,1,1.67-1.68l27.4,0a1.67,1.67,0,0,0,1.18-.49l4.73-4.73a1.67,1.67,0,0,1,1.17-.49l11.55-.08A1.67,1.67,0,0,1,478.63,380.12Z" style="opacity:0.30000000000000004"/><rect x="429.32" y="381.08" width="48.68" height="29.09" transform="translate(910.21 787.91) rotate(179.58)" style="fill:#f5f5f5"/><path d="M481.79,383.48l-3.49,30.36a1.07,1.07,0,0,1-1.06,1l-47.44.35a1.08,1.08,0,0,1-1.08-1l-2.61-30.32a1.07,1.07,0,0,1,1.06-1.17l53.55-.39A1.07,1.07,0,0,1,481.79,383.48Z" style="fill:#407bff"/><path d="M481.79,383.48l-3.49,30.36a1.07,1.07,0,0,1-1.06,1l-47.44.35a1.08,1.08,0,0,1-1.08-1l-2.61-30.32a1.07,1.07,0,0,1,1.06-1.17l53.55-.39A1.07,1.07,0,0,1,481.79,383.48Z" style="opacity:0.30000000000000004"/><path d="M493.4,385.92l-1.35,24.76a1.67,1.67,0,0,1-1.66,1.58l-44.55.33a1.67,1.67,0,0,1-1.68-1.66L444,391.65a1.67,1.67,0,0,1,1.67-1.68l27.4,0a1.67,1.67,0,0,0,1.18-.49l4.73-4.73a1.67,1.67,0,0,1,1.17-.49l11.55-.08A1.67,1.67,0,0,1,493.4,385.92Z" style="fill:#407bff"/><rect x="444.1" y="386.88" width="48.68" height="29.09" transform="translate(939.8 799.4) rotate(179.58)" style="fill:#f5f5f5"/><path d="M496.56,389.28l-3.49,30.36a1.07,1.07,0,0,1-1.06,1l-47.44.35a1.07,1.07,0,0,1-1.08-1l-2.61-30.32a1.08,1.08,0,0,1,1.06-1.17l53.55-.39A1.07,1.07,0,0,1,496.56,389.28Z" style="fill:#407bff"/><path d="M440.87,393.41v42.12h60.76V393.41ZM460.7,401a3.11,3.11,0,0,1,3.11-3.11h14.87a3.11,3.11,0,1,1,0,6.22H463.81A3.11,3.11,0,0,1,460.7,401Z" style="fill:#455a64"/><path d="M408.12,393.41v42.12h32.75V393.41Z" style="fill:#2e3c42"/><path d="M293.59,403.71,290.42,422s-19.65,2.92-20.56,6.24l35.22,7.42,6.11-28.28Z" style="fill:#407bff"/><g style="opacity:0.6000000000000001"><path d="M301.63,422.76a1.47,1.47,0,0,1,.65,1.85,1.41,1.41,0,0,1-1.83.66,1.55,1.55,0,0,1-.68-2,1.47,1.47,0,0,1,2-.47" style="fill:#fff"/></g><path d="M305.08,435.65l.5-2.87-34-6s-1.71.35-1.77,1.49Z" style="fill:#fff;opacity:0.6000000000000001"/><path d="M289.88,421.7c0,.17.81.43,1.54,1.16s1,1.55,1.2,1.51.13-1.08-.77-2S289.88,421.53,289.88,421.7Z" style="fill:#263238"/><path d="M285.87,422.45c-.07.16.61.61,1,1.46s.44,1.66.61,1.68.49-.92-.07-2S285.91,422.28,285.87,422.45Z" style="fill:#263238"/><path d="M282.84,426.42c.15.07.57-.74.33-1.77s-1-1.58-1.07-1.45.29.74.48,1.59S282.67,426.37,282.84,426.42Z" style="fill:#263238"/><path d="M291.07,417.61c0,.17.88.1,1.84.37s1.65.74,1.77.61-.48-.9-1.61-1.2S291,417.46,291.07,417.61Z" style="fill:#263238"/><polygon points="292.96 407.34 292.39 410.59 309.74 414.08 310.38 411.17 292.96 407.34" style="opacity:0.30000000000000004"/><path d="M291.78,413.93a3.38,3.38,0,0,0,1.77.36,8.1,8.1,0,0,0,2-.18,8.49,8.49,0,0,0,1.13-.32,2.21,2.21,0,0,0,.62-.3.77.77,0,0,0,.27-.9,1,1,0,0,0-.67-.55,2.36,2.36,0,0,0-.68,0,6.47,6.47,0,0,0-1.18.15,6.35,6.35,0,0,0-1.85.73c-1,.58-1.39,1.17-1.34,1.21s.58-.38,1.54-.83a7.19,7.19,0,0,1,1.76-.56,6.71,6.71,0,0,1,1.08-.1c.39,0,.71,0,.77.23s0,.1-.08.19a1.8,1.8,0,0,1-.46.22,9.46,9.46,0,0,1-1,.34,10,10,0,0,1-1.84.29A12.43,12.43,0,0,0,291.78,413.93Z" style="fill:#263238"/><path d="M291.95,414.23c.06,0,.53-.51.82-1.61a5.83,5.83,0,0,0-.06-3.15,1.49,1.49,0,0,0-.94-1.13.84.84,0,0,0-.84.34,2.44,2.44,0,0,0-.32.61,4,4,0,0,0-.25,1.19,4.14,4.14,0,0,0,.37,2c.5,1.06,1.17,1.41,1.2,1.36a14.74,14.74,0,0,1-.8-1.52,4.15,4.15,0,0,1-.21-1.78,3.72,3.72,0,0,1,.25-1c.13-.36.34-.64.47-.57s.41.38.5.71a6,6,0,0,1,.24,1,6.48,6.48,0,0,1,0,1.83C292.18,413.58,291.86,414.18,291.95,414.23Z" style="fill:#263238"/><path d="M413.26,404.12l-7.62-9.95-.4-.52-13,9.65,12,13.2-.44,13.36c-6.69,1.73-7.7,5.08-7.7,5.08l13.91,0,12.63-24.34Z" style="fill:#407bff"/><polygon points="422.7 410.59 410.06 434.93 396.15 434.94 397.72 432.85 409.03 432.22 420.69 409.21 422.7 410.59" style="fill:#fff;opacity:0.6000000000000001"/><path d="M403.93,423.75c.1.14.91-.31,2-.28s1.87.48,2,.34-.65-.94-2-.95S403.81,423.64,403.93,423.75Z" style="fill:#263238"/><path d="M404.16,420.43c.14.1.76-.72,1.87-.94s2,.29,2.09.15-.11-.3-.5-.51a2.6,2.6,0,0,0-3.18.64C404.15,420.12,404.09,420.39,404.16,420.43Z" style="fill:#263238"/><path d="M404.06,416.18c.15.08.63-.73,1.6-1.06s1.84,0,1.91-.18-.14-.26-.52-.41a2.41,2.41,0,0,0-2.83,1C404,415.89,404,416.15,404.06,416.18Z" style="fill:#263238"/><path d="M400.34,412.88c.17.06.56-.73,1.42-1.29s1.73-.64,1.74-.82-1-.4-2.08.31S400.17,412.86,400.34,412.88Z" style="fill:#263238"/><path d="M398.52,410c.07,0,.53-.51,1.21-1.46l1.18-1.67a4.43,4.43,0,0,0,.64-1.12,1.13,1.13,0,0,0-.09-.85.87.87,0,0,0-.84-.44,2.58,2.58,0,0,0-1.3.68,4.65,4.65,0,0,0-1.57,3,2.59,2.59,0,0,0,.32,1.9,15.5,15.5,0,0,1,.11-1.83,4.79,4.79,0,0,1,.77-1.76,4.45,4.45,0,0,1,.76-.82,2.22,2.22,0,0,1,1-.52.25.25,0,0,1,.26.13.54.54,0,0,1,0,.39,4.59,4.59,0,0,1-.54,1l-1.07,1.75A5.92,5.92,0,0,0,398.52,410Z" style="fill:#263238"/><path d="M398,410.44c.07,0,0-.74-.74-1.57a3.48,3.48,0,0,0-4.12-.74.64.64,0,0,0-.22.5.78.78,0,0,0,.17.44,2.15,2.15,0,0,0,.5.44,6.21,6.21,0,0,0,1,.56,6,6,0,0,0,1.83.51,2.81,2.81,0,0,0,1.72-.16c0-.1-.66,0-1.65-.27a6.85,6.85,0,0,1-1.66-.59A6.47,6.47,0,0,1,394,409a1.75,1.75,0,0,1-.36-.31c-.07-.12-.05-.09,0-.12a1.09,1.09,0,0,1,.4-.15,3.14,3.14,0,0,1,.52-.08,3.39,3.39,0,0,1,2.49.83C397.72,409.84,397.93,410.48,398,410.44Z" style="fill:#263238"/><circle cx="413.25" cy="410.17" r="1.65" style="fill:#fff;opacity:0.6000000000000001"/><polygon points="393.48 404.64 396.15 407.57 407.38 396.44 405.82 394.41 393.48 404.64" style="opacity:0.30000000000000004"/><path d="M325.54,225.53s-13,44.12-24.62,94c-7,30.24-13.65,86.51-13.65,86.51l30.86,6.8,13.23-72.34,14.12-42.83c4.85-13.52,11.82-23.4,20.28-30.72,9.19-13,14-27.86,12.14-43.7h0Z" style="fill:#263238"/><path d="M323,232.56l11.53,95c1.11,9.18,2.67,18,8.9,24.83l46.69,55.37L413.25,387l-49.49-67.66L372.36,224l-48.42,8.27" style="fill:#263238"/><path d="M364.23,318.63c.09.17-2,1.22-4,3.29s-2.89,4.21-3.07,4.13.54-2.41,2.6-4.57S364.19,318.47,364.23,318.63Z" style="fill:#455a64"/><path d="M363.53,319.34c0,.18-1.85.12-4.07.34s-4,.62-4.06.45,1.7-.86,4-1.08S363.55,319.17,363.53,319.34Z" style="fill:#455a64"/><path d="M376.52,244.84a6.84,6.84,0,0,1-.17,1.08l-.26,1.31c-.12.51-.31,1.09-.5,1.75a41,41,0,0,1-5.12,10.38c-2.69,4.1-6.45,8.57-10.43,13.63a83.7,83.7,0,0,0-5.8,8.25,100.64,100.64,0,0,0-5.06,9.58c-3.11,6.76-5.62,13.4-7.74,19.49s-3.9,11.63-5.4,16.28l-3.54,11-1,3a6.86,6.86,0,0,1-.39,1,6.87,6.87,0,0,1,.27-1.07l.89-3,3.34-11.07c1.44-4.67,3.17-10.22,5.27-16.34a209.76,209.76,0,0,1,7.72-19.57,99,99,0,0,1,5.1-9.64,82.56,82.56,0,0,1,5.87-8.29c4-5.06,7.8-9.48,10.52-13.52a42.92,42.92,0,0,0,5.26-10.2c.21-.65.42-1.22.55-1.72l.32-1.29A6.94,6.94,0,0,1,376.52,244.84Z" style="fill:#455a64"/><path d="M265,198.1l-8.12,4.22-14.07,6.91a4.15,4.15,0,0,0-2.24,1.87l-5.16,9.07h9.87l2.63-4.43a8.48,8.48,0,0,0,9.45-2.65l14.33-5Z" style="fill:#ffbe9d"/><path d="M359.21,86.64a6.4,6.4,0,0,1,12.06,1.44,17.75,17.75,0,0,0,.67,3.75,3.83,3.83,0,0,0,4.32,2.08A5.29,5.29,0,0,1,374,96.13a.92.92,0,0,1,1.38.54,1.48,1.48,0,0,1-.71,1.51,4.1,4.1,0,0,1-1.69.52c-2.85.42-6,.54-8.4-1-2.62-1.68-3.77-4.86-4.76-7.82" style="fill:#263238"/><path d="M331.91,78.38c-3,.26-5.5,2.47-7.24,4.93s-2.95,5.28-4.77,7.68c-1.36,1.79-3.09,3.41-3.76,5.55-1.07,3.42.82,7.36-.68,10.61-.84,1.83-2.63,3.09-3.51,4.9-1.1,2.27-.6,5,.07,7.4a8.53,8.53,0,0,0,2.45,4.55,8.4,8.4,0,0,0,3.8,1.44,50.87,50.87,0,0,0,30.31-3.76" style="fill:#263238"/><path d="M355.34,95.49A15.53,15.53,0,0,0,339,80.29c-8.31.41-14.7,7.58-14.74,15.89,0,7.29.09,14.63.5,17.24,1.25,7.87,6.31,10.27,8.32,10.92a10.34,10.34,0,0,0,2.15.21h0a.05.05,0,0,1,.05.06l-.43,9.31c.07,6,4.15,10.86,10.2,10.86s10.05-5.23,10.09-11.3Z" style="fill:#ffbe9d"/><path d="M327.22,100.27a1.27,1.27,0,0,0,1.22,1.28,1.21,1.21,0,0,0,1.31-1.14,1.27,1.27,0,0,0-1.22-1.28A1.21,1.21,0,0,0,327.22,100.27Z" style="fill:#263238"/><path d="M326.41,98.06c.16.17,1.12-.55,2.48-.54s2.36.69,2.51.52-.09-.37-.52-.69a3.48,3.48,0,0,0-2-.62,3.34,3.34,0,0,0-2,.64C326.47,97.69,326.33,98,326.41,98.06Z" style="fill:#263238"/><path d="M340.56,100.27a1.27,1.27,0,0,0,1.22,1.28,1.21,1.21,0,0,0,1.31-1.14,1.27,1.27,0,0,0-1.22-1.28A1.21,1.21,0,0,0,340.56,100.27Z" style="fill:#263238"/><path d="M339.81,98.32c.16.17,1.12-.55,2.48-.54s2.36.69,2.51.52-.09-.37-.52-.69a3.48,3.48,0,0,0-2-.62,3.34,3.34,0,0,0-2,.64C339.88,97.94,339.73,98.24,339.81,98.32Z" style="fill:#263238"/><path d="M334.86,108.43a9,9,0,0,0-2.22-.4c-.35,0-.68-.11-.74-.34a1.77,1.77,0,0,1,.23-1l1-2.65a45.55,45.55,0,0,0,2.31-6.94,45.69,45.69,0,0,0-2.87,6.73l-1,2.67a2,2,0,0,0-.18,1.37.87.87,0,0,0,.57.51,2.36,2.36,0,0,0,.59.08A8.87,8.87,0,0,0,334.86,108.43Z" style="fill:#263238"/><path d="M335.3,124.56s5.26.43,11.85-3.53c0,0-2.08,7-12,6Z" style="fill:#eb996e"/><path d="M335.44,111.71a2.46,2.46,0,0,1,2.2-.91,2.24,2.24,0,0,1,1.55.83,1.42,1.42,0,0,1,.11,1.63,1.65,1.65,0,0,1-1.79.45,5.16,5.16,0,0,1-1.74-1,1.51,1.51,0,0,1-.39-.4.46.46,0,0,1,0-.51" style="fill:#eb996e"/><path d="M338.87,109.37c-.22,0-.22,1.47-1.49,2.52s-2.84.89-2.85,1.09.35.29,1,.31a3.69,3.69,0,0,0,2.38-.83,3.21,3.21,0,0,0,1.16-2.11C339.14,109.73,339,109.36,338.87,109.37Z" style="fill:#263238"/><path d="M339.2,95.93c.13.37,1.5.2,3.1.39s2.89.63,3.11.3c.09-.16-.13-.51-.65-.87a5.42,5.42,0,0,0-4.72-.52C339.43,95.46,339.14,95.75,339.2,95.93Z" style="fill:#263238"/><path d="M326.91,95.27c.24.31,1.18,0,2.31,0s2.09.21,2.31-.12c.1-.16-.05-.47-.47-.76a3.34,3.34,0,0,0-3.72.12C326.93,94.8,326.8,95.12,326.91,95.27Z" style="fill:#263238"/><path d="M322.44,94.48c2,2.25,7,0,9.83-2.21a7.52,7.52,0,0,0,9.85-3.58c2.12,2,5.65.74,6.6-2s-.31-6.19-2.46-8.17a11.79,11.79,0,0,0-7.68-2.83A16.67,16.67,0,0,0,322.83,85c-1.34,2.85-1.86,6.51-.39,9.47" style="fill:#263238"/><path d="M345.77,78.38c5.7-2,12.22,3,13.42,7.15,2.08,7.12,1.23,8.17,3.06,11.46,1.19,2.14,4.51,4,6,6.18,1.63,2.32,2.24,6.56,1.75,9.36-.41,2.36-2.53,9.09-2.53,9.09s-8.77,1-13.4.5a7.47,7.47,0,0,1-3.37-1c-1-.64.4-3.56.08-4.67-.93-3.15-3.61-4.66-3.38-7.94.3-4.35,3.59-5.05,2.89-9.36-.37-2.29-4.27-5.08-4.91-7.3s-3.12-9.94.36-13.44" style="fill:#263238"/><path d="M360.36,91.94c-.15,0-.06-1.48-.34-3.23s-.82-3.11-.68-3.18a8,8,0,0,1,1,6.41Z" style="fill:#407bff"/><path d="M359.83,89.5s-.2.14-.61.24a6,6,0,0,1-1.78.16,7,7,0,0,1-2.58-.63,7.45,7.45,0,0,1-2.57-2A14.43,14.43,0,0,0,350.1,85a7.35,7.35,0,0,0-2.24-1.12,18.91,18.91,0,0,0-2.33-.4s.22-.1.64-.12a6.21,6.21,0,0,1,1.78.17,7.06,7.06,0,0,1,2.43,1.09,13.23,13.23,0,0,1,2.29,2.28,7.2,7.2,0,0,0,4.8,2.61A18.12,18.12,0,0,0,359.83,89.5Z" style="fill:#455a64"/><path d="M375.46,96.38s-.21.22-.72.36a3.3,3.3,0,0,1-2.17-.29,5.14,5.14,0,0,1-2.27-2.32c-.6-1.07-1-2.35-1.56-3.57a5.48,5.48,0,0,0-2.37-2.77,4.28,4.28,0,0,0-2.94-.24,5.23,5.23,0,0,0-2.36,1.52,1.57,1.57,0,0,1,.42-.68,4.17,4.17,0,0,1,1.84-1.19,4.53,4.53,0,0,1,3.25.16,5.8,5.8,0,0,1,2.63,3c.59,1.28,1,2.54,1.51,3.57a4.94,4.94,0,0,0,2,2.22,3.34,3.34,0,0,0,2,.42C375.18,96.48,375.43,96.34,375.46,96.38Z" style="fill:#455a64"/><path d="M359.85,88.6s-.25.11-.72.07a3.65,3.65,0,0,1-1.83-.77,7.39,7.39,0,0,1-1.88-2.25,17,17,0,0,0-1.9-2.89,7.2,7.2,0,0,0-5.57-2.19,13.19,13.19,0,0,0-2.55.51s.19-.18.61-.38a6.12,6.12,0,0,1,1.91-.5,7.24,7.24,0,0,1,6,2.21,15.5,15.5,0,0,1,1.93,3,7.6,7.6,0,0,0,1.7,2.2A4.27,4.27,0,0,0,359.85,88.6Z" style="fill:#455a64"/><path d="M362.36,122.63s.35-.55,1-1.55a19.1,19.1,0,0,0,2-4.5,13.88,13.88,0,0,0,.25-7.19,11.21,11.21,0,0,0-5-7c-1.35-.8-2.84-1.34-4.16-2.16a7.39,7.39,0,0,1-3-3.29,23,23,0,0,1-1.29-3.77,17.77,17.77,0,0,0-1.15-3.2,5.77,5.77,0,0,0-3.51-3.16,5,5,0,0,0-1.78-.11,1.24,1.24,0,0,1,.46-.13,3.42,3.42,0,0,1,1.37,0,5.88,5.88,0,0,1,3.78,3.18A17.49,17.49,0,0,1,352.59,93a23.38,23.38,0,0,0,1.3,3.68,6.94,6.94,0,0,0,2.81,3.07c1.26.77,2.75,1.31,4.16,2.14a11.58,11.58,0,0,1,5.17,7.37,14,14,0,0,1-.36,7.4,17.5,17.5,0,0,1-2.18,4.51,13.21,13.21,0,0,1-.81,1.09C362.49,122.52,362.38,122.64,362.36,122.63Z" style="fill:#455a64"/><path d="M319.14,125.05s-.1-.09-.26-.28a8,8,0,0,1-.64-.91A10.54,10.54,0,0,1,316.9,120a10.77,10.77,0,0,1,.8-6,26.14,26.14,0,0,1,1.8-3.08,7.58,7.58,0,0,0,1.29-3.41c.17-2.53-1-4.88-1.16-7.18a12.19,12.19,0,0,1,.77-6A9.78,9.78,0,0,1,322.7,91a7.61,7.61,0,0,1,.85-.71c.21-.15.32-.22.33-.2s-.39.36-1,1.05a10.35,10.35,0,0,0-2.1,3.36,12.14,12.14,0,0,0-.64,5.8,24.49,24.49,0,0,0,.72,3.43,11.89,11.89,0,0,1,.49,3.84,8,8,0,0,1-1.37,3.63,27,27,0,0,0-1.8,3,10.64,10.64,0,0,0-.88,5.74,11.26,11.26,0,0,0,1.15,3.8C318.86,124.6,319.18,125,319.14,125.05Z" style="fill:#455a64"/><path d="M337.46,76.73a26.13,26.13,0,0,0-3.75.76,13.93,13.93,0,0,0-7.22,5.36,17.3,17.3,0,0,0-2.58,8.71,22.47,22.47,0,0,0,.36,3.81,3.43,3.43,0,0,1-.36-1,12.16,12.16,0,0,1-.37-2.83,16.62,16.62,0,0,1,2.51-9,13.64,13.64,0,0,1,7.55-5.43,11.9,11.9,0,0,1,2.82-.46A3.33,3.33,0,0,1,337.46,76.73Z" style="fill:#455a64"/><path d="M330.72,89.55a2.57,2.57,0,0,1-.25-.87,9,9,0,0,1-.1-2.47A10.12,10.12,0,0,1,341.86,77a9,9,0,0,1,2.39.63A2.57,2.57,0,0,1,345,78a18.85,18.85,0,0,0-3.23-.7,10.11,10.11,0,0,0-11.09,8.92A18.86,18.86,0,0,0,330.72,89.55Z" style="fill:#455a64"/><path d="M376.26,231.69,365.45,189.9l3.74-16.35,5.39-30.69s-5-6.77-17.78-7.42l-.86-6.21L334,130l-.41,5.87a24,24,0,0,0-15.36,12v0l-15.59,29.32L260,198.53l5.64,13.21s42.8-16.22,46.42-17.81c2.4-1.05,5-5.49,7.29-10.25,1.71,8.18,3.48,14.66,3.48,14.66l-.36,32.05Z" style="fill:#407bff"/><path d="M357.14,146.86a13.9,13.9,0,0,1-1.55.46c-1,.29-2.42.75-4.18,1.35s-3.85,1.33-6.25,1.91a14.09,14.09,0,0,1-3.89.43,10.22,10.22,0,0,1-4-1.36c-1.26-.67-2.42-1.43-3.6-2a17,17,0,0,0-3.54-1.33,17.69,17.69,0,0,0-6.39-.4,22.6,22.6,0,0,0-5.72,1.63s.11-.09.35-.23a9.59,9.59,0,0,1,1.07-.54,16.54,16.54,0,0,1,4.25-1.23,17.44,17.44,0,0,1,6.55.3,17.07,17.07,0,0,1,3.66,1.34c1.21.61,2.38,1.36,3.61,2a9.88,9.88,0,0,0,3.78,1.31,13.92,13.92,0,0,0,3.74-.39c2.38-.54,4.47-1.25,6.25-1.79s3.22-1,4.24-1.19c.51-.12.91-.19,1.18-.23A1.28,1.28,0,0,1,357.14,146.86Z" style="fill:#fafafa"/><path d="M363.75,168.07c0,.06-.84-.16-2.38-.24a20.14,20.14,0,0,0-6.4.87,58.9,58.9,0,0,0-8.92,3.67,40.14,40.14,0,0,1-11.24,3.9,18.65,18.65,0,0,1-3.16.17,14.75,14.75,0,0,1-3-.46,18.8,18.8,0,0,1-5.25-2.41c-3.09-2-5.7-4-8.32-4.83a9.71,9.71,0,0,0-6.31-.29,10.13,10.13,0,0,0-2.1,1.09,2.77,2.77,0,0,1,.46-.42,6.38,6.38,0,0,1,1.57-.86,9.69,9.69,0,0,1,6.5.13c2.71.82,5.39,2.86,8.46,4.77a18.55,18.55,0,0,0,5.13,2.32,14.35,14.35,0,0,0,2.94.43,18.33,18.33,0,0,0,3.06-.17,40.67,40.67,0,0,0,11.11-3.82,56,56,0,0,1,9-3.59,19.16,19.16,0,0,1,6.51-.72,12.39,12.39,0,0,1,1.76.27A2.77,2.77,0,0,1,363.75,168.07Z" style="fill:#fafafa"/><path d="M323.73,153.45a1.42,1.42,0,0,1-.1.43c-.08.28-.2.68-.38,1.2-.35,1-.91,2.52-1.63,4.33s-1.6,4-2.39,6.4a33.7,33.7,0,0,0-1,3.89,16.6,16.6,0,0,0-.33,4.26,55.24,55.24,0,0,0,1.21,8.25c.53,2.52,1.07,4.78,1.53,6.67s.83,3.43,1.06,4.5c.12.53.2.95.25,1.23a1.42,1.42,0,0,1,.05.44,11.27,11.27,0,0,1-.5-1.62L320.27,189c-.5-1.89-1.09-4.14-1.64-6.66a52.21,52.21,0,0,1-1.26-8.33,16.83,16.83,0,0,1,.35-4.38,32.74,32.74,0,0,1,1.06-3.93c.82-2.46,1.75-4.6,2.5-6.4s1.38-3.25,1.78-4.26A11.87,11.87,0,0,1,323.73,153.45Z" style="fill:#263238"/><path d="M299.31,198.92a1.44,1.44,0,0,1-.77-.08,5.52,5.52,0,0,1-1.84-1,9.86,9.86,0,0,1-2.09-2.32,11.16,11.16,0,0,1-1.35-3.57,23.77,23.77,0,0,0-1-3.57,7,7,0,0,0-1.67-2.43,5.21,5.21,0,0,0-2.44-1.21,1.51,1.51,0,0,1,.77,0,4.2,4.2,0,0,1,1.9.93,7,7,0,0,1,1.87,2.52,21.15,21.15,0,0,1,1.1,3.63,11.44,11.44,0,0,0,1.25,3.44,10.46,10.46,0,0,0,1.92,2.29,6.38,6.38,0,0,0,1.67,1.12C299.05,198.83,299.32,198.87,299.31,198.92Z" style="fill:#fafafa"/><path d="M274.88,208.24c-.09,0,0-.89-.22-2.28a21.68,21.68,0,0,0-4.16-10c-.86-1.12-1.52-1.7-1.46-1.77a6,6,0,0,1,1.74,1.53A18.28,18.28,0,0,1,275,205.92,6,6,0,0,1,274.88,208.24Z" style="fill:#fafafa"/><path d="M365.59,189.52c0,.05-.63,0-1.77.14a26.11,26.11,0,0,0-4.72.89c-2,.53-4.24,1.36-6.78,2.28a45,45,0,0,1-8.5,2.37A33.82,33.82,0,0,1,328,193.84a31.87,31.87,0,0,1-4.47-1.91c-.51-.27-.89-.5-1.14-.66A1.54,1.54,0,0,1,322,191a13.1,13.1,0,0,1,1.61.74,39,39,0,0,0,4.49,1.74,35,35,0,0,0,15.67,1.2,46.86,46.86,0,0,0,8.42-2.31c2.55-.89,4.85-1.7,6.85-2.19a22.82,22.82,0,0,1,4.8-.73,11.17,11.17,0,0,1,1.32,0A1.54,1.54,0,0,1,365.59,189.52Z" style="fill:#fafafa"/><g style="opacity:0.30000000000000004"><path d="M335.14,135.89a19.56,19.56,0,0,0,18.93.08q-9.52.48-19.06.08"/></g><path d="M356.66,135.31a3.13,3.13,0,0,1-.87.31,18.43,18.43,0,0,1-2.45.51,43.41,43.41,0,0,1-8.25.28c-3.21-.15-6.11-.33-8.21-.34s-3.4.06-3.4,0a3.13,3.13,0,0,1,.9-.17c.59-.08,1.44-.14,2.5-.18,2.11-.08,5,0,8.23.19a55.29,55.29,0,0,0,8.18-.13C355.38,135.54,356.64,135.22,356.66,135.31Z" style="fill:#263238"/><path d="M343.2,181.4c.58,1.16,35.18,28.76,45.09,36.65a3.34,3.34,0,0,1,.52,4.71l-23.07,28.65a3.35,3.35,0,0,1-4.69.52l-44.21-35a3.35,3.35,0,0,1-.44-4.83Z" style="fill:#263238"/><path d="M342.67,176.51c.6,1.21,37.65,30.73,46,37.41a2.13,2.13,0,0,1,.33,3l-24.59,30.54a2.14,2.14,0,0,1-3,.33l-46.14-36.58a2.14,2.14,0,0,1-.28-3.08Z" style="fill:#407bff"/><path d="M342.67,176.51c.61,1.22,38.36,31.29,46.28,37.59a1.84,1.84,0,0,1,.28,2.6l-25,31a1.85,1.85,0,0,1-2.58.29L315.09,211a1.85,1.85,0,0,1-.24-2.66Z" style="opacity:0.25"/><path d="M346.49,177c11.73,9.77,43.44,35,43.44,35l-24.58,30.53a4.31,4.31,0,0,1-6,.67l-42.66-33.82a4.31,4.31,0,0,1-.57-6.22l22.27-25.49A5.85,5.85,0,0,1,346.49,177Z" style="fill:#455a64"/><polygon points="375.86 200.8 376.48 205.12 387.72 214.77 389.93 212.02 375.86 200.8" style="fill:#fafafa"/><path d="M343,243.44h0l10.6-8.85-5.15-12.26-7.15,6.48a28.89,28.89,0,0,1-5.11.89,7.81,7.81,0,0,1-2.64-.2,12,12,0,0,1-3.11-1.12,1,1,0,0,0-1.62,1.07c.32.87,2.62,2.48,5.86,3,2.91.45-.38,2.6-2.25,3.74a.77.77,0,0,0-.3,1C333.1,239.4,336.92,246.61,343,243.44Z" style="fill:#ffbe9d"/><path d="M359.82,156.64c-.8-11,9.42-22.17,15.38-12.91,6.53,10.14,20.87,34,24.4,50.21,1.65,7.55-43.61,43.55-46.41,45.77-.08.06-.8-.93-.86-1l-11.19-11.6c-.05-.07,2.63-2.81,2.7-2.88L375.71,193a.18.18,0,0,0,0-.21c-1.07-1.94-15.14-27.62-15.89-35.88Q359.84,156.79,359.82,156.64Z" style="fill:#407bff"/><path d="M385,192.79c-.07.21-2.18-.47-4.87-.53s-4.83.45-4.89.24,2.09-1.06,4.91-1S385,192.62,385,192.79Z" style="fill:#263238"/><path d="M383,196.31c-.16.14-1.46-1.29-3.53-2.34s-4-1.31-3.95-1.53,2.07-.28,4.28.88S383.15,196.22,383,196.31Z" style="fill:#263238"/><path d="M375.71,193a3.33,3.33,0,0,1-.35-.58l-.91-1.72-3.24-6.37-10.52-21.11a30.15,30.15,0,0,1-3.75-12.43c-.28-4,.88-7.79,3-10a8.3,8.3,0,0,1,3.46-2.22,7.46,7.46,0,0,1,3.08-.37,6,6,0,0,1,1.9.49,4.47,4.47,0,0,1,.45.24c.1.06.15.09.14.1a8,8,0,0,0-2.51-.62,7.45,7.45,0,0,0-3,.45,8.09,8.09,0,0,0-3.28,2.2c-2,2.19-3.12,5.83-2.82,9.76A30.1,30.1,0,0,0,361.15,163l10.39,21.18,3.1,6.45.82,1.76A3.33,3.33,0,0,1,375.71,193Z" style="fill:#263238"/><g style="opacity:0.30000000000000004"><path d="M357.48,150.46c-1.15,9.75-2,19.61-1.09,29.39.48,5.14,5.93,11.6,10.21,14.48l-1.15-4.43c.63-2.87,2.73-11.94,2.73-11.94s-3.91-7.74-5.47-10.57a39.6,39.6,0,0,1-5.24-16.93"/></g><path d="M396.41,184.23s-.22.25-.69.64a8.88,8.88,0,0,1-.89.66,14.28,14.28,0,0,1-1.23.79,24.86,24.86,0,0,1-3.42,1.67,30.64,30.64,0,0,1-4.46,1.35,29.73,29.73,0,0,1-4.63.58,22.65,22.65,0,0,1-3.8-.19,12.55,12.55,0,0,1-1.44-.25,7.88,7.88,0,0,1-1.07-.28,3.25,3.25,0,0,1-.88-.33c0-.09,1.3.3,3.43.5a26.1,26.1,0,0,0,3.74.07,33.14,33.14,0,0,0,4.54-.61,34.33,34.33,0,0,0,4.4-1.29,29.17,29.17,0,0,0,3.41-1.55C395.3,185,396.35,184.16,396.41,184.23Z" style="fill:#fafafa"/><path d="M377.83,217.74a18.82,18.82,0,0,1-1-2.82,45,45,0,0,0-2.62-6.66,21.5,21.5,0,0,0-2.07-3.33,12.7,12.7,0,0,0-2.23-2.26c-1.44-1.11-2.52-1.54-2.48-1.63a2.25,2.25,0,0,1,.77.25,10.72,10.72,0,0,1,1.93,1.08,11.79,11.79,0,0,1,2.39,2.26,19.73,19.73,0,0,1,2.15,3.39,35,35,0,0,1,2.51,6.79A15.59,15.59,0,0,1,377.83,217.74Z" style="fill:#fafafa"/><path d="M366,228.79a9.93,9.93,0,0,1-2.62-1,25,25,0,0,1-10.05-8.8,9.93,9.93,0,0,1-1.31-2.47c.08,0,.61.88,1.61,2.26a29.48,29.48,0,0,0,9.92,8.68C365,228.3,366,228.71,366,228.79Z" style="fill:#fafafa"/><path d="M377.22,147a2.26,2.26,0,0,1-.78.34,12.69,12.69,0,0,1-2.25.48c-1.93.29-4.63.12-7.53.28a14.74,14.74,0,0,0-4,.75,8.15,8.15,0,0,0-4.72,4.05,2,2,0,0,1,.25-.81,6.22,6.22,0,0,1,1.37-1.87,8.89,8.89,0,0,1,2.93-1.81,14.2,14.2,0,0,1,4.12-.82c3-.16,5.62.07,7.53-.12S377.2,146.9,377.22,147Z" style="fill:#fafafa"/><path d="M387.55,165.61a1.72,1.72,0,0,1-.44.81,5.07,5.07,0,0,1-2,1.47,11.81,11.81,0,0,1-3.62.74,37.42,37.42,0,0,0-4.4.57,35.68,35.68,0,0,0-7.67,2.42c-1.89.84-3,1.49-3,1.41a3.07,3.07,0,0,1,.73-.54,24.17,24.17,0,0,1,2.16-1.21,30.44,30.44,0,0,1,7.73-2.6c3.14-.68,6.1-.38,8-1.14A5.67,5.67,0,0,0,387.55,165.61Z" style="fill:#fafafa"/><path d="M140.41,66.19a15.19,15.19,0,0,1,10.54,5.51,26.81,26.81,0,0,1,5.3,10.91c2,7.64.64,16.62-1.6,24.18-8.22-3-13.24-11.86-15.5-16.51-3.57-7.34-5.57-22.78,1.26-24.1" style="fill:#407bff"/><path d="M166.44,116.13a13,13,0,0,1-.5-13,17.21,17.21,0,0,1,10.44-8.24c2-.6,4.36-.84,6.1.34a5.54,5.54,0,0,1,2.09,5.21,11.24,11.24,0,0,1-2.42,5.31c-4.06,5.4-9,9.87-15.71,10.37" style="fill:#407bff"/><g style="opacity:0.30000000000000004"><path d="M166.44,116.13a13,13,0,0,1-.5-13,17.21,17.21,0,0,1,10.44-8.24c2-.6,4.36-.84,6.1.34a5.54,5.54,0,0,1,2.09,5.21,11.24,11.24,0,0,1-2.42,5.31c-4.06,5.4-9,9.87-15.71,10.37" style="fill:#fff"/></g><path d="M157.66,124.22a30.32,30.32,0,0,0-23.83-14.12c-2.44-.13-5.37.35-6.41,2.56s.47,4.78,2.17,6.55a25.9,25.9,0,0,0,28.17,5.68" style="fill:#407bff"/><g style="opacity:0.30000000000000004"><path d="M157.66,124.22a30.32,30.32,0,0,0-23.83-14.12c-2.44-.13-5.37.35-6.41,2.56s.47,4.78,2.17,6.55a25.9,25.9,0,0,0,28.17,5.68" style="fill:#fff"/></g><path d="M166.51,142.33a9.92,9.92,0,0,1-.34-1.62c-.18-1-.43-2.56-.68-4.45a57.2,57.2,0,0,1-.33-14.85,28.13,28.13,0,0,1,5.51-13.72,19,19,0,0,1,3.19-3.2,11.42,11.42,0,0,1,1-.71c.23-.15.36-.23.37-.21a28.15,28.15,0,0,0-4.27,4.35,28.94,28.94,0,0,0-5.28,13.57,62.4,62.4,0,0,0,.18,14.74l.52,4.46A10.13,10.13,0,0,1,166.51,142.33Z" style="fill:#263238"/><path d="M143,77.81a3.61,3.61,0,0,1,.32.63l.83,1.85c.71,1.61,1.71,3.94,2.93,6.84,2.43,5.79,5.68,13.85,9.07,22.81s6.28,17.16,8.29,23.12c1,3,1.8,5.39,2.33,7.07l.6,1.93a3.59,3.59,0,0,1,.17.69,3.61,3.61,0,0,1-.27-.65l-.69-1.9-2.48-7c-2.1-5.92-5-14.08-8.43-23.05s-6.58-17-8.93-22.86l-2.78-6.9-.74-1.88A3.6,3.6,0,0,1,143,77.81Z" style="fill:#263238"/><path d="M137.74,116.41a9.13,9.13,0,0,1,1.58.09,13.45,13.45,0,0,1,1.84.26,22.14,22.14,0,0,1,2.4.53l1.38.38c.48.14,1,.34,1.47.51a32.68,32.68,0,0,1,3.16,1.33,34.45,34.45,0,0,1,12.1,9.84,32.68,32.68,0,0,1,2,2.82c.28.46.57.89.8,1.33l.66,1.27a22.12,22.12,0,0,1,1,2.25,13.42,13.42,0,0,1,.63,1.75,9.11,9.11,0,0,1,.41,1.53c-.12,0-.7-2.15-2.38-5.35l-.68-1.24c-.24-.43-.54-.85-.82-1.3-.55-.91-1.25-1.8-2-2.75a35.58,35.58,0,0,0-11.94-9.7c-1.08-.5-2.09-1-3.1-1.36-.5-.18-1-.39-1.44-.54l-1.36-.41C140,116.65,137.72,116.53,137.74,116.41Z" style="fill:#263238"/><path d="M150.85,134.94h29.63a0,0,0,0,1,0,0v17.34a12.29,12.29,0,0,1-12.29,12.29h-5.05a12.29,12.29,0,0,1-12.29-12.29V134.94A0,0,0,0,1,150.85,134.94Z" style="fill:#407bff"/><path d="M150.85,134.94h29.63a0,0,0,0,1,0,0v17.34a12.29,12.29,0,0,1-12.29,12.29h-5.05a12.29,12.29,0,0,1-12.29-12.29V134.94A0,0,0,0,1,150.85,134.94Z" style="opacity:0.30000000000000004"/><path d="M170.87,135a3,3,0,0,1-.34.88,15.12,15.12,0,0,1-1.31,2.2,17.72,17.72,0,0,1-14.57,7.44,15.11,15.11,0,0,1-2.55-.22,3,3,0,0,1-.91-.24c0-.09,1.33.16,3.46.09a18.66,18.66,0,0,0,14.28-7.29C170.22,136.2,170.78,135,170.87,135Z" style="fill:#fafafa"/><path d="M180.2,155a3,3,0,0,1-1-.2,11.18,11.18,0,0,1-2.44-1.1,12.58,12.58,0,0,1-5.35-15.47,11.18,11.18,0,0,1,1.24-2.37,3,3,0,0,1,.63-.75,25.41,25.41,0,0,0-1.52,3.25,12.72,12.72,0,0,0,5.2,15A25.44,25.44,0,0,0,180.2,155Z" style="fill:#fafafa"/><path d="M172.61,163.76a17.61,17.61,0,0,0-.62-4.38,13.48,13.48,0,0,0-2.21-4.21,15.27,15.27,0,0,0-4.38-3.81,16.76,16.76,0,0,0-10.28-2,34.06,34.06,0,0,0-4.34,1,4.59,4.59,0,0,1,1.1-.5,16,16,0,0,1,3.19-.81,16.42,16.42,0,0,1,10.59,1.89,15.22,15.22,0,0,1,4.5,4,13.21,13.21,0,0,1,2.18,4.4,11.11,11.11,0,0,1,.41,3.28A4.28,4.28,0,0,1,172.61,163.76Z" style="fill:#fafafa"/><rect x="83.56" y="164.57" width="93.27" height="270.73" style="fill:#2b3a3f"/><rect x="124.78" y="164.57" width="102.12" height="270.73" style="fill:#455a64"/><rect x="131.33" y="241.41" width="91.01" height="55.89" style="fill:#455a64"/><path d="M162,373.39h31.17a0,0,0,0,1,0,0v1.41A2.15,2.15,0,0,1,191,377H164.16a2.15,2.15,0,0,1-2.15-2.15v-1.41A0,0,0,0,1,162,373.39Z" style="fill:#263238"/><path d="M222.14,373.39s0,.32,0,1l0,2.9c0,2.58,0,6.34.05,11.17,0,9.73.06,23.72.11,40.84v.2h-.2l-91,.06h-.31v-.26c0-19.78,0-38.64,0-55.81v-.24h.24l65.66.06,18.74,0,5,0h1.24l-1.3,0-5,0-18.8.08-65.5.18.24-.24c0,17.17,0,36,0,55.81l-.26-.26h0l91,.06-.2.2c0-17.08.08-31,.11-40.72,0-4.85,0-8.63.05-11.22l0-2.94C222.12,373.74,222.14,373.39,222.14,373.39Z" style="fill:#263238"/><rect x="164.86" y="387.04" width="27.1" height="7.32" style="fill:#e0e0e0"/><rect x="131.33" y="303.62" width="91.01" height="55.89" style="fill:#455a64"/><path d="M161.88,310.87h31.17a0,0,0,0,1,0,0v1.41a2.15,2.15,0,0,1-2.15,2.15H164a2.15,2.15,0,0,1-2.15-2.15v-1.41A0,0,0,0,1,161.88,310.87Z" style="fill:#263238"/><path d="M223,310.87s0,.32,0,1l0,2.9.05,11.17c0,9.73.06,23.72.11,40.84v.2H223L132,367h-.31v-.26c0-19.78,0-38.64,0-55.81v-.24h.24l65.66.06,18.74,0,5,0h1.24l-1.3,0-5,0-18.8.08-65.5.18.24-.24c0,17.17,0,36,0,55.81l-.26-.26h0l91,.06-.2.2c0-17.08.08-31,.11-40.72l.05-11.22,0-2.94C223,311.23,223,310.87,223,310.87Z" style="fill:#263238"/><rect x="163.92" y="324.09" width="27.1" height="7.32" style="fill:#e0e0e0"/><path d="M162.21,172h31.17a0,0,0,0,1,0,0v1.41a2.15,2.15,0,0,1-2.15,2.15H164.36a2.15,2.15,0,0,1-2.15-2.15V172A0,0,0,0,1,162.21,172Z" style="fill:#263238"/><path d="M222.34,172s0,.32,0,1l0,2.9.05,11.17c0,9.73.06,23.72.11,40.84v.2h-.2l-91,.06H131v-.26c0-19.78,0-38.64,0-55.81v-.24h.24l65.66.06,18.74,0,5,0h1.24l-1.3,0-5,0-18.8.08-65.5.18.24-.24c0,17.17,0,36,0,55.81l-.26-.26h0l91,.06-.2.2c0-17.08.08-31,.11-40.72l.05-11.22,0-2.94C222.33,172.31,222.34,172,222.34,172Z" style="fill:#263238"/><rect x="163.76" y="183.86" width="27.1" height="7.32" style="fill:#e0e0e0"/><path d="M131.62,259.53v-21a3.28,3.28,0,0,1,3.28-3.28h55.94a3.23,3.23,0,0,1,3.23,3.23v21.06Z" style="fill:#407bff"/><path d="M131.62,259.53v-21a3.28,3.28,0,0,1,3.28-3.28h55.94a3.23,3.23,0,0,1,3.23,3.23v21.06Z" style="opacity:0.30000000000000004"/><path d="M137.34,259.53V241.07a.33.33,0,0,1,.32-.34h56.41v18.8Z" style="fill:#fafafa"/><path d="M206.78,237.19l-1.61,22.34H144.46l1.63-20.74a3.5,3.5,0,0,1,3.19-3.5l29.53.16h0a2.28,2.28,0,0,1,2-2.47h22.77C205.47,233,206.94,234.93,206.78,237.19Z" style="fill:#407bff"/><path d="M156.48,257.36v-21a3.28,3.28,0,0,1,3.28-3.28h55.94a3.23,3.23,0,0,1,3.23,3.23v21.05Z" style="fill:#407bff"/><path d="M156.48,257.36v-21a3.28,3.28,0,0,1,3.28-3.28h55.94a3.23,3.23,0,0,1,3.23,3.23v21.05Z" style="opacity:0.30000000000000004"/><path d="M162.21,257.36V238.89a.33.33,0,0,1,.32-.34h56.41v18.8Z" style="fill:#fafafa"/><path d="M231.65,235,230,257.36H169.32L171,236.62a3.5,3.5,0,0,1,3.19-3.5l29.53.16h0a2.28,2.28,0,0,1,2-2.47h22.77C230.34,230.8,231.81,232.75,231.65,235Z" style="fill:#407bff"/><path d="M191.08,258.57v-21a3.28,3.28,0,0,1,3.28-3.28H250.3a3.23,3.23,0,0,1,3.23,3.23v21.06Z" style="fill:#407bff"/><path d="M191.08,258.57v-21a3.28,3.28,0,0,1,3.28-3.28H250.3a3.23,3.23,0,0,1,3.23,3.23v21.06Z" style="opacity:0.30000000000000004"/><path d="M196.81,258.57V240.11a.33.33,0,0,1,.32-.34h56.41v18.8Z" style="fill:#fafafa"/><rect x="199.65" y="234.96" width="57.22" height="33.54" style="fill:#e0e0e0"/><rect x="203.92" y="220.07" width="57.66" height="35.76" style="fill:#f5f5f5"/><ellipse cx="214.43" cy="239.77" rx="0.26" ry="13.8" style="fill:#263238"/><ellipse cx="218.52" cy="239.77" rx="0.26" ry="13.8" style="fill:#263238"/><ellipse cx="222.99" cy="239.77" rx="0.26" ry="13.8" style="fill:#263238"/><ellipse cx="227.45" cy="239.77" rx="0.26" ry="13.8" style="fill:#263238"/><ellipse cx="231.91" cy="239.77" rx="0.26" ry="13.8" style="fill:#263238"/><ellipse cx="236.38" cy="239.77" rx="0.26" ry="13.8" style="fill:#263238"/><ellipse cx="240.84" cy="239.77" rx="0.26" ry="13.8" style="fill:#263238"/><ellipse cx="245.3" cy="239.77" rx="0.26" ry="13.8" style="fill:#263238"/><ellipse cx="249.77" cy="239.77" rx="0.26" ry="13.8" style="fill:#263238"/><ellipse cx="254.23" cy="239.77" rx="0.26" ry="13.8" style="fill:#263238"/><path d="M266.24,240.18l-1.61,18.39H203.92l1.63-17.07a3.19,3.19,0,0,1,3.19-2.88l29.53.13h0a2,2,0,0,1,2-2h22.77A3.19,3.19,0,0,1,266.24,240.18Z" style="fill:#407bff"/><rect x="131.1" y="248.35" width="91.01" height="55.89" style="fill:#263238"/><rect x="186.17" y="248.35" width="91.01" height="55.89" style="fill:#455a64"/><path d="M277.18,304s0-.35,0-1l0-2.92-.05-11.13L277,248.5l.2.2-91,.06h0l.26-.26c0,19.66,0,38.41,0,55.47l-.24-.24,65.46.12,18.79.07,5,0h.06l-5,0-18.74.07-65.62.12h-.24V304c0-17.06,0-35.81,0-55.47v-.26h.27l91,.06h.2v.2L277.28,289c0,4.79,0,8.52-.05,11.08l0,2.88C277.2,303.65,277.18,304,277.18,304Z" style="fill:#263238"/><path d="M218.92,248.35h31.17a0,0,0,0,1,0,0v1.23a2.15,2.15,0,0,1-2.15,2.15H221.07a2.15,2.15,0,0,1-2.15-2.15v-1.23A0,0,0,0,1,218.92,248.35Z" style="fill:#263238"/><rect x="221.54" y="260.88" width="27.1" height="7.32" style="fill:#e0e0e0"/><path d="M247.51,213.52a55.53,55.53,0,0,0-1.56,10.65c0,.46,0,1,.4,1.25s1-.44,1.33-.85c.64-.74,3-4.82,3-4.82a6.79,6.79,0,0,0,6.16-6.59" style="fill:#ffbe9d"/><path d="M256.87,213.16a2.15,2.15,0,0,1,0,.74,6.3,6.3,0,0,1-.51,2,6.64,6.64,0,0,1-1.92,2.53,7.35,7.35,0,0,1-3.73,1.56l.18-.12c-.76,1.3-1.58,2.72-2.53,4.16-.15.21-.28.42-.46.64s-.32.38-.5.58a1.45,1.45,0,0,1-.75.48.82.82,0,0,1-.84-.51,3.2,3.2,0,0,1-.12-1.52l.1-1.35c.16-1.76.39-3.34.63-4.65s.5-2.36.69-3.09a4.62,4.62,0,0,1,.36-1.1,5.4,5.4,0,0,1-.17,1.15c-.13.73-.33,1.79-.52,3.1s-.39,2.88-.52,4.63l-.08,1.34a2.91,2.91,0,0,0,.08,1.27c.08.16.22.25.3.22a1,1,0,0,0,.46-.33c.16-.16.32-.37.47-.55s.28-.39.42-.59c.93-1.42,1.77-2.84,2.53-4.12l.06-.11h.12a7.08,7.08,0,0,0,3.52-1.4,6.58,6.58,0,0,0,1.9-2.33A10.75,10.75,0,0,0,256.87,213.16Z" style="fill:#eb996e"/></svg>