<svg xmlns="http://www.w3.org/2000/svg" viewBox="0 0 420 300"><title>welcome_help</title><g style="opacity:0.15"><path d="M396,168.59c-15.12,44.94-45.37,64.45-113.14,88.08-48.38,16.87-102.2,22.35-150.82,6.19S41.35,206.41,31.53,156.12c-3.71-19-1.37-39.19,8.28-56C62.13,61.36,170,87,201.27,82.58c55.86-7.9,87.86-43,130.1-27.82C382.63,73.13,411.61,122.26,396,168.59Z" style="fill:#a1d9ff"/></g><path d="M370.11,276.53c0,.14-79.19.26-176.86.26s-176.87-.12-176.87-.26,79.17-.26,176.87-.26S370.11,276.38,370.11,276.53Z" style="fill:#263238"/><path d="M82.77,57.55c13-17.16,26.77-14.73,36.3-10.59a26.21,26.21,0,0,1,15.3,25c-.17,2.74-.75,5.63.36,8.13,1.79,4,7,5.17,10,8.39,4.13,4.4,3.21,11.38,1.82,17.25s-2.86,12.58.59,17.53c3.16,4.54,9.2,5.75,14.17,8.17a26,26,0,0,1,13.77,16.2,22.19,22.19,0,0,1-4.71,20.47c-4.84,5.27-12.1,7.61-19.18,8.65a70.64,70.64,0,0,1-80.84-73.47" style="fill:#263238"/><path d="M119.74,47.7a34.61,34.61,0,0,0-4.63.26,61.3,61.3,0,0,0-10.76,3.12c-4.16,1.45-8.16,2.26-11.09,2.07a13.74,13.74,0,0,1-3.39-.56,4.65,4.65,0,0,1-1.17-.46,22.66,22.66,0,0,0,4.57.65,32.77,32.77,0,0,0,10.91-2.2c4.14-1.45,8-2.7,10.88-3a17.46,17.46,0,0,1,3.43-.09A4.85,4.85,0,0,1,119.74,47.7Z" style="fill:#455a64"/><path d="M149.7,184.19c.5,1.5,10.87,50.5,10.87,50.5L239.46,265,235,276.53l-67.64-5.95h0c-39.47-5.89-41.67-25.26-39.28-46.92l4.09-37.11Z" style="fill:#ffbe9d"/><path d="M36.31,157.76c8.13-12.31,20.47-19.41,31.77-23.34l41.5,3a31.66,31.66,0,0,1,25.28,9.32l3.86,102.84,9.53,27H49.52L36.31,157.76" style="fill:#407bff"/><path d="M136.38,188.93a1.19,1.19,0,0,1-.24-.16l-.67-.5c-.3-.21-.63-.52-1.09-.81l-1.55-1c-.62-.32-1.29-.7-2.05-1.07s-1.6-.74-2.55-1a26.09,26.09,0,0,0-6.54-1.37,27.16,27.16,0,0,0-8.06.5,24.61,24.61,0,0,0-8.51,3.58,17.88,17.88,0,0,0-6.69,7.53,10.73,10.73,0,0,0-.91,5.22,9.79,9.79,0,0,0,2,5,7,7,0,0,0,4.56,2.71,4.4,4.4,0,0,0,4.49-1.93,5.83,5.83,0,0,0,.08-4.9,9.39,9.39,0,0,0-1.18-2.19,12.17,12.17,0,0,0-1.66-1.8,18,18,0,0,0-8.19-4.09,25.21,25.21,0,0,0-8.06-.45,53.24,53.24,0,0,0-11.46,2.69l-3,1-.79.26-.28.07.26-.12.78-.31c.69-.26,1.7-.65,3-1.12a50.79,50.79,0,0,1,11.48-2.87,25.37,25.37,0,0,1,8.19.4,18.32,18.32,0,0,1,8.42,4.16,10.69,10.69,0,0,1,.9.89,8.68,8.68,0,0,1,.83,1,9.86,9.86,0,0,1,1.25,2.31,6.31,6.31,0,0,1-.1,5.33,4.33,4.33,0,0,1-2.15,1.85,5.77,5.77,0,0,1-2.84.34,7.46,7.46,0,0,1-4.91-2.9A10.29,10.29,0,0,1,97,199.88a11.22,11.22,0,0,1,1-5.47,18.3,18.3,0,0,1,6.9-7.73,24.92,24.92,0,0,1,8.68-3.6,27.28,27.28,0,0,1,8.18-.44,26,26,0,0,1,6.6,1.46,27.57,27.57,0,0,1,2.56,1.07c.76.39,1.43.78,2,1.12l1.54,1c.45.3.77.63,1.06.85l.64.55A1.16,1.16,0,0,1,136.38,188.93Z" style="fill:#fafafa"/><polygon points="134.86 146.71 159.36 190.76 132.18 199.11 134.86 146.71" style="fill:#407bff"/><path d="M138.15,249.88a4.29,4.29,0,0,1-.08-.77l-.13-2.21-.37-8.13c-.29-6.87-.63-16.36-.94-26.84s-.5-20-.57-26.85c0-3.44,0-6.22,0-8.14l0-2.21a4.29,4.29,0,0,1,0-.77,4.31,4.31,0,0,1,.06.77l.06,2.21.18,8.14.72,26.85.78,26.84.21,8.14,0,2.21A4.31,4.31,0,0,1,138.15,249.88Z" style="fill:#263238"/><path d="M142.09,160.13a3.35,3.35,0,0,1-.56.39,14.75,14.75,0,0,1-1.73.94A18.16,18.16,0,0,1,122.55,160a11.51,11.51,0,0,1-2.39-2,5.9,5.9,0,0,1-1.47-3,4,4,0,0,1,.88-3.33,3.58,3.58,0,0,1,3.4-1,4.38,4.38,0,0,1,2.93,2,5,5,0,0,1,.53,3.4,6.73,6.73,0,0,1-1.39,3,8.09,8.09,0,0,1-2.46,2,15.33,15.33,0,0,1-5.54,1.56,25.13,25.13,0,0,1-5,.06,24.38,24.38,0,0,1-7-1.69,19,19,0,0,1-1.78-.82,3.35,3.35,0,0,1-.59-.35,3.39,3.39,0,0,1,.64.25c.41.18,1,.44,1.81.73a25.79,25.79,0,0,0,7,1.51,25.37,25.37,0,0,0,4.92-.12,15.05,15.05,0,0,0,5.36-1.55,7.65,7.65,0,0,0,2.3-1.88,6.25,6.25,0,0,0,1.27-2.78,4.53,4.53,0,0,0-.47-3.05,3.87,3.87,0,0,0-2.58-1.76,3.07,3.07,0,0,0-2.91.82,3.53,3.53,0,0,0-.76,2.91,5.42,5.42,0,0,0,1.34,2.72,11.11,11.11,0,0,0,2.29,2,17.61,17.61,0,0,0,9.94,3,18.3,18.3,0,0,0,7-1.34C141.28,160.61,142.06,160.07,142.09,160.13Z" style="fill:#fafafa"/><path d="M136.87,249a1.65,1.65,0,0,1-.28-.19l-.8-.58a27.87,27.87,0,0,0-3.26-1.94,29.11,29.11,0,0,0-13.5-3,40.86,40.86,0,0,0-19.61,5.88,28.77,28.77,0,0,0-4.84,3.46,16.61,16.61,0,0,0-3.82,4.81,9.48,9.48,0,0,0-.9,6.13,5.43,5.43,0,0,0,1.53,2.72,3,3,0,0,0,2.88.7,4.1,4.1,0,0,0,2.31-2,7,7,0,0,0,.84-3.06A10.69,10.69,0,0,0,95.5,256a14.6,14.6,0,0,0-4.42-4.23,17.16,17.16,0,0,0-5.49-2.15,31.74,31.74,0,0,0-11-.1,66.19,66.19,0,0,0-9.43,2.06,67.89,67.89,0,0,0-12.91,5.35c-1.45.79-2.56,1.45-3.3,1.9l-.85.51a1.64,1.64,0,0,1-.3.16,1.63,1.63,0,0,1,.27-.21l.82-.56c.73-.48,1.82-1.17,3.26-2a64.84,64.84,0,0,1,22.37-7.66,32,32,0,0,1,11.14.06,17.61,17.61,0,0,1,5.66,2.2,15.08,15.08,0,0,1,4.59,4.37,11.18,11.18,0,0,1,2,6.25,7.46,7.46,0,0,1-.9,3.3,4.61,4.61,0,0,1-2.62,2.29,3.52,3.52,0,0,1-3.37-.82,5.93,5.93,0,0,1-1.69-3,10,10,0,0,1,.95-6.48,17.06,17.06,0,0,1,3.94-5,29.13,29.13,0,0,1,4.94-3.5C106,244.86,113.06,243,119,243a28.81,28.81,0,0,1,13.6,3.16A19.36,19.36,0,0,1,136.87,249Z" style="fill:#fafafa"/><path d="M66.42,169.14c-3-15.37-24.75-15.94-28.57-.75l-.17.71C32.08,193,51,263.75,56.12,267.82s10.13,8.71,18.84,5.09c5.09-2.11,57.94-48.82,57.94-48.82s12.22,11.71,16.29,10.69,11.87-13,11.87-13,7.55,11.33,8.5,11.51a2.84,2.84,0,0,0,3.06-4.07c-1-1.53-10.64-22.6-10.64-22.6s7.59-.82,6.06-3.37c0,0-.19-2.34-5.32-1.89s-5.13-5.43-14.63-4.83-29.27,3-57,24.29l-12.82,9.05Z" style="fill:#ffbe9d"/><path d="M91.06,220.79l.32-.26,1-.73L96.08,217a148.47,148.47,0,0,1,14.86-9.36A97.85,97.85,0,0,1,136,198c2.52-.53,5.13-1,7.84-1.32q2-.22,4.12-.37a17.85,17.85,0,0,1,4.27.19,11.31,11.31,0,0,1,4.09,1.59c1.27.77,2.34,1.85,3.62,2.5a4.84,4.84,0,0,0,2.06.54c.71,0,1.49-.09,2.26-.06a7.16,7.16,0,0,1,2.33.39,2.49,2.49,0,0,1,1.72,1.77l0-.11a1.43,1.43,0,0,1,.2,1.08,1.77,1.77,0,0,1-.63.89A6,6,0,0,1,166,206a20.88,20.88,0,0,1-4,.85l.2-.35L169,221.15c1.18,2.5,2.36,5.07,3.66,7.56a4.36,4.36,0,0,1,.49,1,3,3,0,0,1,0,1.17,3.34,3.34,0,0,1-1.13,2,2.9,2.9,0,0,1-2.2.66l-.29,0a.76.76,0,0,1-.21-.08l-.14-.1a4.07,4.07,0,0,1-.42-.4c-.25-.27-.49-.55-.71-.84-2.61-3.34-4.92-6.8-7.22-10.2h.43a86.35,86.35,0,0,1-5.88,7.94,32.33,32.33,0,0,1-3.37,3.51c-.31.26-.64.51-1,.76a12.17,12.17,0,0,1-1.06.64,3.87,3.87,0,0,1-1.23.36,4.41,4.41,0,0,1-1.24-.16,16.19,16.19,0,0,1-4.26-2.09c-1.31-.85-2.55-1.76-3.76-2.7-2.4-1.89-4.66-3.86-6.79-5.87h.32C116.3,239,101.95,251.39,91.69,260c-5.13,4.29-9.24,7.62-12.12,9.82-1.44,1.1-2.57,1.92-3.36,2.43a6.56,6.56,0,0,1-1.25.69s.44-.21,1.2-.76,1.89-1.36,3.31-2.48c2.85-2.23,6.92-5.6,12-9.92,10.2-8.64,24.51-21.06,41.24-35.84l.16-.14.16.15c2.12,2,4.38,4,6.77,5.83,1.2.93,2.43,1.84,3.72,2.67a15.78,15.78,0,0,0,4.11,2c1.49.56,2.84-.51,4-1.49A31.9,31.9,0,0,0,155,229.5a86.09,86.09,0,0,0,5.84-7.89l.22-.32.22.32c2.29,3.39,4.62,6.86,7.19,10.16.22.28.45.55.69.81a3.67,3.67,0,0,0,.36.35l.08.06h0s0,0,0,.09,0,.15,0-.08h0l.25,0a2.37,2.37,0,0,0,1.82-.55,2.57,2.57,0,0,0,.5-3.51c-1.33-2.55-2.49-5.09-3.68-7.6l-6.78-14.68-.14-.31.35,0a20.44,20.44,0,0,0,3.89-.83,5.59,5.59,0,0,0,1.66-.83,1.29,1.29,0,0,0,.46-.63.94.94,0,0,0-.14-.71l0,0v-.07a2.07,2.07,0,0,0-1.41-1.35,6.7,6.7,0,0,0-2.17-.36c-.75,0-1.47.08-2.27.06a5.33,5.33,0,0,1-2.25-.59c-1.38-.71-2.43-1.78-3.66-2.53a10.85,10.85,0,0,0-3.92-1.53c-2.77-.5-5.57-.08-8.26.16s-5.29.76-7.8,1.29a98.4,98.4,0,0,0-25,9.52,156.59,156.59,0,0,0-14.91,9.23l-3.79,2.74-1,.7Z" style="fill:#eb996e"/><path d="M73.49,247a2.22,2.22,0,0,1-.21-.75,14.7,14.7,0,0,1-.26-2.09A21.28,21.28,0,0,1,76.7,231a14.7,14.7,0,0,1,1.3-1.65c.34-.37.54-.55.56-.53s-.63.9-1.55,2.39a24.07,24.07,0,0,0-3.62,13C73.41,246,73.58,247,73.49,247Z" style="fill:#eb996e"/><path d="M51.6,142.56c-.49.33-18.09,5.59-20.85,23.63s-1.11,49.45-1.11,49.45l47.74-3.28L63.69,148.91Z" style="fill:#407bff"/><path d="M153.08,232.29a15.24,15.24,0,0,1,0-1.64,8.6,8.6,0,0,0-3.49-6.62,15.25,15.25,0,0,1-1.36-.91,3.28,3.28,0,0,1,1.57.6,7.81,7.81,0,0,1,3.66,6.94A3.27,3.27,0,0,1,153.08,232.29Z" style="fill:#eb996e"/><path d="M157.47,226.94a11.06,11.06,0,0,0-4.88-7.64,2.78,2.78,0,0,1,1.3.57,8.27,8.27,0,0,1,3.61,5.65A2.78,2.78,0,0,1,157.47,226.94Z" style="fill:#eb996e"/><path d="M157.47,215.54c0-.05.45.15,1,.64a7.1,7.1,0,0,1,2.27,5.12c0,.74-.14,1.18-.2,1.17a10.47,10.47,0,0,0-3.07-6.92Z" style="fill:#eb996e"/><path d="M71.56,182.42h-.25l-.72-.08a25.24,25.24,0,0,0-2.78-.19,26.52,26.52,0,0,0-10,1.85,25.28,25.28,0,0,0-11.67,9.25,13.66,13.66,0,0,0-2.57,8.3A9.29,9.29,0,0,0,45,205.91a6.78,6.78,0,0,0,3.63,2.88,6.41,6.41,0,0,0,4.6-.22,5.21,5.21,0,0,0,2.8-3.39,8.4,8.4,0,0,0-.17-4.4,12.5,12.5,0,0,0-1.91-3.85,19.08,19.08,0,0,0-12.64-7.48,19.34,19.34,0,0,0-10,1.34A22,22,0,0,0,28.8,192l-.62.38a.9.9,0,0,1-.22.11,14.32,14.32,0,0,1,3.25-1.92,19.14,19.14,0,0,1,10.12-1.52,19.36,19.36,0,0,1,13,7.56,13,13,0,0,1,2,4,8.87,8.87,0,0,1,.19,4.68A5.72,5.72,0,0,1,53.43,209a6.92,6.92,0,0,1-5,.25,7.29,7.29,0,0,1-3.9-3.09,9.78,9.78,0,0,1-1.47-4.61,14.1,14.1,0,0,1,2.68-8.6,25.45,25.45,0,0,1,11.93-9.33,25.9,25.9,0,0,1,10.13-1.71A18.64,18.64,0,0,1,71.56,182.42Z" style="fill:#fafafa"/><path d="M69.93,156.52a6.48,6.48,0,0,1-1.21.56,11.7,11.7,0,0,1-1.47.53,19.33,19.33,0,0,1-2,.56,21.76,21.76,0,0,1-2.47.46,28.6,28.6,0,0,1-2.88.27A30.11,30.11,0,0,1,47,156.58a28.65,28.65,0,0,1-2.6-1.26A21.77,21.77,0,0,1,42.2,154a19.33,19.33,0,0,1-1.68-1.22,11.68,11.68,0,0,1-1.19-1,6.48,6.48,0,0,1-.94-.94c.07-.09,1.44,1.24,4,2.86a23.39,23.39,0,0,0,2.16,1.22c.78.44,1.66.79,2.58,1.2a34.42,34.42,0,0,0,6.25,1.81,34.41,34.41,0,0,0,6.49.48c1-.06,2-.09,2.84-.22a23.41,23.41,0,0,0,2.45-.4C68.14,157.18,69.89,156.41,69.93,156.52Z" style="fill:#fafafa"/><path d="M73.87,187.11a2.13,2.13,0,0,1,.11.48l.23,1.39.8,5.23,2.61,18.12,0,.26-.27,0-11.15.78-25.88,1.7-7.85.46-2.14.1a4,4,0,0,1-.75,0,4,4,0,0,1,.74-.1l2.13-.2,7.84-.62,25.87-1.85,11.15-.75-.23.28-2.43-18.15L74,189l-.15-1.4A2.15,2.15,0,0,1,73.87,187.11Z" style="fill:#263238"/><g style="opacity:0.2"><path d="M50.72,142.06c-.48,1.68.86,3.27,1.73,4.79,1.68,2.92,1.77,6.46,1.92,9.82A68.22,68.22,0,0,0,57.2,174.9c1.92,5.86,5.22,11.41,10.1,15.19s11.43,5.63,17.4,4.07,11-6.84,11.5-13-3.2-11.63-5.32-17.37c-1.64-4.43-2.36-9.12-3.31-13.75s-2.14-9.28-4.59-13.31-6.34-7.41-11-8.25-9.95,1.35-11.82,5.68"/></g><path d="M73.78,61.31v5.32l-.35,79.61c0,9.24,7.87,16.64,17.77,16.6h0c10,0,18.25-7.62,18.44-17,.2-9.8.6-20.11.6-20.11s12.66-1.87,15.57-18.3c1.45-8.17,1.27-21.6.78-32.59A17.39,17.39,0,0,0,107.7,58.33Z" style="fill:#ffbe9d"/><path d="M122.73,84.91A2.11,2.11,0,0,1,120.65,87a2,2,0,0,1-2.14-1.94,2.11,2.11,0,0,1,2.07-2.1A2,2,0,0,1,122.73,84.91Z" style="fill:#263238"/><path d="M123.56,81.82c-.27.27-1.85-.94-4.12-1s-4,1.07-4.2.79c-.12-.13.16-.62.89-1.13a5.8,5.8,0,0,1,3.37-1,5.56,5.56,0,0,1,3.27,1.12C123.46,81.2,123.69,81.7,123.56,81.82Z" style="fill:#263238"/><path d="M101.2,84.52a2.11,2.11,0,0,1-2.07,2.09A2,2,0,0,1,97,84.67a2.11,2.11,0,0,1,2.07-2.1A2,2,0,0,1,101.2,84.52Z" style="fill:#263238"/><path d="M101.21,81.85c-.27.27-1.85-.94-4.12-1s-4,1.07-4.2.79c-.12-.13.15-.62.89-1.13a5.79,5.79,0,0,1,3.37-1,5.57,5.57,0,0,1,3.27,1.12C101.11,81.22,101.34,81.73,101.21,81.85Z" style="fill:#263238"/><path d="M109.16,98.85a15.08,15.08,0,0,1,3.7-.6c.58,0,1.13-.16,1.24-.55a3,3,0,0,0-.36-1.73l-1.64-4.45c-2.27-6.33-3.9-11.54-3.65-11.63s2.31,5,4.58,11.31l1.56,4.48a3.36,3.36,0,0,1,.26,2.28,1.46,1.46,0,0,1-1,.83,3.94,3.94,0,0,1-1,.12A14.78,14.78,0,0,1,109.16,98.85Z" style="fill:#263238"/><path d="M110.25,125.78a41.91,41.91,0,0,1-22-6.28s5.15,11.41,21.66,10.16Z" style="fill:#eb996e"/><path d="M108.1,104.31a4.1,4.1,0,0,0-3.64-1.59,3.74,3.74,0,0,0-2.61,1.34,2.37,2.37,0,0,0-.23,2.71,2.75,2.75,0,0,0,3,.81,8.61,8.61,0,0,0,2.94-1.68,2.52,2.52,0,0,0,.66-.66.76.76,0,0,0,0-.85" style="fill:#eb996e"/><path d="M102.44,100.3c.37,0,.33,2.45,2.41,4.24s4.71,1.56,4.72,1.91c0,.15-.59.47-1.7.48a6.14,6.14,0,0,1-3.95-1.45,5.35,5.35,0,0,1-1.86-3.55C102,100.89,102.28,100.29,102.44,100.3Z" style="fill:#263238"/><path d="M102,73c-.24.61-2.5.28-5.17.55s-4.84,1-5.19.4c-.15-.27.23-.84,1.11-1.43a9,9,0,0,1,7.89-.73C101.57,72.16,102.06,72.66,102,73Z" style="fill:#263238"/><path d="M122.84,75.23c-.41.51-2-.05-3.85-.11s-3.48.28-3.84-.26c-.16-.27.1-.78.81-1.25a5.57,5.57,0,0,1,6.19.3C122.81,74.44,123,75,122.84,75.23Z" style="fill:#263238"/><path d="M94.43,55.89c4.46,5.81,0,14.13-5.06,19.47s-11.13,11.52-9.68,18.7c1.69,8.32,13.14,13.54,11.52,21.88-.59,3-3,5.65-2.94,8.75,0,5.59,7.3,8.24,9.43,13.41,2.92,7.08-4.85,14.25-4.9,21.91,0,4.35,2.48,8.38,2.65,12.73.36,8.91-10.12,15.53-18.78,13.43S62,175.68,60.06,167s-.67-17.76.64-26.57c-.82,3.76-6.52,4.52-9.34,1.89s-3.19-7-2.6-10.79c1.48-9.54,7.67-17.67,10.56-26.89,2.53-8.05,2.46-16.66,3.52-25s3.56-17.12,9.9-22.7,17.38-6.37,22.62.26" style="fill:#263238"/><path d="M71.85,183a2.15,2.15,0,0,1,.2-.33l.63-.94a21.27,21.27,0,0,0,3.24-10.58,20.37,20.37,0,0,0-1.62-8.83c-1.31-3.1-3.62-6-6.06-9.16a47.34,47.34,0,0,1-3.53-5.08,20.19,20.19,0,0,1-2.34-6.15,12.11,12.11,0,0,1,.56-6.89,9.83,9.83,0,0,1,2-3,23.1,23.1,0,0,1,2.82-2.32c2-1.41,4.05-2.85,5.14-5.07a10.66,10.66,0,0,0,.46-7.29c-1.2-5-4.68-8.9-6.91-13.25a16.8,16.8,0,0,1-2.07-6.91,15.2,15.2,0,0,1,1.3-6.8,29.65,29.65,0,0,1,7.75-10.06c3-2.67,5.9-4.94,8.3-7.3a26.23,26.23,0,0,0,5.48-7.17,17.23,17.23,0,0,0,1.87-6.53,11.9,11.9,0,0,0-.43-4.28c-.28-1-.51-1.42-.48-1.44A8,8,0,0,1,88.79,55a11.55,11.55,0,0,1,.53,4.32A17.22,17.22,0,0,1,87.5,66,26.32,26.32,0,0,1,82,73.3c-2.41,2.4-5.34,4.69-8.27,7.36a29.33,29.33,0,0,0-7.6,9.92,14.74,14.74,0,0,0-1.24,6.58,16.32,16.32,0,0,0,2,6.7c1.11,2.14,2.51,4.19,3.83,6.34a24.49,24.49,0,0,1,3.13,7,11.17,11.17,0,0,1-.5,7.65c-1.17,2.38-3.36,3.85-5.3,5.25a22.68,22.68,0,0,0-2.77,2.26,9.33,9.33,0,0,0-1.94,2.83,11.64,11.64,0,0,0-.54,6.61,19.78,19.78,0,0,0,2.26,6,47.28,47.28,0,0,0,3.48,5C71,156,73.33,159,74.65,162.16a20.55,20.55,0,0,1,1.57,9,21.52,21.52,0,0,1-1.43,6.75,20.36,20.36,0,0,1-2,3.87c-.28.41-.52.71-.68.91A2.12,2.12,0,0,1,71.85,183Z" style="fill:#455a64"/><path d="M194.48,202.85,156.58,269l-53.67,1.86v5.91H259.7l42.67-69.9a4,4,0,0,0-3.39-6H197.92A4,4,0,0,0,194.48,202.85Z" style="fill:#2a383d"/><ellipse cx="238.07" cy="234.69" rx="7.97" ry="4.61" transform="translate(-88.07 308.09) rotate(-57.27)" style="fill:#e0e0e0"/><path d="M354,245.94a3.16,3.16,0,0,0-.21-.52l-.69-1.48a37.13,37.13,0,0,1-2-5.91c-1.35-5.26-1.82-13.29.17-22.84a122.6,122.6,0,0,1,4.24-15.34c1.79-5.44,3.88-11.22,5.58-17.47a67.58,67.58,0,0,0,2.75-20.08c-.26-7.1-2.36-14.19-4.67-21.25s-4.69-14-5.41-20.93a31.9,31.9,0,0,1,3.84-19.33c3.06-5.64,6.91-10.46,9.79-15.46a53.73,53.73,0,0,0,5.89-14.86,55.34,55.34,0,0,0,.37-23,42.9,42.9,0,0,0-2.4-8.13,3.14,3.14,0,0,0,.14.54l.49,1.56a59.36,59.36,0,0,1,1.49,6.09,56.07,56.07,0,0,1-.6,22.85A53.56,53.56,0,0,1,366.86,85C364,90,360.11,94.77,357,100.48a32.54,32.54,0,0,0-4,19.72c.72,7.07,3.12,14,5.43,21.08s4.39,14.07,4.65,21.05a67.24,67.24,0,0,1-2.69,19.88c-1.67,6.21-3.73,12-5.5,17.45a121.08,121.08,0,0,0-4.17,15.43c-1.94,9.62-1.39,17.73.06,23A34.14,34.14,0,0,0,353,244l.76,1.45A3.1,3.1,0,0,0,354,245.94Z" style="fill:#263238"/><path d="M363.47,90.27s5.85-18.72-4.65-29.67a.65.65,0,0,0-1.11.32C357.15,64,356.45,73.42,363.47,90.27Z" style="fill:#407bff"/><path d="M360,66.83a17.19,17.19,0,0,0,.39,3.45l1.33,8.25L363,86.79a18.83,18.83,0,0,0,.62,3.42,14.5,14.5,0,0,0-.1-3.48c-.19-2.14-.57-5.08-1.1-8.31s-1.09-6.14-1.55-8.23A15.62,15.62,0,0,0,360,66.83Z" style="fill:#263238"/><path d="M356.59,134.41s-3.58-19.28-18-24.06a.65.65,0,0,0-.83.8C338.73,114.15,342.51,122.8,356.59,134.41Z" style="fill:#407bff"/><path d="M342.53,115.33a17.21,17.21,0,0,0,2,2.87l5,6.67,5,6.68a18.83,18.83,0,0,0,2.15,2.73,14.48,14.48,0,0,0-1.72-3c-1.17-1.8-2.88-4.22-4.86-6.83s-3.83-4.91-5.22-6.55A15.61,15.61,0,0,0,342.53,115.33Z" style="fill:#263238"/><path d="M360.49,182.77s2.17-19.49-10.22-28.24a.65.65,0,0,0-1,.53C349.27,158.2,350.38,167.57,360.49,182.77Z" style="fill:#407bff"/><path d="M352.57,160.44a17.21,17.21,0,0,0,1,3.31l2.89,7.85,2.86,7.85a18.81,18.81,0,0,0,1.26,3.23,14.51,14.51,0,0,0-.77-3.39c-.6-2.06-1.53-4.88-2.67-7.95s-2.24-5.82-3.09-7.78A15.61,15.61,0,0,0,352.57,160.44Z" style="fill:#263238"/><path d="M349.63,231.42s1.48-19.55-11.23-27.86a.65.65,0,0,0-1,.56C337.55,207.27,339,216.6,349.63,231.42Z" style="fill:#407bff"/><path d="M340.93,209.38a17.23,17.23,0,0,0,1.16,3.27l3.16,7.74,3.14,7.75a18.79,18.79,0,0,0,1.38,3.19,14.51,14.51,0,0,0-.89-3.36c-.67-2-1.7-4.82-2.95-7.85s-2.45-5.73-3.37-7.67A15.6,15.6,0,0,0,340.93,209.38Z" style="fill:#263238"/><path d="M371.88,73.82s17.38-9.08,17.72-24.25a.65.65,0,0,0-1-.56C386,50.8,378.85,57,371.88,73.82Z" style="fill:#407bff"/><path d="M386,54.79a17.19,17.19,0,0,0-2.17,2.72l-4.9,6.78L374,71a18.79,18.79,0,0,0-2,2.85,14.5,14.5,0,0,0,2.39-2.53c1.38-1.65,3.19-4,5.1-6.65s3.57-5.11,4.73-6.91A15.61,15.61,0,0,0,386,54.79Z" style="fill:#263238"/><path d="M353.21,114s17.9-8,19.16-23.13a.65.65,0,0,0-1-.62C368.71,91.89,361.19,97.6,353.21,114Z" style="fill:#407bff"/><path d="M368.46,95.87a17.21,17.21,0,0,0-2.33,2.58l-5.3,6.47-5.32,6.45a18.8,18.8,0,0,0-2.15,2.73,14.49,14.49,0,0,0,2.54-2.38c1.47-1.56,3.43-3.79,5.5-6.33s3.88-4.88,5.14-6.61A15.62,15.62,0,0,0,368.46,95.87Z" style="fill:#263238"/><path d="M363.51,158.85s12.29-15.28,6.53-29.32a.65.65,0,0,0-1.15-.11C367.24,132.1,363.14,140.6,363.51,158.85Z" style="fill:#407bff"/><path d="M368.82,135.75a17.2,17.2,0,0,0-.9,3.36l-1.78,8.17-1.8,8.16a18.81,18.81,0,0,0-.67,3.41,14.49,14.49,0,0,0,1.17-3.28c.6-2.06,1.33-4.94,2-8.14s1.23-6.11,1.57-8.23A15.62,15.62,0,0,0,368.82,135.75Z" style="fill:#263238"/><path d="M351.34,211.61s17.76-8.3,18.77-23.45a.65.65,0,0,0-1-.6C366.46,189.23,359,195.06,351.34,211.61Z" style="fill:#407bff"/><path d="M366.28,193.21a17.23,17.23,0,0,0-2.28,2.62l-5.19,6.55-5.21,6.54a18.82,18.82,0,0,0-2.1,2.76,14.49,14.49,0,0,0,2.5-2.42c1.45-1.59,3.37-3.85,5.39-6.42s3.79-4.95,5-6.7A15.62,15.62,0,0,0,366.28,193.21Z" style="fill:#263238"/><path d="M316,134.51a1.45,1.45,0,0,0,0,.43l0,1.25.21,4.75.93,17v0c1.27,7.1,4.88,15,9.74,22.6,3.56,5.62,7.29,10.74,10.51,15.5a109.8,109.8,0,0,1,7.88,13,55.22,55.22,0,0,1,3.69,9.56c.31,1.17.55,2.08.68,2.71a4.93,4.93,0,0,0,.26.94,4.88,4.88,0,0,0-.11-1c-.09-.64-.28-1.56-.55-2.75a50.46,50.46,0,0,0-3.5-9.71,104,104,0,0,0-7.79-13.18c-3.2-4.79-6.91-9.91-10.45-15.51-4.83-7.6-8.42-15.34-9.74-22.32v0l-1.19-17-.38-4.74-.13-1.25A1.47,1.47,0,0,0,316,134.51Z" style="fill:#263238"/><path d="M326.53,179.11s-7.52-18.11,1.94-30a.65.65,0,0,1,1.14.22C330.45,152.38,332,161.69,326.53,179.11Z" style="fill:#407bff"/><path d="M327.9,155.45a15.63,15.63,0,0,0-.6,3.43c-.27,2.13-.56,5.07-.8,8.34s-.34,6.23-.34,8.38a14.48,14.48,0,0,0,.21,3.47,18.83,18.83,0,0,0,.31-3.46l.56-8.34.58-8.34A17.22,17.22,0,0,0,327.9,155.45Z" style="fill:#263238"/><g style="opacity:0.30000000000000004"><path d="M326.53,179.11s-7.52-18.11,1.94-30a.65.65,0,0,1,1.14.22C330.45,152.38,332,161.69,326.53,179.11Z"/></g><path d="M349.84,222.75s-6-18.66,4.36-29.72a.65.65,0,0,1,1.12.31C355.91,196.43,356.7,205.83,349.84,222.75Z" style="fill:#407bff"/><path d="M353.12,199.28a15.6,15.6,0,0,0-.87,3.37c-.44,2.1-1,5-1.47,8.25s-.85,6.18-1,8.32a14.47,14.47,0,0,0-.07,3.48,18.86,18.86,0,0,0,.59-3.42L351.5,211l1.26-8.27A17.23,17.23,0,0,0,353.12,199.28Z" style="fill:#263238"/><g style="opacity:0.30000000000000004"><path d="M349.84,222.75s-6-18.66,4.36-29.72a.65.65,0,0,1,1.12.31C355.91,196.43,356.7,205.83,349.84,222.75Z"/></g><path d="M317,157s-16.06-11.25-14.44-26.33a.65.65,0,0,1,1.08-.43C305.92,132.32,312.22,139.35,317,157Z" style="fill:#407bff"/><g style="opacity:0.30000000000000004"><path d="M317,157s-16.06-11.25-14.44-26.33a.65.65,0,0,1,1.08-.43C305.92,132.32,312.22,139.35,317,157Z"/></g><path d="M305.42,136.28a15.6,15.6,0,0,0,1.33,3.21c.92,1.94,2.25,4.59,3.8,7.46s3.05,5.44,4.2,7.25a14.5,14.5,0,0,0,2,2.82,18.81,18.81,0,0,0-1.6-3.08l-4-7.34-4-7.35A17.25,17.25,0,0,0,305.42,136.28Z" style="fill:#263238"/><path d="M343.36,204.25s-19.38-3-24.57-17.28a.65.65,0,0,1,.78-.86C322.59,187,331.35,190.51,343.36,204.25Z" style="fill:#407bff"/><g style="opacity:0.30000000000000004"><path d="M343.36,204.25s-19.38-3-24.57-17.28a.65.65,0,0,1,.78-.86C322.59,187,331.35,190.51,343.36,204.25Z"/></g><path d="M323.88,190.74A15.62,15.62,0,0,0,326.5,193c1.68,1.34,4,3.13,6.7,5s5.13,3.54,7,4.66a14.47,14.47,0,0,0,3.07,1.63,18.85,18.85,0,0,0-2.79-2.07l-6.83-4.82-6.81-4.85A17.24,17.24,0,0,0,323.88,190.74Z" style="fill:#263238"/><polygon points="366.28 239.91 360.73 276.36 338.53 276.32 331.06 239.91 366.28 239.91" style="fill:#455a64"/><path d="M334.31,254s.06.05.19.13a6.57,6.57,0,0,0,.58.33,8.12,8.12,0,0,0,2.48.74,9.13,9.13,0,0,0,4.08-.38,8.55,8.55,0,0,0,4.39-3.19,6.18,6.18,0,0,0,1-3,3.32,3.32,0,0,0-1.51-3.13,3.59,3.59,0,0,0-3.72.31,5.43,5.43,0,0,0-2.13,3.35,14.24,14.24,0,0,0-.28,4.12,13.61,13.61,0,0,0,.9,4.21,9.28,9.28,0,0,0,2.57,3.67,7.18,7.18,0,0,0,4.27,1.78,7.82,7.82,0,0,0,4.44-1.29,13.3,13.3,0,0,0,3.31-3,7.27,7.27,0,0,0,1.68-4,4.64,4.64,0,0,0-1.58-3.86,3.61,3.61,0,0,0-3.93-.24,4.21,4.21,0,0,0-2.27,3,5.71,5.71,0,0,0,2.81,5.77A7.84,7.84,0,0,0,357,260a12.22,12.22,0,0,0,3.82-1.49A20.18,20.18,0,0,0,363,257a4.47,4.47,0,0,0,.69-.58,5.61,5.61,0,0,0-.76.48c-.49.32-1.21.81-2.18,1.34a12.38,12.38,0,0,1-3.76,1.37,7.53,7.53,0,0,1-5.08-.81,5.26,5.26,0,0,1-2.53-5.3,3.69,3.69,0,0,1,2-2.59,3.06,3.06,0,0,1,3.34.2,4.08,4.08,0,0,1,1.34,3.39,6.71,6.71,0,0,1-1.57,3.67,12.77,12.77,0,0,1-3.16,2.85,7.24,7.24,0,0,1-4.1,1.2,6.59,6.59,0,0,1-3.91-1.64,8.71,8.71,0,0,1-2.41-3.43,13.09,13.09,0,0,1-.87-4,13.77,13.77,0,0,1,.24-3.95,4.9,4.9,0,0,1,1.88-3,3.09,3.09,0,0,1,3.17-.31,2.84,2.84,0,0,1,1.29,2.68,5.76,5.76,0,0,1-.92,2.83,8.25,8.25,0,0,1-4.14,3.1,9.08,9.08,0,0,1-3.94.47A10.33,10.33,0,0,1,334.31,254Z" style="fill:#263238"/></svg>