<svg xmlns="http://www.w3.org/2000/svg" viewBox="0 0 56.69 56.69"><title>logo_light</title><path d="M48.56,22.54a9.43,9.43,0,0,0-3.36-3.26,15.41,15.41,0,0,0-6.52-1.85c-.33,0-.61,0-.55-.5a5.09,5.09,0,0,0-1.31-3.8A20.5,20.5,0,0,0,32,9.21,3.61,3.61,0,0,0,28,9a10.67,10.67,0,0,0-2.56,1.77,15.25,15.25,0,0,0-3.59,5.46c-.13.33-.2.64-.7.41a4.89,4.89,0,0,0-3.78,0,20.32,20.32,0,0,0-5.52,3.52,3.52,3.52,0,0,0-1.31,3.65,10.13,10.13,0,0,0,.89,3,14.8,14.8,0,0,0,4.07,5.11c.36.29.52.48.11.91a4.29,4.29,0,0,0-1.05,2.87c-.11,2.55.81,4.84,1.72,7.15A3.14,3.14,0,0,0,18.76,45c.33.07.66.15,1,.18a13.38,13.38,0,0,0,8.65-2.26c.45-.28.67-.32,1,.18a4.79,4.79,0,0,0,2.89,2,12.16,12.16,0,0,0,4.17.48c.51,0,1,0,1.52,0,2.67.21,4-1.35,4.75-3.62.09-.27.18-.53.24-.81a14.84,14.84,0,0,0-.1-7.27c-.11-.45-.16-.68.43-.81a4.59,4.59,0,0,0,2.76-2,18.18,18.18,0,0,0,2.79-7.71A1.21,1.21,0,0,0,48.56,22.54Zm-22-11.09a8.44,8.44,0,0,1,.86-.68c1.91-1.36,2.58-1.38,4.55-.16A14.36,14.36,0,0,1,36,14.09a3.93,3.93,0,0,1,.91,2.65c0,.44-.17.68-.69.72a12.21,12.21,0,0,0-3.91,1c-1.94.84-2.49,2.09-1.75,4.07a5.19,5.19,0,0,1,.51,2.86c-.09.47-.22.62-.82.56a5.45,5.45,0,0,1-2.78-1.09,4.07,4.07,0,0,0-2.6-.53C22.33,24.41,22,24,22,20.84A13.58,13.58,0,0,1,26.53,11.45Zm4.4,17a1.44,1.44,0,0,1-1.45,1.43,1.46,1.46,0,0,1,0-2.92A1.44,1.44,0,0,1,30.92,28.49ZM11.78,24.06a2.69,2.69,0,0,1,1-3.11A22.12,22.12,0,0,1,17,18.09a4.86,4.86,0,0,1,3.36-.43c.62.17.87.47.68,1.15a10.43,10.43,0,0,0-.3,3.1c.11,3.35,1.56,3.83,3.73,3.65a3.88,3.88,0,0,1,2.75.55c.3.22.3.33.14.71a6,6,0,0,1-2.05,2.49,3.82,3.82,0,0,0-1.19,2.09c-.11.38-.21.76-.33,1.13a1.5,1.5,0,0,1-2,1.22,10.63,10.63,0,0,1-3.16-1.13A13.12,13.12,0,0,1,11.78,24.06Zm9,19.92-.62,0a2.94,2.94,0,0,1-3-2.12,17,17,0,0,1-1.38-6,3.8,3.8,0,0,1,.78-2.27.7.7,0,0,1,1.11-.2,11.31,11.31,0,0,0,3.74,1.49c2,.42,3.1-.25,3.69-2.21a4.84,4.84,0,0,1,1.36-2.74c.34-.27.51-.35.93,0a5.79,5.79,0,0,1,1.61,2.51,4.73,4.73,0,0,0,2.26,2.3c1.45.93,1.59,1.56.67,3A13.71,13.71,0,0,1,20.75,44Zm20.11-.93a2.24,2.24,0,0,1-1.94,1.23,18.48,18.48,0,0,1-5.79-.2,4.37,4.37,0,0,1-2.75-1.65.75.75,0,0,1,.14-1.2,10.54,10.54,0,0,0,2.71-3.41,2.63,2.63,0,0,0-1-3.79L31,33.18a2.69,2.69,0,0,1-.88-1c-.28-.57-.51-.94.4-1.34A6,6,0,0,1,33,30.23,4.32,4.32,0,0,0,35.73,29c1.73-1.42,2.42-1.32,3.75.5a13.32,13.32,0,0,1,2.64,7.79A11.19,11.19,0,0,1,40.86,43.05Zm6.49-18.22a19.68,19.68,0,0,1-2.1,5.3,4.22,4.22,0,0,1-2.1,1.75c-.58.2-1,.14-1.24-.54A10.76,10.76,0,0,0,39.8,28c-1.37-1.5-2.68-1.61-4.29-.37A5.26,5.26,0,0,1,33,29.06c-.55.06-.77,0-.89-.69a5.81,5.81,0,0,1,.2-2.89,4.59,4.59,0,0,0-.43-3c-.7-1.83-.42-2.41,1.46-3.08a14.17,14.17,0,0,1,5-.79,12.75,12.75,0,0,1,8,2.95A2.83,2.83,0,0,1,47.35,24.84Z" style="stroke:#000;stroke-miterlimit:10"/></svg>