<svg xmlns="http://www.w3.org/2000/svg" viewBox="0 0 500 400"><title>no_results</title><g style="isolation:isolate"><path d="M248.63,64.31c-51.45,17.37-165-52.8-182.24,32.27-14.18,69.8,57.18,139.85,150,163.68,65.89,16.92,155.29-12.13,170.54-94.21,9.54-51.33-29-109.94-59.43-121.62C289.46,29.85,282.19,53,248.63,64.31Z" style="fill:#a1d9ff;opacity:0.15"/><ellipse cx="250" cy="366.24" rx="193.89" ry="11.32" style="fill:#c1c1c1;opacity:0.12"/><path d="M186.55,78.28s0,0,0,0,0,0,0,0a35.21,35.21,0,0,0-.45-5.56,34.94,34.94,0,0,0-34.17-29.3h-.31a35.21,35.21,0,0,0-5.56.45,34.66,34.66,0,0,0-22.71,14.05c-.53.73-1,1.48-1.48,2.24a.74.74,0,0,0-.1.16,34.55,34.55,0,0,0-5,18s0,0,0,0,0,0,0,0a35.21,35.21,0,0,0,.45,5.56,35,35,0,0,0,34.39,29.31,35.23,35.23,0,0,0,5.64-.46A34.66,34.66,0,0,0,180,98.63c.53-.73,1-1.48,1.48-2.24a.74.74,0,0,0,.1-.16A34.55,34.55,0,0,0,186.55,78.28Zm-68.28-.79a33.06,33.06,0,0,1,4.63-16.2h10.91a54.94,54.94,0,0,0-2.58,16.2Zm17.07-16.2h15.56v16.2H132.73A53.45,53.45,0,0,1,135.35,61.29Zm17.06-1.5V44.87a12.18,12.18,0,0,1,6,2.22c3.71,2.54,6.82,7,9,12.7Zm15.54,1.5a51.16,51.16,0,0,1,2.4,11.55c.15,1.56.22,3.11.24,4.65H152.41V61.29Zm-19.24-16a10.92,10.92,0,0,1,2.2-.38V59.79h-15C138.71,52.28,143.25,46.8,148.71,45.26ZM150.91,79v16.2H135.38A51.16,51.16,0,0,1,133,83.64c-.15-1.56-.22-3.11-.24-4.65Zm0,17.7v14.92a12.18,12.18,0,0,1-6-2.22c-3.71-2.54-6.82-7-9-12.7Zm3.7,14.53a10.91,10.91,0,0,1-2.2.38V96.69h15C164.61,104.2,160.07,109.69,154.61,111.22Zm-2.2-16V79h18.18A53.45,53.45,0,0,1,168,95.19ZM172.09,79h13a33.06,33.06,0,0,1-4.63,16.2H169.5A54.93,54.93,0,0,0,172.09,79Zm13-1.5h-13c0-1.58-.1-3.18-.25-4.79a53.55,53.55,0,0,0-2.29-11.41h10.88a33.28,33.28,0,0,1,4.19,11.6A33.76,33.76,0,0,1,185,77.49ZM171.18,51.16a33.46,33.46,0,0,1,8.32,8.63H169c-2.24-6.19-5.61-11.09-9.74-13.93l-.32-.21A33.39,33.39,0,0,1,171.18,51.16Zm-26.87-5.49c-4.2,2.76-7.66,7.81-10,14.12H123.85c.24-.36.48-.72.73-1.07A33.15,33.15,0,0,1,144.31,45.67ZM118.28,79h13c0,1.58.1,3.18.25,4.79a53.55,53.55,0,0,0,2.29,11.41H122.89a33.28,33.28,0,0,1-4.19-11.6A33.76,33.76,0,0,1,118.28,79Zm5.55,17.7h10.46c2.24,6.19,5.61,11.09,9.74,13.93l.33.21a33.63,33.63,0,0,1-20.53-14.14ZM159,110.81c4.2-2.76,7.66-7.81,10-14.12h10.49c-.24.36-.48.72-.73,1.07A33.15,33.15,0,0,1,159,110.81Z" style="fill:#318fff;opacity:0.2;mix-blend-mode:multiply"/><rect x="99.89" y="94.9" width="314.4" height="76.18" style="fill:#9fc6ff"/><rect x="92.8" y="101.99" width="314.4" height="76.18" style="fill:#0053cc"/><rect x="85.71" y="109.08" width="314.4" height="76.18" style="fill:#318fff"/><rect x="219.83" y="4.97" width="46.18" height="284.4" transform="translate(390.08 -95.75) rotate(90)" style="fill:#fff"/><rect x="315.01" y="146.33" width="46.18" height="1.67" transform="translate(190.94 485.27) rotate(-90)" style="fill:#9fc6ff"/><rect x="91.91" y="146.33" width="33.44" height="1.67" transform="translate(-38.53 255.8) rotate(-90)" style="fill:#9fc6ff"/><path d="M360.43,152.95a7.38,7.38,0,1,1,5.22-12.59h0a7.38,7.38,0,0,1-5.22,12.59Zm0-12.75a5.38,5.38,0,1,0,3.8,1.57h0A5.36,5.36,0,0,0,360.43,140.2Z" style="fill:#9fc6ff"/><path d="M370,156.14a1,1,0,0,1-.71-.29l-5.05-5.05a1,1,0,1,1,1.41-1.41l5.05,5.05a1,1,0,0,1-.71,1.71Z" style="fill:#9fc6ff"/><rect x="261.15" y="48.85" width="31.44" height="0.78" style="fill:#9fc6ff"/><rect x="261.15" y="52.16" width="31.44" height="0.78" style="fill:#9fc6ff"/><rect x="261.15" y="55.48" width="31.44" height="0.78" style="fill:#9fc6ff"/><rect x="261.15" y="58.79" width="31.44" height="0.78" style="fill:#9fc6ff"/><rect x="261.15" y="62.1" width="31.44" height="0.78" style="fill:#9fc6ff"/><rect x="261.15" y="65.42" width="20.5" height="0.78" style="fill:#9fc6ff"/><rect x="69.85" y="191.84" width="33.5" height="0.5" style="fill:#9fc6ff"/><rect x="69.85" y="193.96" width="33.5" height="0.5" style="fill:#9fc6ff"/><rect x="69.85" y="196.08" width="33.5" height="0.5" style="fill:#9fc6ff"/><rect x="69.85" y="198.2" width="33.5" height="0.5" style="fill:#9fc6ff"/><rect x="69.85" y="200.32" width="33.5" height="0.5" style="fill:#9fc6ff"/><rect x="69.85" y="202.45" width="21.06" height="0.5" style="fill:#9fc6ff"/><path d="M318.14,119.78A53.7,53.7,0,0,0,307.39,102H227.88a53.7,53.7,0,0,0-10.75,17.78l11,54.76a53.73,53.73,0,0,0,90-54.76Z" style="fill:#318fff"/><path d="M321.31,140.61a53.55,53.55,0,0,1-14.16,33.93h-79a53.81,53.81,0,0,1-11-54.76h101A53.42,53.42,0,0,1,321.31,140.61Z" style="fill:#fff"/><path d="M321.31,140.61a53.62,53.62,0,1,1-3.17-20.83A53.55,53.55,0,0,1,321.31,140.61Z" style="fill:#d4e8ff;opacity:0.4"/><path d="M297.92,93.76l-77.26,70.46c-.4-.71-.78-1.44-1.14-2.17a53,53,0,0,1-4.87-15h0L281.38,86.2A53.31,53.31,0,0,1,297.92,93.76Z" style="fill:#d4e8ff;opacity:0.4"/><path d="M318.59,121.07,246,187.31a53.66,53.66,0,0,1-19.48-14.64l79.32-72.34A53.75,53.75,0,0,1,318.59,121.07Z" style="fill:#d4e8ff;opacity:0.4"/><path d="M321.29,107.15a62,62,0,1,0-22.66,84.64A62,62,0,0,0,321.29,107.15Zm-96,55.44a48.89,48.89,0,1,1,66.79,17.89A48.89,48.89,0,0,1,225.3,162.59Z" style="fill:#197bdd"/><path d="M125.06,201.89l7.66,1.78-6.34,4.74s-4.55-2.07-4.76-5.3Z" style="fill:#ff8b7b"/><polygon points="136.82 208.77 131.3 212.45 126.37 208.41 132.72 203.68 136.82 208.77" style="fill:#ff8b7b"/><path d="M223.47,170.78c-8.14,6-16.48,11.69-24.88,17.27s-16.89,11-25.43,16.32S156,214.93,147.35,220c-4.31,2.59-8.68,5.08-13,7.63a25.62,25.62,0,0,1-6.94,3.07,21.55,21.55,0,0,1-4,.67,16.76,16.76,0,0,1-4.49-.23,8.21,8.21,0,0,1-6.46-9.65,9.08,9.08,0,0,1,.28-1,16.76,16.76,0,0,1,2-4,21.54,21.54,0,0,1,2.56-3.11,25.62,25.62,0,0,1,6.13-4.48c4.37-2.49,8.72-5,13.11-7.47,8.76-5,17.59-9.77,26.46-14.53s17.83-9.37,26.85-13.87,18.11-8.88,27.39-12.92a6.22,6.22,0,0,1,6.18,10.7Z" style="fill:#197bdd"/><path d="M136.16,154.52c-.5.81-1.07,1.79-1.61,2.71s-1.07,1.89-1.57,2.85c-1,1.91-2,3.85-3,5.82s-1.81,4-2.63,6c-.39,1-.81,2-1.18,3l-.56,1.53c-.11.29-.13.41-.2.61s-.1.41-.16.62a31.05,31.05,0,0,0-.59,6c-.06,2.14,0,4.34.11,6.55s.25,4.43.45,6.66.4,4.47.6,6.68l-3.86.79c-.68-2.24-1.21-4.45-1.74-6.7s-.93-4.52-1.31-6.81-.66-4.62-.83-7a35.17,35.17,0,0,1,.19-7.51c.07-.35.11-.68.2-1s.18-.77.26-1l.49-1.7c.32-1.13.7-2.25,1.07-3.37.77-2.22,1.61-4.42,2.55-6.57s1.94-4.27,3-6.36c.55-1,1.13-2.07,1.71-3.09s1.18-2,1.92-3.09Z" style="fill:#ff8b7b"/><path d="M131.89,361a9.47,9.47,0,0,1-2.06-.28.18.18,0,0,1-.06-.33c.27-.17,2.63-1.7,3.54-1.29a.63.63,0,0,1,.37.52,1,1,0,0,1-.31,1A2.23,2.23,0,0,1,131.89,361Zm-1.53-.54c1.36.27,2.38.22,2.77-.14a.69.69,0,0,0,.19-.66.26.26,0,0,0-.15-.23C132.69,359.22,131.32,359.88,130.36,360.46Z" style="fill:#0053cc"/><path d="M129.88,360.73l-.09,0a.18.18,0,0,1-.09-.16c0-.09,0-2.34.86-3.09a1,1,0,0,1,.78-.25.64.64,0,0,1,.62.51c.18.88-1.24,2.56-2,3Zm1.32-3.16a.6.6,0,0,0-.41.16,4.22,4.22,0,0,0-.72,2.45c.74-.59,1.62-1.85,1.52-2.39,0-.09-.07-.19-.3-.22Z" style="fill:#0053cc"/><path d="M167.31,361a13.22,13.22,0,0,1-2.45-.28.18.18,0,0,1,0-.34c.35-.18,3.45-1.76,4.41-1.25a.59.59,0,0,1,.31.49,1,1,0,0,1-.33.9A2.92,2.92,0,0,1,167.31,361Zm-1.84-.54c1.73.29,3,.21,3.48-.21a.66.66,0,0,0,.21-.59.23.23,0,0,0-.12-.2C168.52,359.18,166.74,359.85,165.47,360.46Z" style="fill:#0053cc"/><path d="M164.89,360.73a.19.19,0,0,1-.18-.2c0-.09.19-2.18,1.17-3a1.35,1.35,0,0,1,1-.32c.51.05.66.31.69.52.14.88-1.69,2.56-2.62,3Zm1.86-3.16a1,1,0,0,0-.64.24,4.27,4.27,0,0,0-1,2.4c.95-.57,2.19-1.89,2.11-2.42,0,0,0-.18-.37-.21Z" style="fill:#0053cc"/><path d="M148,124.49c.6,4.67,2,14.14-1.39,17,0,0,1,4.76,9.52,5.31,9.42.61,4.8-4.38,4.8-4.38-5.06-1.56-4.68-5.37-3.55-8.89Z" style="fill:#ff8b7b"/><path d="M165.47,115a.37.37,0,0,1-.32-.54,3.66,3.66,0,0,1,2.73-2,.37.37,0,0,1,.4.34.37.37,0,0,1-.33.4h0a2.92,2.92,0,0,0-2.15,1.58A.37.37,0,0,1,165.47,115Z" style="fill:#0f264c"/><path d="M168.16,119.1a16.77,16.77,0,0,0,2.6,3.78,2.7,2.7,0,0,1-2.19.63Z" style="fill:#ff5652"/><ellipse cx="168.24" cy="118.01" rx="0.74" ry="1.14" transform="translate(-10.34 16.32) rotate(-5.39)" style="fill:#0f264c"/><path d="M168,116.93l1.46-.57S168.76,117.6,168,116.93Z" style="fill:#0f264c"/><polygon points="156.33 360.54 164.12 360.54 164.64 342.52 156.85 342.52 156.33 360.54" style="fill:#ff8b7b"/><polygon points="120.96 360.54 128.75 360.54 131.25 342.52 123.47 342.52 120.96 360.54" style="fill:#ff8b7b"/><path d="M129.23,359.64h-8.75a.62.62,0,0,0-.62.53l-1,6.92a1.25,1.25,0,0,0,1.25,1.38c3-.05,4.52-.23,8.36-.23,2.37,0,5.82.25,9.09.25s3.44-3.23,2.08-3.52c-6.1-1.31-7.06-3.12-9.12-4.85A2,2,0,0,0,129.23,359.64Z" style="fill:#14365b"/><path d="M164.38,359.64h-8.75a.62.62,0,0,0-.62.53l-1,6.92a1.25,1.25,0,0,0,1.25,1.38c3-.05,4.52-.23,8.36-.23,2.37,0,7.26.25,10.53.25s3.44-3.23,2.08-3.52c-6.1-1.31-8.5-3.12-10.56-4.85A2,2,0,0,0,164.38,359.64Z" style="fill:#14365b"/><polygon points="164.63 342.52 164.37 351.81 156.58 351.81 156.85 342.52 164.63 342.52" style="fill:#ea7063"/><polygon points="123.46 342.52 131.25 342.52 129.96 351.81 122.17 351.81 123.46 342.52" style="fill:#ea7063"/><path d="M139.48,155.72a39.94,39.94,0,0,1-5.11,6.42l-.89-.59L123.62,155S129,143,133.05,142.39c3.87-.62,6.69,3.38,8,7.66C141.55,151.6,140.72,153.7,139.48,155.72Z" style="fill:#9fc6ff"/><path d="M139.48,155.72a39.94,39.94,0,0,1-5.11,6.42l-.89-.59c.44-3.6,1.84-7.17,3.44-8.3C137.9,153.35,138.77,154.39,139.48,155.72Z" style="fill:#77b3fc"/><path d="M173.21,161.71h0c-.47,3-1.08,6.53-1.9,10.72-1,5.36-2.4,11.79-4.17,19.48l-31.55-2c1.36-12.81,1.89-20.73-2.54-47.48a92.8,92.8,0,0,1,13.52-.89,100.54,100.54,0,0,1,14.32.93c6.12,1,13,2.84,13,2.84S175.65,146,173.21,161.71Z" style="fill:#9fc6ff"/><path d="M173.21,161.71h0c-.47,3-1.08,6.53-1.9,10.72A77.47,77.47,0,0,1,167,161h5.86Z" style="fill:#77b3fc"/><path d="M146.28,117.92c1.2,7.63,1.54,10.89,5.79,14.46,6.39,5.38,15.51,2.24,16.61-5.6,1-7.05-1.12-18.35-8.93-20.7A10.54,10.54,0,0,0,146.28,117.92Z" style="fill:#ff8b7b"/><path d="M158.8,191.37s-.5,13.89-1.7,31.41c-1,14.7-2.51,31.94-4.62,45.68l-.06.38C148.63,293.16,131.84,350,131.84,350H121.22s8.75-54.9,10.67-79c4.87-60.87-7.33-67.76,3.7-81.18Z" style="fill:#0053cc"/><path d="M157.1,222.78c-1,14.7-2.51,31.94-4.62,45.68-3.59-17.85-9.49-43.92-1.57-61C152.8,212.31,155,217.79,157.1,222.78Z" style="fill:#004daa"/><path d="M167.14,191.92s9,53.35,8.46,77.09c-.53,24.69-9.58,81-9.58,81H155.5s1.67-54.87.74-79.12c-1-26.44-12.2-80.47-12.2-80.47Z" style="fill:#0053cc"/><polygon points="153.7 350.5 167.81 350.5 168.91 345.77 153.2 345.88 153.7 350.5" style="fill:#0f264c"/><polygon points="119.68 350.5 133.79 350.5 134.89 345.77 119.78 345.88 119.68 350.5" style="fill:#0f264c"/><path d="M135.23,188l-1.61,2.73c-.12.21.12.45.49.48l33.09,2.15c.28,0,.53-.11.56-.28l.47-2.81c0-.19-.2-.38-.51-.4l-31.95-2.08A.57.57,0,0,0,135.23,188Z" style="fill:#0f264c"/><path d="M139.29,191.84l-.86-.06c-.17,0-.29-.11-.28-.21l.64-3.64c0-.11.17-.18.34-.17l.86.06c.17,0,.29.11.28.21l-.64,3.64C139.62,191.77,139.46,191.85,139.29,191.84Z" style="fill:#0053cc"/><path d="M160,193.18l-.86-.06c-.17,0-.29-.11-.28-.21l.64-3.64c0-.11.17-.18.34-.17l.86.06c.17,0,.29.11.28.21l-.64,3.64C160.36,193.12,160.2,193.19,160,193.18Z" style="fill:#0053cc"/><path d="M175.68,153.31c1.2,4,2.34,8,3.45,12.09l3.35,12.09.42,1.5.11.37.05.18,0,.1a3.05,3.05,0,0,0,.13.39,6.06,6.06,0,0,0,1,1.68,16.29,16.29,0,0,0,4.1,3.16,52.41,52.41,0,0,0,11,4.44l-.57,3.9a41.73,41.73,0,0,1-13.08-2.82,20.77,20.77,0,0,1-6.29-3.88,12.38,12.38,0,0,1-2.61-3.42,10.18,10.18,0,0,1-.47-1.06l-.11-.27-.07-.19-.13-.38-.53-1.51q-2.09-6-3.93-12.06c-1.26-4-2.44-8.06-3.54-12.14Z" style="fill:#ff8b7b"/><path d="M173.89,145.27c4,1.31,8.2,14.39,8.2,14.39l-14.44,6.21s-6-14.68-3.34-18S169.3,143.77,173.89,145.27Z" style="fill:#9fc6ff"/><path d="M166.17,105.65c-2.56-3.15-22.25-5.4-23.31,3.18-7,4.9-.35,17.56.65,20.78-4.83,1.33-20.39,6.66-9.06,17s28.47,8.57,31.82-2.12c2.34-7.48-5.09-20-4.93-24.38S170.54,111,166.17,105.65Z" style="fill:#0f264c"/><path d="M144.89,131.19a.25.25,0,0,1-.19-.09c-1.81-2.21-8.1-13.76-5.89-19.27a4.79,4.79,0,0,1,4.23-3,.25.25,0,1,1,.06.5,4.32,4.32,0,0,0-3.82,2.66c-2.13,5.32,4,16.6,5.82,18.76a.25.25,0,0,1-.19.41Z" style="fill:#0f264c"/><path d="M159.83,119.64a6.61,6.61,0,0,0,2,3.82c1.42,1.36,2.76.42,2.89-1.3.12-1.55-.48-4.13-2.16-4.84S159.62,117.91,159.83,119.64Z" style="fill:#ff8b7b"/><path d="M194.39,188.24l5.69-1.93-.9,6.82s-2.23,1-5.13-1.51l-2.77-1.78,2.18-1.19A5.91,5.91,0,0,1,194.39,188.24Z" style="fill:#ff8b7b"/><polygon points="204.04 186.29 202.3 192.26 199.18 193.13 200.07 186.31 204.04 186.29" style="fill:#ff8b7b"/></g></svg>