<svg xmlns="http://www.w3.org/2000/svg" viewBox="0 0 500 400"><title>Mesa de trabajo 1</title><path d="M67.86,343.43c-34.52-22.72-51.69-68.66-46.94-111.1,2.09-18.67,7.9-37,7.47-55.76-.27-11.69-3-23.18-3.67-34.85C22,96.9,50.5,53.68,89.07,34.14s85-17.52,125-1.51c15.83,6.33,31.21,14.82,48,16.91,28.25,3.51,55.51-11.43,83.82-14.25C399.23,30,450.48,71.07,469.53,123.56s10.1,112.71-13.32,163.23c-12.83,27.67-32.13,55-60.42,63.21-10,2.91-20.56,3.2-31,3.18-53.84-.06-108.42-7.8-161.46,5.08C161.65,368.39,105.26,368.05,67.86,343.43Z" style="fill:#f3f3ff"/><path d="M273.11,138.06l-6-18.74-8.81,1.31a36.62,36.62,0,0,0-3.85-4.46l2.76-8.53-17.49-9L234.29,106a36.62,36.62,0,0,0-5.65-.45l-4.17-8.16-18.74,6,1.34,9.06a36.6,36.6,0,0,0-4.34,3.65L194,113.25l-9,17.49,7.2,5.34a36.59,36.59,0,0,0-.54,5.87l-7.93,4,6,18.74,8.56-1.27a36.61,36.61,0,0,0,4,4.77l-2.65,8.18,17.49,9,5-6.77a36.61,36.61,0,0,0,6.41.56l3.82,7.48,18.74-6-1.23-8.31a36.61,36.61,0,0,0,4.9-4.18l8,2.6,9-17.49-6.91-5.12a36.61,36.61,0,0,0,.46-6.2Zm-38,24.72A21.43,21.43,0,1,1,249,135.84,21.44,21.44,0,0,1,235.08,162.78Z" style="fill:#d7d2ff"/><path d="M257.17,139.48l-3.86-12.05-5.66.84a23.54,23.54,0,0,0-2.47-2.87l1.78-5.48-11.25-5.79-3.5,4.72a23.53,23.53,0,0,0-3.63-.29l-2.68-5.24-12.05,3.86.86,5.83a23.53,23.53,0,0,0-2.79,2.34l-5.59-1.81-5.79,11.25,4.63,3.43a23.54,23.54,0,0,0-.35,3.77l-5.1,2.6,3.86,12.05,5.51-.82a23.55,23.55,0,0,0,2.56,3.07l-1.7,5.26,11.25,5.79,3.23-4.35a23.57,23.57,0,0,0,4.12.36l2.46,4.81L243,166.9l-.79-5.34a23.54,23.54,0,0,0,3.15-2.69l5.16,1.67,5.79-11.25L251.91,146a23.56,23.56,0,0,0,.3-4Zm-24.45,15.9A13.78,13.78,0,1,1,241.64,138,13.78,13.78,0,0,1,232.71,155.38Z" style="fill:#e8e6fc"/><path d="M194.22,168.07V135.4L179.63,133a60.78,60.78,0,0,0-3.82-9l8.68-12.09-23.1-23.1-12.32,8.85a60.79,60.79,0,0,0-8.7-3.57l-2.46-15H105.24l-2.46,15a60.79,60.79,0,0,0-8.7,3.57L81.76,88.82l-23.1,23.1L67.34,124a60.78,60.78,0,0,0-3.82,9L48.93,135.4v32.67l14.18,2.33A60.77,60.77,0,0,0,67,180l-8.33,11.59,23.1,23.1,11.37-8.16a60.8,60.8,0,0,0,9.86,4.13l2.26,13.76h32.67l2.26-13.76a60.79,60.79,0,0,0,9.86-4.13l11.37,8.16,23.1-23.1L176.16,180A60.78,60.78,0,0,0,180,170.4Zm-72.64,19.84a35.59,35.59,0,1,1,35.59-35.59A35.59,35.59,0,0,1,121.57,187.91Z" style="fill:#c3b7fc"/><path d="M121.57,197.75a46,46,0,1,1,46-46A46.06,46.06,0,0,1,121.57,197.75Zm0-77a31,31,0,1,0,31,31A31,31,0,0,0,121.57,120.74Z" style="fill:#d7d2ff"/><path d="M428.48,174.79V150.15l-11-1.8a45.82,45.82,0,0,0-2.88-6.79l6.55-9.12L403.72,115l-9.29,6.67a45.85,45.85,0,0,0-6.56-2.69L386,107.68H361.37L359.51,119a45.85,45.85,0,0,0-6.56,2.69L343.66,115l-17.42,17.42,6.55,9.12a45.86,45.86,0,0,0-2.88,6.79l-11,1.8v24.64l10.7,1.75a45.82,45.82,0,0,0,2.92,7.21l-6.28,8.74,17.42,17.42,8.57-6.16a45.84,45.84,0,0,0,7.44,3.11l1.7,10.38H386l1.7-10.38a45.84,45.84,0,0,0,7.44-3.11l8.57,6.16,17.42-17.42-6.28-8.74a45.84,45.84,0,0,0,2.92-7.21Zm-54.79,15a26.84,26.84,0,1,1,26.84-26.84A26.84,26.84,0,0,1,373.69,189.76Z" style="fill:#d7d2ff"/><path d="M373.69,197.17a34.7,34.7,0,1,1,34.7-34.7A34.74,34.74,0,0,1,373.69,197.17Zm0-58.08a23.38,23.38,0,1,0,23.38,23.38A23.4,23.4,0,0,0,373.69,139.1Z" style="fill:#c3b7fc"/><path d="M93.24,333.87a31.72,31.72,0,0,0,2.72,4.2c7.9,10.27,23.13,14.12,34.93,9a23.74,23.74,0,0,0,2.25-1.11,26.29,26.29,0,0,0,3.31-2.2c9.86-7.63,12.56-21,11-34h0c-.22-1.84-.53-3.67-.91-5.48a58,58,0,0,0-8.8-21c-.43-.61-.87-1.2-1.32-1.78-.92-1.19-1.9-2.35-2.89-3.49-3.18-3.62-6.64-7-9.67-10.71-.81-1-1.59-2-2.32-3a34.22,34.22,0,0,1-4.39-7.92c-1.82-4.77-2.26-9.87-2.67-15-.16-2-.32-3.94-.55-5.91a49.23,49.23,0,0,0-1.08-6.18,44.34,44.34,0,0,0-5.51-12.61c-.78-1.26-1.61-2.49-2.48-3.69s-2-2.63-3-3.89a93.11,93.11,0,0,0-17-16h0q-1.56-1.14-3.18-2.22h0a94.32,94.32,0,0,0-10.2-5.93c-1.24-.63-2.5-1.22-3.77-1.79a92.71,92.71,0,0,0-14.08-5,18.86,18.86,0,0,0-5.08-.7h-.25a3,3,0,0,0-2.79,2.33,2.88,2.88,0,0,0,.75,2.71,46.55,46.55,0,0,1,8.59,12.37q.92,1.91,1.66,3.9A45.7,45.7,0,0,1,59,208.56q.28,2,.37,4c0,.06,0,.11,0,.17.28,6.69-.85,13.57-1.47,20.33-.15,1.53-.26,3.06-.32,4.57-.27,6,.22,11.83,2.85,17.24A29.51,29.51,0,0,0,63.66,260a56,56,0,0,0,4,4.56c3.87,4,8.15,7.83,11.24,12.48a39.2,39.2,0,0,1,5,11.27c.41,1.47.77,3,1.07,4.49,1,4.75,1.46,9.69,2,14.61q.22,2.13.47,4.25c.73,6.28,1.71,12.45,3.92,18.05A34.67,34.67,0,0,0,93.24,333.87Z" style="fill:#e08675"/><path d="M93.24,333.87l12.7.36,13.43.38c2.82.08,6,.53,8.91.4a52.28,52.28,0,0,1,2.62,12,23.74,23.74,0,0,0,2.25-1.11,26.29,26.29,0,0,0,3.31-2.2,63.5,63.5,0,0,0-2.7-10.56c1.68-1.61,2.69-4.08,3.83-6.06q3.23-5.64,6.44-11.3l3.44-6.06h0c-.22-1.84-.53-3.67-.91-5.48-1.67,2.8-3.3,5.61-4.94,8.41q-3.13,5.35-6.24,10.73c-1,1.71-2,3.42-3,5.12l-.27.43A101.64,101.64,0,0,0,125.63,316c-.92-1.56-1.88-3.09-2.86-4.61,1.25-1.72,1.94-4.2,2.7-5.84,1.68-3.67,3.38-7.34,5-11,1.75-3.85,3.47-7.72,5.21-11.57l.7-1.55c-.92-1.19-1.9-2.35-2.89-3.49-2.22,4.26-3.93,8.92-5.88,13.08-1.54,3.31-3.05,6.64-4.58,10-.8,1.75-1.59,3.5-2.4,5.24-.2.45-.37.85-.53,1.2-3.21-4.74-6.58-9.37-9.84-14.08a35.32,35.32,0,0,0,3.12-5.5c1.8-3.29,3.58-6.58,5.26-9.93,1.77-3.54,3.5-7.09,5.16-10.68-.81-1-1.59-2-2.32-3l-.15.3c-1.84,3.53-3.68,7.07-5.59,10.57-1.8,3.3-3.6,6.6-5.43,9.88a42.47,42.47,0,0,1-2.58,4.63,120.07,120.07,0,0,1-9.14-15.82,62.59,62.59,0,0,1-3-7.79c1.87-1.91,3.46-4.56,5-6.43,2.47-3.09,4.91-6.2,7.31-9.35,2.23-2.93,4.47-5.87,6.59-8.91-.16-2-.32-3.94-.55-5.91-3,3.76-5.86,7.67-8.8,11.49-2.18,2.84-4.36,5.67-6.59,8.48q-1.76,2.21-3.53,4.4c-.24.3-.51.69-.79,1.1a87.17,87.17,0,0,1-1.75-10.64c-.19-1.77-.36-3.54-.54-5.3a13.69,13.69,0,0,0,2.2-3.17q1.67-2.75,3.26-5.55c1.87-3.26,3.68-6.56,5.35-9.91,1.6-3.19,3.16-6.41,4.59-9.69-.78-1.26-1.61-2.49-2.48-3.69l-.2.41c-1.68,3.37-3.29,6.77-5.06,10.1-1.67,3.16-3.36,6.31-5.12,9.43q-1.32,2.33-2.69,4.64c-.18.31-.37.69-.58,1.09A78.78,78.78,0,0,0,89,227.51a81.63,81.63,0,0,0-7.32-17.69A12,12,0,0,0,82,208.6c.63-3,1.1-6.08,1.6-9.12.34-2.05.81-4.23,1.24-6.43h0q-1.56-1.14-3.18-2.22c-.33,1.66-.61,3.32-.94,4.88-.56,2.65-1.14,5.3-1.68,8-.06.3-.11.84-.18,1.45a82.53,82.53,0,0,0-8.31-10.74c.71-2.37.61-5.46.76-7.3.05-.71.1-1.44.15-2.18-1.24-.63-2.5-1.22-3.77-1.79,0,.86,0,1.72-.1,2.57-.13,1.71-.3,3.42-.52,5.12a74.58,74.58,0,0,0-12.92-10.1c-1.77-1.08-3.65-2.22-5.61-3.27h-.25a3,3,0,0,0-2.79,2.33L46,180a76.68,76.68,0,0,1,8.9,5.86,90.88,90.88,0,0,1,9.42,8.28c-3.14.31-6.29.51-9.44.69q.92,1.91,1.66,3.9,3.23-.26,6.45-.57a24.3,24.3,0,0,0,4.61-.49c1,1.09,1.89,2.2,2.79,3.35a76.93,76.93,0,0,1,5.24,7.57l-.22,0a108.6,108.6,0,0,0-16.39,0q.28,2,.37,4c0,.06,0,.11,0,.17,1.46-.14,2.94-.25,4.41-.31,3-.14,6-.15,9.07,0a41.61,41.61,0,0,0,5.11.34,73.94,73.94,0,0,1,7.87,23.94c.22,1.54.39,3.08.54,4.62-1.09-.31-2.21-.77-3-1l-5.6-1.56-10.64-3c-3.06-.86-6.15-1.8-9.25-2.7-.15,1.53-.26,3.06-.32,4.57,4,1.08,8.08,2.06,12,3.17l12.32,3.44c1.37.38,3.12,1.12,4.85,1.51.38,4.63.71,9.26,1.54,13.84.26,1.42.57,2.83.92,4.23-1.11-.21-2.26-.59-3-.73-1.78-.33-3.57-.64-5.36-.93q-5.1-.84-10.24-1.43c-2.32-.27-4.65-.53-7-.74a56,56,0,0,0,4,4.56c1.94.2,3.89.42,5.84.69q5.67.77,11.28,1.83a47.19,47.19,0,0,0,5.78,1.19,83.2,83.2,0,0,0,6.08,13.83c1.54,2.83,3.27,5.65,5.11,8.49a105.32,105.32,0,0,0-17.85-2.27c.41,1.47.77,3,1.07,4.49.66,0,1.32.07,2,.12q5.67.42,11.28,1.41c2.1.36,4.57,1.2,6.88,1.28,3.06,4.48,6.29,9,9.39,13.59-2.86-.13-5.75-.47-8.56-.63l-11.08-.63c-2.63-.15-5.26-.34-7.9-.52q.22,2.13.47,4.25c3.32.15,6.64.28,9.94.46l12.83.74,5.84.34,1.2.1A110.24,110.24,0,0,1,126.78,331h0l-23.94-.73c-3.79-.11-7.65-.39-11.51-.55A34.67,34.67,0,0,0,93.24,333.87Z" style="fill:#dd6e5c"/><path d="M125.43,324.58a45.4,45.4,0,0,1-6.34,20.23q-.84,1.39-1.77,2.69A29.44,29.44,0,0,1,104.47,358c-14.19,5.6-30.26,5.79-44-1.16-3.15-1.59-6.38-4.24-7.78-7.29a7.21,7.21,0,0,1-.7-3.53,6.55,6.55,0,0,1,.41-1.85,9.35,9.35,0,0,1,2.88-3.71,17.64,17.64,0,0,1,9.58-4c-11.86-1.28-24.45-4.57-32.06-13.77A12.9,12.9,0,0,1,30,317.63a6.5,6.5,0,0,1,0-3,4.81,4.81,0,0,1,.14-.47A8.11,8.11,0,0,1,36,309.26a23.34,23.34,0,0,1,8.4,0,40.39,40.39,0,0,1-23.07-28.68c-.68-3.43-.65-7.42.85-10.43a8.15,8.15,0,0,1,2-2.58,7.6,7.6,0,0,1,1.17-.83c3.35-1.93,7.59-1,11.22.39a67.6,67.6,0,0,1,24.05,15.35,15.32,15.32,0,0,1-.26-10.22,9.82,9.82,0,0,1,7.52-6.48l.24,0a9.08,9.08,0,0,1,4,.49c3,1,5.73,3.46,8,5.85a107.05,107.05,0,0,1,17.78,25.32,20.53,20.53,0,0,1,3.45-6.71,8.29,8.29,0,0,1,3.23-2.26,5.76,5.76,0,0,1,3.33-.28l.19,0a9.19,9.19,0,0,1,3.62,2.31A43.48,43.48,0,0,1,125.43,324.58Z" style="fill:#efc45e"/><path d="M105.57,337.9c4.41,2.49,8.92,4.81,13.53,6.91q5.29,2.42,10.75,4.45c1.92.71,1,3.77-.92,3.06q-5.89-2.19-11.6-4.81-7.69-3.53-15-7.79a55.06,55.06,0,0,1-10.81,6.57,57.83,57.83,0,0,1-38.84,3.29,7.21,7.21,0,0,1-.7-3.53A54.23,54.23,0,0,0,99.34,338a233.19,233.19,0,0,1-26.16-18.48A58.24,58.24,0,0,1,30,317.63a6.5,6.5,0,0,1,0-3,4.81,4.81,0,0,1,.14-.47,55.36,55.36,0,0,0,40.16,3q-6.14-5.1-12-10.49c-12.63-11.57-24.43-24-36.11-36.5a8.15,8.15,0,0,1,2-2.58C30,273.86,35.94,280.16,42,286.35a379.41,379.41,0,0,0,35.28,32.34c2-9.31.45-19.12-.9-28.42A66.32,66.32,0,0,0,68,265.72a9.08,9.08,0,0,1,4,.49q1.25,2.27,2.31,4.65c3.71,8.36,5,17.16,6.16,26.17,1,7.93,1.55,16-.45,23.81,1.29,1,2.58,2,3.89,2.94A215.76,215.76,0,0,0,102.8,336.3,57.12,57.12,0,0,0,107,324.61a60.23,60.23,0,0,0-2.55-36.19,5.76,5.76,0,0,1,3.33-.28c.28.74.55,1.49.8,2.24A63.07,63.07,0,0,1,105.57,337.9Z" style="fill:#f7e5bd"/><path d="M406.65,337.51a32.8,32.8,0,0,1-3,4.22c-8.58,10.28-24.45,13.64-36.43,7.84a24.53,24.53,0,0,1-2.28-1.24,27.14,27.14,0,0,1-3.33-2.4c-9.88-8.27-12.12-22.16-10-35.54h0c.31-1.89.69-3.77,1.16-5.62a60,60,0,0,1,9.93-21.36q.7-.91,1.44-1.79c1-1.19,2.06-2.35,3.13-3.49,3.43-3.61,7.14-7,10.42-10.67.87-1,1.72-2,2.51-3a35.36,35.36,0,0,0,4.86-8c2.07-4.86,2.73-10.1,3.36-15.37.25-2,.49-4.06.8-6.08a50.83,50.83,0,0,1,1.36-6.33,45.81,45.81,0,0,1,6.2-12.79c.85-1.27,1.76-2.51,2.71-3.71s2.14-2.64,3.26-3.9A96.2,96.2,0,0,1,421,192.46h0q1.66-1.11,3.37-2.16h0a97.44,97.44,0,0,1,10.77-5.71c1.31-.6,2.63-1.16,4-1.7a95.75,95.75,0,0,1,14.73-4.57,19.48,19.48,0,0,1,5.27-.52h.26a3.07,3.07,0,0,1,2.79,2.52,3,3,0,0,1-.89,2.77,48.1,48.1,0,0,0-9.37,12.42q-1,1.93-1.87,4a47.23,47.23,0,0,0-3,10.06q-.37,2.05-.54,4.13c0,.06,0,.12,0,.18-.56,6.89.33,14,.69,21,.09,1.59.15,3.17.15,4.73,0,6.21-.71,12.2-3.64,17.68a30.47,30.47,0,0,1-3.53,5.15,57.87,57.87,0,0,1-4.29,4.55c-4.16,4-8.73,7.76-12.11,12.43a40.5,40.5,0,0,0-5.61,11.44c-.48,1.5-.91,3-1.29,4.59-1.18,4.87-1.9,9.94-2.64,15q-.32,2.19-.65,4.37c-1,6.46-2.27,12.78-4.77,18.48A35.82,35.82,0,0,1,406.65,337.51Z" style="fill:#5f5ea5"/><path d="M406.65,337.51l-13.12-.15-13.88-.15c-2.91,0-6.18.31-9.21.06a54,54,0,0,0-3.19,12.31,24.53,24.53,0,0,1-2.28-1.24,27.14,27.14,0,0,1-3.33-2.4,65.61,65.61,0,0,1,3.22-10.79c-1.67-1.73-2.61-4.32-3.71-6.41q-3.11-6-6.19-11.93l-3.31-6.4h0c.31-1.89.69-3.77,1.16-5.62,1.61,3,3.18,5.92,4.76,8.88q3,5.65,6,11.33c1,1.8,1.89,3.61,2.84,5.41l.26.45a105,105,0,0,1,7.25-13.09c1-1.57,2.06-3.11,3.13-4.65-1.22-1.82-1.84-4.41-2.55-6.13-1.59-3.85-3.19-7.71-4.77-11.57-1.65-4-3.27-8.11-4.91-12.16l-.66-1.63c1-1.19,2.06-2.35,3.13-3.49,2.12,4.48,3.7,9.37,5.54,13.74,1.46,3.48,2.88,7,4.32,10.47.76,1.84,1.5,3.68,2.26,5.51.19.47.34.89.5,1.26,3.5-4.76,7.17-9.41,10.72-14.14a36.5,36.5,0,0,1-3-5.81c-1.73-3.47-3.43-6.94-5-10.47-1.68-3.73-3.33-7.47-4.9-11.24.87-1,1.72-2,2.51-3,0,.11.09.21.14.31,1.76,3.72,3.51,7.45,5.34,11.14,1.73,3.48,3.45,7,5.21,10.42a43.83,43.83,0,0,0,2.48,4.89,124,124,0,0,0,10.08-16,64.68,64.68,0,0,0,3.43-7.92c-1.86-2-3.39-4.85-4.86-6.83-2.42-3.29-4.82-6.6-7.17-9.95-2.18-3.11-4.38-6.25-6.44-9.46.25-2,.49-4.06.8-6.08,3,4,5.74,8.16,8.62,12.22,2.14,3,4.28,6,6.46,9q1.73,2.35,3.47,4.69c.24.32.49.73.77,1.17a90,90,0,0,0,2.24-10.92c.27-1.82.51-3.64.77-5.45a14.16,14.16,0,0,1-2.14-3.36q-1.61-2.91-3.15-5.86c-1.8-3.44-3.53-6.92-5.13-10.45-1.52-3.36-3-6.75-4.35-10.19.85-1.27,1.76-2.51,2.71-3.71l.19.43c1.6,3.55,3.13,7.12,4.82,10.63,1.6,3.33,3.21,6.65,4.91,9.94q1.26,2.46,2.59,4.9c.18.33.36.73.55,1.15a81.4,81.4,0,0,1,2.68-11.37,84.35,84.35,0,0,1,8.28-18,12.36,12.36,0,0,1-.27-1.27c-.53-3.14-.89-6.32-1.28-9.48-.26-2.13-.67-4.4-1-6.69h0q1.66-1.11,3.37-2.16c.27,1.73.5,3.45.78,5.08.48,2.76,1,5.52,1.41,8.28,0,.32.08.87.13,1.51a85.29,85.29,0,0,1,9-10.75c-.64-2.47-.41-5.66-.49-7.57,0-.73,0-1.49-.07-2.26,1.31-.6,2.63-1.16,4-1.7,0,.89,0,1.78,0,2.66.07,1.77.17,3.55.33,5.31a77.06,77.06,0,0,1,13.75-9.91c1.87-1,3.86-2.14,5.93-3.15h.26a3.07,3.07,0,0,1,2.79,2.52l-.49.24a79.25,79.25,0,0,0-9.42,5.7,93.91,93.91,0,0,0-10.06,8.17c3.23.45,6.47.78,9.72,1.09q-1,1.93-1.87,4-3.32-.39-6.63-.85a25.12,25.12,0,0,1-4.74-.7c-1,1.09-2,2.19-3,3.34a79.44,79.44,0,0,0-5.71,7.6l.23,0a112.2,112.2,0,0,1,16.92.68q-.37,2.05-.54,4.13c0,.06,0,.12,0,.18q-2.26-.31-4.54-.5c-3.11-.26-6.24-.4-9.36-.41a43,43,0,0,1-5.29.14,76.4,76.4,0,0,0-9.09,24.4c-.29,1.58-.53,3.16-.75,4.75,1.14-.27,2.31-.71,3.13-.91l5.84-1.38,11.11-2.63c3.2-.76,6.42-1.61,9.66-2.41.09,1.59.15,3.17.15,4.73-4.2,1-8.42,1.81-12.54,2.78l-12.86,3c-1.43.34-3.26,1-5.07,1.37-.58,4.76-1.1,9.53-2.15,14.22-.33,1.46-.7,2.9-1.12,4.33,1.16-.18,2.36-.52,3.12-.63,1.85-.27,3.71-.52,5.57-.75q5.3-.66,10.63-1.07c2.4-.19,4.82-.36,7.26-.48a57.87,57.87,0,0,1-4.29,4.55c-2,.13-4,.28-6.06.47q-5.88.57-11.72,1.43a48.78,48.78,0,0,1-6,1,86,86,0,0,1-6.84,14c-1.7,2.86-3.6,5.7-5.61,8.56a108.79,108.79,0,0,1,18.52-1.62c-.48,1.5-.91,3-1.29,4.59-.68,0-1.36,0-2,0q-5.87.21-11.7,1c-2.18.29-4.77,1.05-7.16,1-3.34,4.5-6.85,9-10.24,13.65,3,0,6-.25,8.87-.3l11.47-.2c2.72-.05,5.44-.14,8.17-.22q-.32,2.19-.65,4.37c-3.44,0-6.87,0-10.28.08l-13.28.25-6,.11-1.24.05a113.91,113.91,0,0,0-10.61,17.88h0l24.75.22c3.92,0,7.91-.09,11.9-.11A35.82,35.82,0,0,1,406.65,337.51Z" style="fill:#8690f1"/><path d="M365.49,322.64a47.46,47.46,0,0,0,5.27,21.52q.78,1.5,1.67,2.92a30.77,30.77,0,0,0,12.71,11.82c14.43,6.78,31.18,8.05,46,1.72,3.39-1.45,6.94-4,8.6-7.08a7.53,7.53,0,0,0,1-3.64,6.85,6.85,0,0,0-.31-2,9.77,9.77,0,0,0-2.76-4.06,18.44,18.44,0,0,0-9.73-4.8c12.46-.55,25.81-3.14,34.36-12.23a13.48,13.48,0,0,0,3.21-5.13,6.79,6.79,0,0,0,.23-3.14,4.94,4.94,0,0,0-.11-.49c-.69-2.65-3.14-4.65-5.78-5.49-2.8-.9-5.82-.75-8.76-.6a42.21,42.21,0,0,0,26-28.38c.94-3.53,1.17-7.7-.19-10.93a8.52,8.52,0,0,0-1.87-2.82,8,8,0,0,0-1.16-.94c-3.37-2.24-7.85-1.5-11.73-.34A70.66,70.66,0,0,0,436,283a16,16,0,0,0,1-10.64,10.26,10.26,0,0,0-7.41-7.26l-.25,0a9.49,9.49,0,0,0-4.18.25c-3.22.89-6.21,3.23-8.74,5.58a111.9,111.9,0,0,0-20.23,25.24,21.46,21.46,0,0,0-3.15-7.23,8.67,8.67,0,0,0-3.22-2.58,6,6,0,0,0-3.46-.51l-.2,0a9.61,9.61,0,0,0-3.93,2.17A45.45,45.45,0,0,0,365.49,322.64Z" style="fill:#e08675"/><path d="M385.33,337.85c-4.76,2.31-9.62,4.43-14.57,6.31q-5.67,2.17-11.5,3.93c-2.05.61-1.3,3.87.76,3.25q6.29-1.89,12.42-4.25,8.26-3.17,16.19-7.13a57.55,57.55,0,0,0,10.84,7.57,60.45,60.45,0,0,0,40.29,6,7.53,7.53,0,0,0,1-3.64,56.68,56.68,0,0,1-48.9-11.57,243.74,243.74,0,0,0,28.52-17.54,60.88,60.88,0,0,0,45.15.93,6.79,6.79,0,0,0,.23-3.14,4.94,4.94,0,0,0-.11-.49,57.87,57.87,0,0,1-42.08.41q6.74-4.91,13.23-10.15c13.94-11.23,27.08-23.4,40.09-35.67a8.52,8.52,0,0,0-1.87-2.82c-6.58,6.21-13.19,12.38-19.91,18.43a396.53,396.53,0,0,1-38.94,31.39c-1.51-9.84.8-20,2.82-29.59a69.32,69.32,0,0,1,10.33-25,9.49,9.49,0,0,0-4.18.25q-1.46,2.28-2.72,4.69c-4.43,8.47-6.4,17.57-8.16,26.89-1.55,8.2-2.68,16.59-1.11,24.87-1.41.95-2.82,1.89-4.25,2.81a225.49,225.49,0,0,1-20.53,11.81,59.71,59.71,0,0,1-3.63-12.48,63,63,0,0,1,5.06-37.58,6,6,0,0,0-3.46-.51c-.34.75-.67,1.52-1,2.28A65.92,65.92,0,0,0,385.33,337.85Z" style="fill:#fff"/><rect x="115.18" y="175.53" width="271.48" height="185.48" rx="9.23" ry="9.23" style="fill:#e9e9ff"/><rect x="130.2" y="190.03" width="241.43" height="164.76" style="fill:#363271"/><path d="M421.37,352.18v9.37c0,4.28-3.77,7.75-8.42,7.75H88.88c-4.65,0-8.42-3.47-8.42-7.75v-9.37c0-4.28,3.77-7.75,8.42-7.75H413C417.6,344.43,421.37,347.9,421.37,352.18Z" style="fill:#c3b7fc"/><path d="M278.9,344.43v.86a7.43,7.43,0,0,1-7.43,7.43h-41.1a7.43,7.43,0,0,1-7.43-7.43v-.86Z" style="fill:#f1f1f1"/><text transform="translate(176.93 288.77)" style="font-size:107.62904357910156px;fill:#fff;font-family:Boogaloo-Regular, Boogaloo;letter-spacing:-0.025999857944416005em">404</text><text transform="translate(167.89 322.47)" style="font-size:24.774639129638672px;fill:#fff;font-family:Barlow-Regular, Barlow"><tspan style="letter-spacing:-0.002995755038514761em">P</tspan><tspan x="14.59" y="0">age n</tspan><tspan x="72.04" y="0" style="letter-spacing:-0.005991510077029522em">o</tspan><tspan x="85.42" y="0" style="letter-spacing:0.00003941782945414159em">t </tspan><tspan x="99.39" y="0" style="letter-spacing:-0.040009096895953715em">F</tspan><tspan x="112.48" y="0" style="letter-spacing:0.00003941782945414159em">ound</tspan></text><rect x="392.35" y="302.54" width="11.12" height="19.16" transform="translate(-99.16 218.97) rotate(-27.5)" style="fill:#514e92"/><g style="opacity:0.33"><path d="M357.61,226.9l12.84,79.28a41.45,41.45,0,0,1-12.07-2.74L347,233.29a41.54,41.54,0,0,1,7.36-4.89Q356,227.58,357.61,226.9Z" style="fill:#fff"/><path d="M390,227.2l11.09,68.48a41.56,41.56,0,0,1-18.22,9.52l-13.16-81.3A41.4,41.4,0,0,1,390,227.2Z" style="fill:#fff"/></g><path d="M418.12,241.75a50.38,50.38,0,0,0-67.78-21.52l-.18.09a50.38,50.38,0,0,0,46.52,89.38l.17-.09A50.38,50.38,0,0,0,418.12,241.75Zm-17.06,53.93a41.28,41.28,0,1,1-46.68-67.28q1.59-.83,3.23-1.51a41,41,0,0,1,12.07-3,41.28,41.28,0,0,1,31.38,71.78Z" style="fill:#e9a82f"/><path d="M391.25,298.83l-.17.09a38.23,38.23,0,1,1-35.3-67.82L356,231a38.23,38.23,0,0,1,35.3,67.82Z" style="fill:#fff;opacity:0.13"/><path d="M411.16,314.59l26.73,51.35a10.74,10.74,0,0,1-4.29,14.4l0,0A10.68,10.68,0,0,1,419,375.9l-26.79-51.48a4.88,4.88,0,0,1,2.08-6.59l10.24-5.33A4.88,4.88,0,0,1,411.16,314.59Z" style="fill:#e9a82f"/><path d="M339.52,282.66a38.23,38.23,0,0,0,51.56,16.26l.17-.09,5.61,10.78-.17.09a50.38,50.38,0,1,1-46.52-89.38l.18-.09L356,231l-.18.09A38.23,38.23,0,0,0,339.52,282.66Z" style="fill:#efc45e"/><path d="M394.33,317.84l5.3-2.76,34,65.26,0,0A10.68,10.68,0,0,1,419,375.9l-26.79-51.48A4.88,4.88,0,0,1,394.33,317.84Z" style="fill:#efc45e"/><path d="M410,246a41.23,41.23,0,0,0-52.43-19.06q-1.64.68-3.23,1.51a41.27,41.27,0,0,0,16.07,77.77A41.26,41.26,0,0,0,410,246Zm-18.78,52.87-.17.09a38.23,38.23,0,1,1-35.3-67.82L356,231a38.23,38.23,0,0,1,35.3,67.82Z" style="fill:#e79b24"/><path d="M146.56,262.18c-1.77-3.06-4.07-6-4.68-9.23-1.88-9.85,3.78-23.74-7.48-30-5.37-3-12.43-2.53-17.67.49a14.79,14.79,0,0,0-7.48,11.31,117,117,0,0,0,0,15c.51,5.69-.74,5.76-3.68,10.62-2,3.35-4.26,7.42-2.63,11.41a7,7,0,0,0,5.18,4.16c2,.35,4.38-.17,6,1.07s2,3.25,3.56,4.39c2.14,1.57,6.09,2,8.67,2a11.11,11.11,0,0,0,8-3.31c3.23-3.57,3.83-3.31,8.49-4.11a7,7,0,0,0,5.18-4.16C149.52,268.3,148.3,265.2,146.56,262.18Z" style="fill:#4d4d96"/><path d="M120.77,363.18l-.45,15.66c0,.23,0,.46,0,.7a12.84,12.84,0,0,1-.55,3.48,22.64,22.64,0,0,1-4.8,6.84c-1.3,1.19-3.6,2.19-5.41,1.48a3.17,3.17,0,0,1-1-.6c-2.5-2.25.52-5.8,2.36-8.38a8.88,8.88,0,0,0,1.11-1.86c.52-1.41.65-17.57.74-17.57Z" style="fill:#f0c9a1"/><path d="M120.29,379.54a12.84,12.84,0,0,1-.55,3.48,22.64,22.64,0,0,1-4.8,6.84c-1.3,1.19-3.6,2.19-5.41,1.48a3.17,3.17,0,0,1-1-.6c-2.5-2.25.52-5.8,2.36-8.38a4.9,4.9,0,0,0,0,2.09,2.73,2.73,0,0,0,3.39,1.32,6.23,6.23,0,0,0,3-2.6,17.5,17.5,0,0,1,2.4-3.21A2.17,2.17,0,0,1,120.29,379.54Z" style="fill:#8690f1"/><path d="M133.5,363.18l.45,15.66c0,.23,0,.46,0,.7a12.84,12.84,0,0,0,.55,3.48,22.65,22.65,0,0,0,4.8,6.84c1.3,1.19,3.6,2.19,5.41,1.48a3.17,3.17,0,0,0,1-.6c2.5-2.25-.52-5.8-2.36-8.38a8.88,8.88,0,0,1-1.11-1.86c-.52-1.41-.65-17.57-.74-17.57Z" style="fill:#f0c9a1"/><path d="M134,379.54a12.84,12.84,0,0,0,.55,3.48,22.65,22.65,0,0,0,4.8,6.84c1.3,1.19,3.6,2.19,5.41,1.48a3.17,3.17,0,0,0,1-.6c2.5-2.25-.52-5.8-2.36-8.38a4.9,4.9,0,0,1,0,2.09,2.73,2.73,0,0,1-3.39,1.32,6.24,6.24,0,0,1-3-2.6,17.49,17.49,0,0,0-2.4-3.21A2.17,2.17,0,0,0,134,379.54Z" style="fill:#8690f1"/><path d="M142.77,297.86c-8.75.36-23.84.86-25.71.88-3,0-5.29,0-7.13.06q-.13,1.9-.25,3.8c-.26,4.06-5.47,70.76-4.5,72s11.16,1.42,17.76,1.27c.14-3.34,1.56-50.93,2-65.91h2.69c1.18,18.88,1.84,46.52,3,65.25,6.57-.47,17-1,17.07-1.68C148.19,363.48,143.6,320.81,142.77,297.86Z" style="fill:#dd6e5c"/><path d="M142.77,297.86c-8.75.36-23.84.86-25.71.88-3,0-5.29,0-7.13.06.62-9,1.41-22.07,2.66-31a26.8,26.8,0,0,1,.92-4.24,12.9,12.9,0,0,1,4.88-7.08,14,14,0,0,1,12.13-1.89c3.74,1.23,6.57,4.37,8.22,7.88a37.73,37.73,0,0,1,2.79,11.23C142,277.59,142.45,289,142.77,297.86Z" style="fill:#fff"/><path d="M140.36,286.81a126,126,0,0,1-28.63.68,2.08,2.08,0,0,0-2,2.08,2.11,2.11,0,0,0,2.08,2,126,126,0,0,0,28.63-.68,2.13,2.13,0,0,0,2-2.08A2.08,2.08,0,0,0,140.36,286.81Z" style="fill:#dfdbfc"/><path d="M137.6,276.35a230.87,230.87,0,0,1-25.87.37c-2.66-.11-2.62,4,0,4.13a230.84,230.84,0,0,0,25.87-.37C140.27,280.29,140.26,276.16,137.6,276.35Z" style="fill:#dfdbfc"/><path d="M136.25,266.21c-3.23,1.06-6.77.63-10.11.54l-10.84-.31c-2.66-.07-2.62,4.05,0,4.13l11.38.32c3.55.1,7.23.42,10.66-.71C139.89,269.35,138.78,265.37,136.25,266.21Z" style="fill:#dfdbfc"/><path d="M181.85,265c.78-.31,1.67-.81,1.72-1.65a1.55,1.55,0,0,0-.73-1.32,3.84,3.84,0,0,0-1.48-.52,16,16,0,0,0-6,0,3.62,3.62,0,0,0-.19-1.83,1.25,1.25,0,0,0-1.52-.71c-.6.27-.71,1-1,1.65a7.14,7.14,0,0,1-1.94,2.28,3.78,3.78,0,0,0-1.44,2.56,3,3,0,0,0,1.17,2.19c2,1.67,3.12.34,5.15-.48S179.82,265.77,181.85,265Z" style="fill:#f0c9a1"/><path d="M175.55,267.34a14,14,0,0,0-3.07-2.8,26.65,26.65,0,0,0-3-1.75,77.33,77.33,0,0,1-12.9,12.69c-1.26,1-2.84,2.09-4,2-1.57-.07-3.27-2.32-4.57-4.28-2.84-4.25-5.38-9.4-8.65-13.45-.62-.76-8.07-7.08-8.37-4.2-.24,2.34.91,17.57,1.36,24.49l2.7,41.5c.13,2,1.05,23,1.49,23a99.71,99.71,0,0,0,13.16-.21c-3.42-21.27-4.94-42.74-6.15-64.2,1.92,2.24,4.72,4.56,8.66,4.73h.46c3.61,0,6.53-1.88,8.92-3.74a85.06,85.06,0,0,0,14-13.74Z" style="fill:#8690f1"/><path d="M70.23,265.24c-.78-.31-1.67-.81-1.72-1.65a1.55,1.55,0,0,1,.73-1.32,3.85,3.85,0,0,1,1.48-.52,16,16,0,0,1,6,0,3.62,3.62,0,0,1,.18-1.83,1.25,1.25,0,0,1,1.52-.71c.6.27.71,1,1,1.65a7.14,7.14,0,0,0,1.94,2.28,3.78,3.78,0,0,1,1.44,2.56,3,3,0,0,1-1.17,2.19c-2,1.67-3.12.34-5.15-.48S72.26,266,70.23,265.24Z" style="fill:#f0c9a1"/><path d="M121.06,255.87c-.23-2.24-4.46,1.19-5.05,1.65a24.18,24.18,0,0,0-5.47,6.29l-6.48,9.7c-1.31,2-3,4.21-4.57,4.28-1.14.05-2.73-1.07-4-2a77.34,77.34,0,0,1-12.9-12.69,26.61,26.61,0,0,0-3,1.75,14,14,0,0,0-3.07,2.8l-.06.08a85.07,85.07,0,0,0,14,13.74c2.39,1.86,5.31,3.74,8.92,3.74h.46c3.94-.17,6.74-2.49,8.66-4.73-1.21,21.46-2.74,42.93-6.15,64.2a99.71,99.71,0,0,0,13.16.21c.44,0,1.36-21,1.49-23l2.7-41.5C120.15,273.45,121.31,258.21,121.06,255.87Z" style="fill:#8690f1"/><path d="M130.18,244.46v12a4.27,4.27,0,0,1-8.53,0v-12Z" style="fill:#f0c9a1"/><path d="M130.18,246.73V255a18,18,0,0,1-5.57.91,11,11,0,0,1-3-.45v-7.35a10.79,10.79,0,0,1,1.5-.57A19.41,19.41,0,0,1,130.18,246.73Z" style="fill:#e9b588"/><path d="M114.41,240.47c0,7.68,4.07,13.9,10.46,13.9s11.56-6.22,11.56-13.9-5.18-13.9-11.56-13.9S114.41,232.8,114.41,240.47Z" style="fill:#f0c9a1"/><ellipse cx="136.71" cy="242.54" rx="4.13" ry="3.3" transform="translate(-130.94 319.22) rotate(-76.58)" style="fill:#f0c9a1"/><ellipse cx="113.86" cy="242.54" rx="3.3" ry="4.13" transform="translate(-53.18 33.05) rotate(-13.42)" style="fill:#f0c9a1"/><path d="M116.52,226.31a12.86,12.86,0,0,0-5.14,7,4.26,4.26,0,0,0,0,2.67,2.8,2.8,0,0,0,2.77,1.62,6.83,6.83,0,0,0,3.11-1.23,37,37,0,0,0,5.75-4.42c-.61,1.21-1.21,2.74-.53,3.9.84,1.44,2.83,1,4.22.25a21.27,21.27,0,0,0,4-2.86c-.25,1.36,1.09,2.46,2.32,2.66a4.69,4.69,0,0,0,4.37-1.73,5.36,5.36,0,0,0,.8-5,7.25,7.25,0,0,0-2.47-3.05C129.51,221.19,122.7,222,116.52,226.31Z" style="fill:#4d4d96"/></svg>