<svg xmlns="http://www.w3.org/2000/svg" viewBox="0 0 500 400"><title>notfound</title><path d="M240.47,77.1c48.1,5.38,69.22-36.32,116.88-30.86,42.54,4.87,71.88,35.18,61.95,76-8.81,36.24-50.81,47.61-65.74,81.56-15.83,36-28.1,74.79-75.9,87.32-93.85,24.6-139.44-90.88-145.83-157.21-2.45-25.46-6.73-86.33,26.5-94.21C191.79,31.76,211,73.8,240.47,77.1Z" style="fill:#a1d9ff;opacity:0.15"/><ellipse cx="250" cy="366.24" rx="193.89" ry="11.32" style="fill:#c1c1c1;opacity:0.12"/><rect x="103.78" y="152.37" width="1" height="18.49" transform="translate(-11.34 7.91) rotate(-4.12)" style="fill:#407bff"/><rect x="105.38" y="180.35" width="1" height="6.96" transform="translate(-12.94 8.08) rotate(-4.12)" style="fill:#407bff"/><path d="M337.71,265.16H123.55a9.65,9.65,0,0,1-9.44-8.81L103.59,110.22a8.11,8.11,0,0,1,8.17-8.81H325.92a9.65,9.65,0,0,1,9.44,8.81l10.52,146.13A8.11,8.11,0,0,1,337.71,265.16Z" style="fill:#407bff"/><path d="M338.53,265.16H124.37a9.65,9.65,0,0,1-9.44-8.81L104.41,110.22a8.11,8.11,0,0,1,8.17-8.81H326.74a9.65,9.65,0,0,1,9.44,8.81L346.7,256.35A8.11,8.11,0,0,1,338.53,265.16Z" style="fill:#407bff"/><path d="M338.53,265.16H124.37a9.65,9.65,0,0,1-9.44-8.81L104.41,110.22a8.11,8.11,0,0,1,8.17-8.81H326.74a9.65,9.65,0,0,1,9.44,8.81L346.7,256.35A8.11,8.11,0,0,1,338.53,265.16Z" style="fill:#fff;opacity:0.5"/><path d="M327.06,105.82H112.9l-.72,0c-5.47.45-4.36,8.78,1.17,8.78H327.87c5.53,0,5.44-8.33-.1-8.78Z" style="fill:#407bff"/><path d="M118.48,110.22a1.85,1.85,0,0,1-1.87,2,2.2,2.2,0,0,1-2.16-2,1.85,1.85,0,0,1,1.87-2A2.2,2.2,0,0,1,118.48,110.22Z" style="fill:#fafafa"/><path d="M125.35,110.22a1.85,1.85,0,0,1-1.87,2,2.2,2.2,0,0,1-2.16-2,1.85,1.85,0,0,1,1.87-2A2.2,2.2,0,0,1,125.35,110.22Z" style="fill:#fafafa"/><path d="M132.21,110.22a1.85,1.85,0,0,1-1.87,2,2.21,2.21,0,0,1-2.16-2,1.85,1.85,0,0,1,1.87-2A2.2,2.2,0,0,1,132.21,110.22Z" style="fill:#fafafa"/><path d="M332.85,250.58H128a3.49,3.49,0,0,1-3.42-3.19l-8.65-120.17a2.93,2.93,0,0,1,3-3.19h204.9a3.49,3.49,0,0,1,3.42,3.19l8.65,120.17A2.93,2.93,0,0,1,332.85,250.58Z" style="fill:#fff"/><polygon points="246.53 204.8 243.19 158.48 233.09 152.4 205.28 152.4 209.06 204.8 246.53 204.8" style="fill:#fff"/><path d="M246.53,205.28H209.06a.48.48,0,0,1-.48-.45l-3.77-52.4a.48.48,0,0,1,.48-.52h27.8a.49.49,0,0,1,.25.07l10.11,6.08a.49.49,0,0,1,.23.38L247,204.76a.48.48,0,0,1-.48.52Zm-37-1H246l-3.28-45.55L233,152.88H205.8Z" style="fill:#407bff"/><polygon points="243.19 158.48 233.09 152.4 236.8 160.46 243.19 158.48" style="fill:#ebebeb"/><path d="M236.8,160.94a.49.49,0,0,1-.44-.28l-3.71-8.06a.48.48,0,0,1,.69-.62l10.11,6.08a.48.48,0,0,1-.11.88l-6.4,2Zm-2.61-7.32,2.88,6.24,5-1.53Z" style="fill:#407bff"/><path d="M221,176a1.94,1.94,0,0,1-2,2.12,2.31,2.31,0,0,1-2.27-2.12,1.94,1.94,0,0,1,2-2.12A2.31,2.31,0,0,1,221,176Z" style="fill:#407bff"/><path d="M234.7,176a1.94,1.94,0,0,1-2,2.12,2.31,2.31,0,0,1-2.27-2.12,1.94,1.94,0,0,1,2-2.12A2.31,2.31,0,0,1,234.7,176Z" style="fill:#407bff"/><path d="M238.58,189.74a.48.48,0,0,1-.48-.45c-.25-3.4-5.58-6.17-11.9-6.17-4.18,0-7.94,1.24-9.81,3.25a3.74,3.74,0,0,0-1.14,2.86.48.48,0,0,1-1,.07,4.73,4.73,0,0,1,1.4-3.59c2-2.19,6.07-3.56,10.52-3.56,6.93,0,12.58,3.11,12.87,7.07a.48.48,0,0,1-.45.52Z" style="fill:#407bff"/><path d="M213.17,171.72a.48.48,0,0,1-.36-.81l2.12-2.29a.48.48,0,1,1,.71.66l-2.12,2.29A.48.48,0,0,1,213.17,171.72Z" style="fill:#407bff"/><path d="M237.58,171.72a.48.48,0,0,1-.33-.13l-2.45-2.29a.48.48,0,0,1,.66-.71l2.45,2.29a.48.48,0,0,1-.33.84Z" style="fill:#407bff"/><path d="M220,225.46c-.08-1.14-.1-2.5-.1-3.66a24.68,24.68,0,0,0-2.74.24l-2.38-1.62a40.18,40.18,0,0,1,4.86-8.4l3.3.32s-.48,3.76-.6,7.26l1.28.12-.28,2.1h-1c0,1.22,0,2.6.1,3.84Zm-.08-5.88c.1-1.92.28-3.6.48-4.94-1.06,1.84-2.18,4-2.64,5.08A15.66,15.66,0,0,1,219.95,219.58Z" style="fill:#407bff"/><path d="M229.29,212.2c2.9,0,4,3,4,6.5s-2.06,6.72-4.08,6.72c-2.6,0-4.12-2.2-4.12-5.4C225.11,216.36,226.61,212.2,229.29,212.2Zm-.06,11c.72,0,1.48-2.16,1.48-4.52s-.38-4.3-1.42-4.3-1.58,3-1.58,5.62C227.71,221.9,228.27,223.22,229.23,223.22Z" style="fill:#407bff"/><path d="M239.39,225.46c-.08-1.14-.1-2.5-.1-3.66a24.68,24.68,0,0,0-2.74.24l-2.38-1.62A40.18,40.18,0,0,1,239,212l3.3.32s-.48,3.76-.6,7.26l1.28.12-.28,2.1h-1c0,1.22,0,2.6.1,3.84Zm-.08-5.88c.1-1.92.28-3.6.48-4.94-1.06,1.84-2.18,4-2.64,5.08A15.66,15.66,0,0,1,239.31,219.58Z" style="fill:#407bff"/><path d="M353.69,123.08c.89-.45,2-1,2.94-1.57s2-1.13,3-1.72c2-1.21,3.93-2.4,5.81-3.72a77,77,0,0,0,10.51-8.65c.42-.38.77-.81,1.16-1.21l.57-.61.29-.31.14-.15s0,0,0,0l0,0c-.14.27,0,.19,0-.07a5.44,5.44,0,0,0,.14-1.09,29.94,29.94,0,0,0-.73-6.32c-.89-4.49-2.24-9.1-3.57-13.62l3.89-1.7A82,82,0,0,1,383.94,96a31.91,31.91,0,0,1,1.72,7.89,12.2,12.2,0,0,1-.08,2.51,7.62,7.62,0,0,1-1.22,3.28l-.17.23-.13.17-.15.19-.31.37-.62.75c-.42.49-.81,1-1.26,1.48A71.1,71.1,0,0,1,370.35,123c-2,1.49-4.12,2.9-6.28,4.19q-1.62,1-3.28,1.89c-1.12.62-2.19,1.17-3.47,1.77Z" style="fill:#ffb573"/><path d="M344.79,358.18a10.17,10.17,0,0,0,2.21-.3.2.2,0,0,0,.06-.36c-.29-.19-2.83-1.83-3.81-1.39a.68.68,0,0,0-.39.56,1.13,1.13,0,0,0,.33,1.05A2.4,2.4,0,0,0,344.79,358.18Zm1.65-.58c-1.46.29-2.55.24-3-.15a.75.75,0,0,1-.2-.71.28.28,0,0,1,.17-.25C343.94,356.26,345.41,357,346.44,357.6Z" style="fill:#407bff"/><path d="M347,357.88l.1,0a.2.2,0,0,0,.1-.17c0-.1,0-2.51-.92-3.32a1,1,0,0,0-.84-.27.69.69,0,0,0-.67.55c-.19.94,1.33,2.75,2.13,3.2Zm-1.43-3.4a.64.64,0,0,1,.44.17,4.53,4.53,0,0,1,.78,2.64c-.8-.64-1.75-2-1.63-2.57,0-.09.07-.21.33-.24Z" style="fill:#407bff"/><path d="M346.22,98.07c-1,5-3,15,.45,18.35,0,0-1.36,5-10.59,5-10.16,0-4.85-5-4.85-5,5.54-1.32,5.4-5.44,4.43-9.3Z" style="fill:#ffb573"/><path d="M329.28,118.42c-1.59.22-.24-3.91.41-4.34,1.5-1,20.85-2.39,20.73,0-.08,1-.55,3-1.4,3.65S343.2,116.34,329.28,118.42Z" style="fill:#263238"/><path d="M332.44,117c-1.27.43-1.15-3.73-.71-4.23,1-1.16,16.66-5.18,17.13-2.91.18,1,.27,2.95-.27,3.71S343.44,113.11,332.44,117Z" style="fill:#263238"/><path d="M326.61,89.11a.4.4,0,0,1-.33-.14,3.16,3.16,0,0,0-2.59-1.23.4.4,0,0,1-.09-.79,3.94,3.94,0,0,1,3.29,1.51.4.4,0,0,1-.28.65Z" style="fill:#263238"/><path d="M324.67,94a18,18,0,0,1-2,4.53,2.91,2.91,0,0,0,2.44.21Z" style="fill:#ff5652"/><ellipse cx="324.36" cy="92.86" rx="0.8" ry="1.22" transform="translate(-7.53 32.19) rotate(-5.62)" style="fill:#263238"/><path d="M324.44,91.67l-1.66-.31S323.73,92.54,324.44,91.67Z" style="fill:#263238"/><polygon points="356.7 357.69 348.32 357.69 348.98 338.29 357.36 338.29 356.7 357.69" style="fill:#ffb573"/><path d="M347.66,356.72h9.41a.66.66,0,0,1,.67.57l1.07,7.45a1.35,1.35,0,0,1-1.34,1.49c-3.28-.06-4.86-.25-9-.25-2.55,0-6.27.26-9.78.26s-3.7-3.48-2.24-3.79c6.56-1.41,7.6-3.36,9.81-5.22A2.19,2.19,0,0,1,347.66,356.72Z" style="fill:#263238"/><g style="opacity:0.2"><polygon points="357.36 338.29 348.98 338.29 348.64 348.29 357.02 348.29 357.36 338.29"/></g><path d="M323.37,128a164.23,164.23,0,0,1-15-6.75,90.74,90.74,0,0,1-14.4-8.77,33,33,0,0,1-3.42-3.07c-.28-.3-.56-.58-.83-.92a13.05,13.05,0,0,1-.88-1.13,8,8,0,0,1-1.34-3.61,8.13,8.13,0,0,1,.49-3.62,11,11,0,0,1,1.41-2.61A18.63,18.63,0,0,1,292.74,94a41.92,41.92,0,0,1,7.3-4.67c1.24-.66,2.5-1.25,3.78-1.8s2.54-1.07,3.91-1.54l1.78,3.85c-4.36,2.75-8.88,5.77-12.2,9.16a13.71,13.71,0,0,0-2,2.49c-.48.79-.47,1.38-.39,1.33s0,0,.14.1l.4.43c.15.18.36.36.55.55a25.49,25.49,0,0,0,2.7,2.17,64.31,64.31,0,0,0,6.43,4c2.25,1.25,4.57,2.45,6.94,3.59,4.71,2.26,9.6,4.43,14.39,6.41Z" style="fill:#ffb573"/><path d="M312,87.15l1.39-3L307.06,82s-2,5.9.38,8.63h0A6,6,0,0,0,312,87.15Z" style="fill:#ffb573"/><polygon points="313.35 77.66 308.32 76.2 307.06 81.96 313.35 84.15 313.35 77.66" style="fill:#ffb573"/><path d="M378.35,84.44l.73-7-6.49,1.52s-.1,6.58,3.34,7.63Z" style="fill:#ffb573"/><polygon points="375.96 72.51 371.73 74.48 372.6 78.95 379.08 77.42 375.96 72.51" style="fill:#ffb573"/><path d="M347.54,88.25c.31,8.31.61,11.82-3.14,16.47-5.65,7-15.92,5.55-18.7-2.5-2.5-7.24-2.58-19.61,5.18-23.69A11.34,11.34,0,0,1,347.54,88.25Z" style="fill:#ffb573"/><path d="M343.92,104.71c8.16-3.52,13.52-11,11.25-22.57C353,71,345.51,69.92,342.41,72.22S331.58,71.09,326.94,75c-8,6.76-.44,14,3.52,18.37C332.82,98.22,335.92,108.16,343.92,104.71Z" style="fill:#263238"/><ellipse cx="347.34" cy="75.44" rx="8.27" ry="8.77" transform="translate(18.67 210.75) rotate(-34.63)" style="fill:#407bff"/><path d="M342.65,73c-1.18-6.7,5.16-11.86,13.64-9.37s4,10,2.25,16,2.82,11.71,4.73,7.15-1.3-6-1.3-6,9,2.33.64,12.48-15.93-1.06-13.88-7.67C350.39,80.28,343.77,79.33,342.65,73Z" style="fill:#263238"/><path d="M334.18,75.53c-3.87-2-10.42-3.65-14.15,2.62-1.76,3-1.08,7-1.08,7l11.39.76Z" style="fill:#263238"/><path d="M317.61,83.18h0a.25.25,0,0,1-.23-.26c0-.17.29-4.19,2.71-6.72,5.87-6.1,12.75-1,14.72.66a.25.25,0,1,1-.33.38c-1.88-1.62-8.47-6.47-14-.69-2.3,2.39-2.57,6.36-2.58,6.4A.25.25,0,0,1,317.61,83.18Z" style="fill:#263238"/><path d="M331.85,93a6.92,6.92,0,0,1-1.66,4.28c-1.38,1.62-3,.82-3.33-1-.33-1.61,0-4.4,1.74-5.37S331.87,91.18,331.85,93Z" style="fill:#ffb573"/><path d="M330.05,169.12s.53,58.14,5.58,90.54c4.07,26.17,11.61,86.69,11.61,86.69h11.42s1.12-58.42-1-84.31c-5.23-65.5,8.27-77.74-2.63-92.93Z" style="fill:#263238"/><path d="M330.05,169.12s.53,58.14,5.58,90.54c4.07,26.17,11.61,86.69,11.61,86.69h11.42s1.12-58.42-1-84.31c-5.23-65.5,8.27-77.74-2.63-92.93Z" style="fill:#fff;opacity:0.1"/><path d="M336.06,195.5c4,17.55.81,45.19-1.38,57.36-2.32-18.48-3.49-42.43-4.07-60C332.68,189.52,334.64,189.3,336.06,195.5Z" style="opacity:0.30000000000000004"/><polygon points="345.68 346.58 360.23 346.58 360.99 341.48 345.6 340.96 345.68 346.58" style="fill:#407bff"/><path d="M349.83,120c1.37-2.72,8.72-4.43,12.75-4.43l3,13.36s-8,11.89-11.34,10.63C350.31,138.12,346.9,125.87,349.83,120Z" style="fill:#407bff"/><path d="M349.83,120c1.37-2.72,8.72-4.43,12.75-4.43l3,13.36s-8,11.89-11.34,10.63C350.31,138.12,346.9,125.87,349.83,120Z" style="opacity:0.4"/><path d="M341.35,343.31a.2.2,0,0,0-.2-.3c-.42.06-4.12.65-4.62,1.71a.64.64,0,0,0,0,.62,1.1,1.1,0,0,0,.86.57c1.21.13,3-1.56,3.9-2.57Zm-4.44,1.54c.34-.56,2.26-1.08,3.72-1.35-1.32,1.34-2.48,2.09-3.16,2a.71.71,0,0,1-.56-.38.25.25,0,0,1,0-.25Z" style="fill:#407bff"/><path d="M341.35,343.31l0,0a.2.2,0,0,0,0-.19c-.06-.07-1.55-1.78-2.91-1.87a1.44,1.44,0,0,0-1.09.37c-.41.37-.38.69-.27.89.43.86,3.09,1.16,4.17.93A.2.2,0,0,0,341.35,343.31Zm-3.92-1.26a.83.83,0,0,1,.16-.18,1,1,0,0,1,.8-.27,4.59,4.59,0,0,1,2.38,1.46c-1.19.1-3.11-.26-3.37-.78A.22.22,0,0,1,337.44,342.05Z" style="fill:#407bff"/><polygon points="350.08 339.76 342.42 343.17 339.01 336.06 334.55 326.76 334.02 325.68 341.68 322.27 342.27 323.49 346.59 332.5 350.08 339.76" style="fill:#ffb573"/><polygon points="346.59 332.5 339.01 336.06 334.55 326.76 342.27 323.49 346.59 332.5" style="opacity:0.2"/><path d="M321.07,169.12S296.6,230,303.23,258.6c6,25.89,32.5,74.92,32.5,74.92L346,328.38s-16.39-59.19-18.17-72c-3.46-25,18.78-60.33,18.78-87.21Z" style="fill:#263238"/><path d="M321.07,169.12S296.6,230,303.23,258.6c6,25.89,32.5,74.92,32.5,74.92L346,328.38s-16.39-59.19-18.17-72c-3.46-25,18.78-60.33,18.78-87.21Z" style="fill:#fff;opacity:0.1"/><path d="M341.06,342.1l7.61-5.54a.66.66,0,0,1,.88.07l5.25,5.39a1.35,1.35,0,0,1-.21,2c-2.69,1.88-4.08,2.66-7.42,5.09-2.06,1.5-6.16,4.81-9,6.88s-5-.63-4-1.75c4.48-5,5.42-8.1,6.11-10.9A2.19,2.19,0,0,1,341.06,342.1Z" style="fill:#263238"/><polygon points="335.07 335.69 348.3 329.64 346.61 324.25 332.44 330.71 335.07 335.69" style="fill:#407bff"/><path d="M327.56,119.36c-1.1-2.84-10.66-6-15.45-7L310,128.08s7.83,11.26,11.27,10.32C325.33,137.31,329.92,125.45,327.56,119.36Z" style="fill:#407bff"/><path d="M327.56,119.36c-1.1-2.84-10.66-6-15.45-7L310,128.08s7.83,11.26,11.27,10.32C325.33,137.31,329.92,125.45,327.56,119.36Z" style="opacity:0.4"/><path d="M317.07,118.57s-4,1.41,4,50.56h34c-.57-13.85-.59-22.38,6-50.8a100.38,100.38,0,0,0-14.45-1.9,108.22,108.22,0,0,0-15.45,0C324.59,117,317.07,118.57,317.07,118.57Z" style="fill:#407bff"/><path d="M317.07,118.57s-4,1.41,4,50.56h34c-.57-13.85-.59-22.38,6-50.8a100.38,100.38,0,0,0-14.45-1.9,108.22,108.22,0,0,0-15.45,0C324.59,117,317.07,118.57,317.07,118.57Z" style="opacity:0.4"/><path d="M355.6,167.13l1.53,3c.12.24-.16.48-.55.48H320.9c-.31,0-.56-.15-.58-.34l-.31-3c0-.21.24-.39.58-.39H355A.62.62,0,0,1,355.6,167.13Z" style="fill:#407bff"/><path d="M355.6,167.13l1.53,3c.12.24-.16.48-.55.48H320.9c-.31,0-.56-.15-.58-.34l-.31-3c0-.21.24-.39.58-.39H355A.62.62,0,0,1,355.6,167.13Z" style="fill:#fff;opacity:0.30000000000000004"/><path d="M351,171h.92c.18,0,.32-.09.31-.21l-.43-4c0-.12-.17-.21-.36-.21h-.92c-.18,0-.32.09-.31.21l.43,4C350.63,170.88,350.79,171,351,171Z" style="fill:#263238"/><path d="M328.61,171h.92c.18,0,.32-.09.31-.21l-.43-4c0-.12-.17-.21-.36-.21h-.92c-.18,0-.32.09-.31.21l.43,4C328.26,170.88,328.42,171,328.61,171Z" style="fill:#263238"/></svg>