<svg xmlns="http://www.w3.org/2000/svg" viewBox="0 0 500 350"><title>welcome</title><path d="M86.34,325.61c85.9,25.22,221.75,15.95,303.43-20.72S468,218,382.12,192.82,160.36,176.87,78.69,213.54.44,300.39,86.34,325.61Z" style="fill:#f5f5f5"/><path d="M343,283.66c4.86,2.81,14.42,1.84,21.35-2.16l39.94-23.19c6.93-4,8.59-9.52,3.72-12.34s-14.44-1.85-21.37,2.15l-39.9,23.2C339.83,275.33,338.16,280.85,343,283.66Z" style="fill:#ebebeb"/><polygon points="217.41 319.08 151.94 281.25 217.42 243.5 217.41 319.08" style="fill:#ebebeb"/><path d="M80.65,272.21c.11-9.5-6.52-29.26-16.23-41.72s-25.1-21.66-36.16-18c-10.3,3.38-9.35,16.85,3,25.92s30.91,20.49,36.19,36l11.25,19Z" style="fill:#7986cb"/><path d="M80.65,272.21c.11-9.5-6.52-29.26-16.23-41.72s-25.1-21.66-36.16-18c-10.3,3.38-9.35,16.85,3,25.92s30.91,20.49,36.19,36l11.25,19Z" style="opacity:0.1"/><path d="M81.19,285.22a.7.7,0,0,1-.62-.57c-6-32.51-31.89-59.19-47.53-65.2a.69.69,0,0,1-.4-.9.69.69,0,0,1,.9-.4c15.93,6.13,42.33,33.24,48.39,66.25a.69.69,0,0,1-.56.81Z" style="fill:#fff"/><path d="M76.11,305.92c-1.46-5.36-7.88-14.25-18.34-21.66-11.58-8.19-26.3-12.07-29.63-18.38-4-7.58,2.43-14.62,14.4-13s32.85,18.24,35.93,42.91Z" style="fill:#7986cb"/><path d="M78.49,300.35a.69.69,0,0,1-.59-.47C68.29,272,47.21,262,37.41,260.58a.69.69,0,0,1-.59-.78.68.68,0,0,1,.78-.59c10.84,1.54,31.8,11.74,41.62,40.23a.7.7,0,0,1-.43.88A.69.69,0,0,1,78.49,300.35Z" style="fill:#fff"/><path d="M432.21,221.17s1.33-20,13.14-34.9,11.08-21,2.94-24-27,14.92-22.84,38.92S432.21,221.17,432.21,221.17Z" style="fill:#7986cb"/><path d="M432.21,221.17s1.33-20,13.14-34.9,11.08-21,2.94-24-27,14.92-22.84,38.92S432.21,221.17,432.21,221.17Z" style="opacity:0.1"/><path d="M428.61,209.73a.47.47,0,0,1-.46-.44c-1.38-22.06,14.2-40.16,20-44.25a.46.46,0,1,1,.53.76c-5.72,4-21,21.77-19.64,43.44a.47.47,0,0,1-.44.49Z" style="fill:#fff"/><path d="M429,237.71a105.68,105.68,0,0,0,16.26,3.91c9.14,1.45,13.18-2.92,13.18-2.92s-3.6-8.57-8.79-11a51,51,0,0,1,15.87,6.51s5.58.08,7.8-8.43c0,0-3.31-5.13-14.4-7.9,0,0,6.75-1.7,16.48.78.73.29,3.84-10.73,4.78-15.81s-1.1-5-5.06-6.09-17.08-4-19.56-1.83-3.74,9.63-3.74,9.63a17.57,17.57,0,0,1-.37-9.44s-3.57-1.39-9.1.22c-4.53,1.32-4.75,4.4-4.54,7.88a34,34,0,0,0,2,8.84s-3.53-4.52-3.64-14.32c0,0-9.26,4.6-10.84,13.79C424.42,216.51,423.2,231.11,429,237.71Z" style="fill:#7986cb"/><path d="M430.75,235.92a.51.51,0,0,0,.46-.29c7.38-15.33,34.8-33.13,44.63-35a.51.51,0,1,0-.2-1c-10,1.94-37.86,20-45.35,35.61a.51.51,0,0,0,.24.69A.51.51,0,0,0,430.75,235.92Z" style="fill:#fff"/><path d="M77.07,313c-1.13,0-1.81-.94-1.81-2.51V142.29l206-118.93V190.9a8.94,8.94,0,0,1-4,7L78.71,312.5a3.39,3.39,0,0,1-1.64.51Z" style="fill:#fafafa"/><path d="M280.67,24.38V190.9a8.42,8.42,0,0,1-3.75,6.49L78.42,312a2.82,2.82,0,0,1-1.35.43c-1.11,0-1.23-1.34-1.23-1.92V142.63L280.67,24.38m1.17-2L74.67,142V310.5c0,2,1,3.09,2.4,3.09A3.93,3.93,0,0,0,79,313L277.51,198.4a9.57,9.57,0,0,0,4.33-7.5V22.35Z" style="fill:#e0e0e0"/><polygon points="74.67 141.96 74.67 170.1 281.83 50.5 281.84 22.35 74.67 141.96" style="fill:#7986cb"/><path d="M90.92,143.46v4c0,.83.58,1.16,1.3.75l63.69-36.77v-7L92.22,141.21A2.88,2.88,0,0,0,90.92,143.46Z" style="fill:#fafafa"/><path d="M162.74,100.49c.72-.41,1.3-.08,1.3.75v4a2.87,2.87,0,0,1-1.3,2.25l-6.83,3.94v-7Z" style="fill:#455a64"/><path d="M74.67,132.89a9.57,9.57,0,0,1,4.33-7.5L277.51,10.78c2.39-1.38,4.33-.26,4.33,2.5v9.07L74.67,142Z" style="fill:#455a64"/><path d="M258.81,26.28a4.49,4.49,0,0,0-2,3.52c0,1.3.91,1.82,2,1.17a4.49,4.49,0,0,0,2-3.52C260.84,26.16,259.93,25.63,258.81,26.28Z" style="fill:#7986cb"/><path d="M265.25,22.56a4.49,4.49,0,0,0-2,3.52c0,1.3.91,1.82,2,1.17a4.49,4.49,0,0,0,2-3.52C267.28,22.44,266.37,21.91,265.25,22.56Z" style="fill:#7986cb"/><path d="M271.68,18.84a4.49,4.49,0,0,0-2,3.52c0,1.3.91,1.82,2,1.17a4.49,4.49,0,0,0,2-3.52C273.71,18.72,272.8,18.19,271.68,18.84Z" style="fill:#7986cb"/><g style="opacity:0.1"><path d="M216.84,68.82a9.81,9.81,0,0,0-4.44,7.69c0,2.83,2,4,4.44,2.56a9.81,9.81,0,0,0,4.44-7.69C221.28,68.55,219.29,67.4,216.84,68.82Z"/><path d="M196.53,80.55a9.81,9.81,0,0,0-4.44,7.69c0,2.83,2,4,4.44,2.56A9.81,9.81,0,0,0,201,83.11C201,80.28,199,79.13,196.53,80.55Z"/><path d="M237.15,57.09a9.81,9.81,0,0,0-4.44,7.69c0,2.83,2,4,4.44,2.56a9.81,9.81,0,0,0,4.44-7.69C241.59,56.83,239.6,55.68,237.15,57.09Z"/><path d="M257.46,45.35A9.81,9.81,0,0,0,253,53c0,2.83,2,4,4.44,2.56a9.81,9.81,0,0,0,4.44-7.69C261.9,45.08,259.92,43.93,257.46,45.35Z"/></g><path d="M95.25,172.29l48.21-27.83c2.39-1.38,4.33-.26,4.33,2.5v46.29a9.57,9.57,0,0,1-4.33,7.5L95.25,228.58c-2.39,1.38-4.33.26-4.33-2.5V179.79A9.57,9.57,0,0,1,95.25,172.29Z" style="fill:#e0e0e0"/><path d="M164.31,132.42l101-58.32c2.39-1.38,4.33-.26,4.33,2.5v46.29a9.57,9.57,0,0,1-4.33,7.5l-101,58.32c-2.39,1.38-4.33.26-4.33-2.5V139.92A9.57,9.57,0,0,1,164.31,132.42Z" style="fill:#e0e0e0"/><path d="M95.25,242.65l76.64-44.25c2.39-1.38,4.33-.4,4.33,2.19a9.28,9.28,0,0,1-4.33,7.19L95.25,252c-2.39,1.38-4.33.4-4.33-2.19A9.29,9.29,0,0,1,95.25,242.65Z" style="fill:#e0e0e0"/><path d="M95.25,259.06l76.64-44.25c2.39-1.38,4.33-.4,4.33,2.19a9.28,9.28,0,0,1-4.33,7.19L95.25,268.44c-2.39,1.38-4.33.4-4.33-2.19A9.29,9.29,0,0,1,95.25,259.06Z" style="fill:#e0e0e0"/><path d="M95.25,275.48l76.64-44.25c2.39-1.38,4.33-.4,4.33,2.19a9.28,9.28,0,0,1-4.33,7.19L95.25,284.86c-2.39,1.38-4.33.4-4.33-2.19A9.29,9.29,0,0,1,95.25,275.48Z" style="fill:#e0e0e0"/><path d="M216.34,82.55v233.9c0,2.76,1.94,3.88,4.33,2.5l105.08-60.67a9.57,9.57,0,0,0,4.33-7.5V16.89c0-2.76-1.94-3.88-4.33-2.5L220.67,75.05A9.57,9.57,0,0,0,216.34,82.55Z" style="fill:#fafafa;stroke:#e0e0e0;stroke-miterlimit:10;stroke-width:1.16981px"/><path d="M222.43,86.91a2.37,2.37,0,0,1,1.13-1.82l12-6.91c.62-.36,1.13-.12,1.13.52a2.37,2.37,0,0,1-1.13,1.82l-12,6.91C222.93,87.79,222.43,87.56,222.43,86.91Z" style="fill:#455a64"/><path d="M222.43,91.57a2.37,2.37,0,0,1,1.13-1.82l12-6.91c.62-.36,1.13-.12,1.13.52a2.37,2.37,0,0,1-1.13,1.82l-12,6.91C222.93,92.45,222.43,92.22,222.43,91.57Z" style="fill:#455a64"/><path d="M222.43,96.23a2.37,2.37,0,0,1,1.13-1.82l12-6.91c.62-.36,1.13-.12,1.13.52a2.37,2.37,0,0,1-1.13,1.82l-12,6.91C222.93,97.11,222.43,96.87,222.43,96.23Z" style="fill:#455a64"/><path d="M322,36.25V34.38a.12.12,0,0,0-.18-.12l-1.44.65a.17.17,0,0,1-.24-.11,3.22,3.22,0,0,0-.32-.71.4.4,0,0,1,0-.35l1-1.94a.22.22,0,0,0-.09-.28l-1-.6a.22.22,0,0,0-.29.07l-1.2,1.8a.4.4,0,0,1-.31.16A3.23,3.23,0,0,0,317,33a.17.17,0,0,1-.22-.15l-.16-1.57a.12.12,0,0,0-.19-.1l-1.62.93a.44.44,0,0,0-.19.3l-.16,1.8a.6.6,0,0,1-.17.34,9.72,9.72,0,0,0-.9,1,.31.31,0,0,1-.32.09l-1-.36a.25.25,0,0,0-.29.11l-1.19,2.06a.25.25,0,0,0,.05.31l.83.72a.31.31,0,0,1,.08.32,9.73,9.73,0,0,0-.37,1.25.6.6,0,0,1-.21.31l-1.48,1a.44.44,0,0,0-.17.32v1.87a.12.12,0,0,0,.18.12l1.44-.65a.17.17,0,0,1,.24.11,3.22,3.22,0,0,0,.32.71.4.4,0,0,1,0,.35l-1,1.94a.22.22,0,0,0,.09.28l1,.6a.22.22,0,0,0,.29-.07l1.2-1.8a.4.4,0,0,1,.31-.16,3.23,3.23,0,0,0,.78-.08.17.17,0,0,1,.22.15l.16,1.57a.12.12,0,0,0,.19.1l1.62-.93a.44.44,0,0,0,.19-.3l.16-1.8a.6.6,0,0,1,.17-.34,9.72,9.72,0,0,0,.9-1,.31.31,0,0,1,.32-.09l1,.36a.25.25,0,0,0,.29-.11l1.19-2.06a.25.25,0,0,0-.05-.31l-.83-.72a.31.31,0,0,1-.08-.32,9.74,9.74,0,0,0,.37-1.25.6.6,0,0,1,.21-.31l1.48-1A.44.44,0,0,0,322,36.25Zm-6.33,5.87c-1.51.87-2.73.16-2.73-1.58a6,6,0,0,1,2.73-4.73c1.51-.87,2.73-.16,2.73,1.58A6,6,0,0,1,315.63,42.12Z" style="fill:#37474f"/><path d="M273.21,82.35c12.28-7.09,22.23-1.34,22.23,12.83s-10,31.42-22.23,38.5S251,135,251,120.85,260.93,89.43,273.21,82.35Z" style="fill:#455a64"/><path d="M273.05,93.5c4-2.3,7.21-.44,7.21,4.16a15.94,15.94,0,0,1-7.21,12.49c-4,2.3-7.21.44-7.21-4.16A15.94,15.94,0,0,1,273.05,93.5Z" style="fill:#8293d8"/><path d="M287.27,118c0-7.56-5.31-10.62-11.85-6.84l-4.09,2.36c-6.54,3.78-11.85,13-11.85,20.52v2.06a12.17,12.17,0,0,0,3.82.59,20.05,20.05,0,0,0,9.91-3,43.81,43.81,0,0,0,14.06-13.91Z" style="fill:#8293d8"/><path d="M253.14,154.78l40.13-23.17c1.2-.69,2.17-.2,2.17,1.1a4.64,4.64,0,0,1-2.17,3.6l-40.13,23.17c-1.2.69-2.17.2-2.17-1.1A4.64,4.64,0,0,1,253.14,154.78Z" style="fill:#7986cb"/><path d="M248.84,171.35l48.74-28.17c1.2-.69,2.16-.2,2.16,1.1a4.64,4.64,0,0,1-2.16,3.6L248.84,176c-1.2.69-2.17.2-2.17-1.1A4.64,4.64,0,0,1,248.84,171.35Z" style="fill:#455a64"/><path d="M298.88,165.89,312.53,158c.72-.41,1.3-.22,1.3.42a2.6,2.6,0,0,1-1.3,1.92l-13.65,7.88c-.72.41-1.3.23-1.3-.42A2.6,2.6,0,0,1,298.88,165.89Z" style="fill:#37474f"/><path d="M230.69,200.58l20-11.57c1.2-.69,2.17-.13,2.17,1.25V204a4.79,4.79,0,0,1-2.16,3.75l-20,11.57c-1.2.69-2.17.13-2.17-1.25V204.33A4.79,4.79,0,0,1,230.69,200.58Z" style="fill:#7986cb"/><path d="M233.89,202.5l13.65-7.88c.72-.41,1.3-.22,1.3.42a2.6,2.6,0,0,1-1.3,1.92l-13.65,7.88c-.72.41-1.3.23-1.3-.42A2.6,2.6,0,0,1,233.89,202.5Z" style="fill:#fafafa"/><path d="M232.59,209.44v4c0,.83.58,1.16,1.3.75l13.65-7.88a2.87,2.87,0,0,0,1.3-2.25v-4c0-.83-.58-1.16-1.3-.75l-13.65,7.88A2.87,2.87,0,0,0,232.59,209.44Z" style="fill:#fafafa"/><path d="M263.19,181.81l20-11.57c1.2-.69,2.17-.13,2.17,1.25v13.76a4.79,4.79,0,0,1-2.17,3.75l-20,11.57c-1.2.69-2.17.13-2.17-1.25V185.56A4.79,4.79,0,0,1,263.19,181.81Z" style="fill:#7986cb"/><path d="M266.38,183.74,280,175.86c.72-.41,1.3-.22,1.3.42a2.6,2.6,0,0,1-1.3,1.92l-13.65,7.88c-.72.41-1.3.22-1.3-.42A2.6,2.6,0,0,1,266.38,183.74Z" style="fill:#fafafa"/><path d="M265.09,190.68v4c0,.83.58,1.16,1.3.75L280,187.58a2.87,2.87,0,0,0,1.3-2.25v-4c0-.83-.58-1.16-1.3-.75l-13.65,7.88A2.87,2.87,0,0,0,265.09,190.68Z" style="fill:#fafafa"/><path d="M295.68,163.05l20-11.57c1.2-.69,2.17-.13,2.17,1.25v13.76a4.79,4.79,0,0,1-2.17,3.75l-20,11.57c-1.2.69-2.17.13-2.17-1.25V166.8A4.79,4.79,0,0,1,295.68,163.05Z" style="fill:#7986cb"/><path d="M298.88,165l13.65-7.88c.72-.41,1.3-.22,1.3.42a2.6,2.6,0,0,1-1.3,1.92l-13.65,7.88c-.72.41-1.3.22-1.3-.42A2.6,2.6,0,0,1,298.88,165Z" style="fill:#fafafa"/><path d="M297.58,171.92v4c0,.83.58,1.16,1.3.75l13.65-7.88a2.87,2.87,0,0,0,1.3-2.25v-4c0-.83-.58-1.16-1.3-.75l-13.65,7.88A2.87,2.87,0,0,0,297.58,171.92Z" style="fill:#fafafa"/><path d="M232.86,232.16l80.7-46.59c2.39-1.38,4.33-.4,4.33,2.19a9.29,9.29,0,0,1-4.33,7.19l-80.7,46.59c-2.39,1.38-4.33.4-4.33-2.19A9.28,9.28,0,0,1,232.86,232.16Z" style="fill:#e0e0e0"/><path d="M232.86,250.92l80.7-46.59c2.39-1.38,4.33-.4,4.33,2.19a9.29,9.29,0,0,1-4.33,7.19l-80.7,46.59c-2.39,1.38-4.33.4-4.33-2.19A9.29,9.29,0,0,1,232.86,250.92Z" style="fill:#e0e0e0"/><path d="M259.13,259.21l28.17-16.26c1.2-.69,2.17-.13,2.17,1.25v9.07a4.79,4.79,0,0,1-2.17,3.75l-28.17,16.26c-1.2.69-2.17.13-2.17-1.25V263A4.79,4.79,0,0,1,259.13,259.21Z" style="fill:#ff4081"/><path d="M234.62,233.54a4.49,4.49,0,0,0-2,3.52c0,1.3.91,1.82,2,1.17a4.49,4.49,0,0,0,2-3.52C236.65,233.41,235.74,232.89,234.62,233.54Z" style="fill:#fafafa"/><path d="M241.05,229.82a4.49,4.49,0,0,0-2,3.52c0,1.3.91,1.82,2,1.17a4.49,4.49,0,0,0,2-3.52C243.09,229.69,242.18,229.17,241.05,229.82Z" style="fill:#fafafa"/><path d="M247.49,226.1a4.49,4.49,0,0,0-2,3.52c0,1.3.91,1.82,2,1.17a4.49,4.49,0,0,0,2-3.52C249.52,226,248.61,225.45,247.49,226.1Z" style="fill:#fafafa"/><path d="M253.92,222.38a4.49,4.49,0,0,0-2,3.52c0,1.3.91,1.82,2,1.17a4.49,4.49,0,0,0,2-3.52C256,222.25,255,221.73,253.92,222.38Z" style="fill:#fafafa"/><path d="M260.36,218.66a4.49,4.49,0,0,0-2,3.52c0,1.3.91,1.82,2,1.17a4.49,4.49,0,0,0,2-3.52C262.39,218.53,261.48,218,260.36,218.66Z" style="fill:#fafafa"/><path d="M266.79,214.94a4.49,4.49,0,0,0-2,3.52c0,1.3.91,1.82,2,1.17a4.49,4.49,0,0,0,2-3.52C268.82,214.81,267.91,214.29,266.79,214.94Z" style="fill:#fafafa"/><path d="M273.23,211.22a4.49,4.49,0,0,0-2,3.52c0,1.3.91,1.82,2,1.17a4.49,4.49,0,0,0,2-3.52C275.26,211.09,274.35,210.57,273.23,211.22Z" style="fill:#fafafa"/><path d="M234.62,252.32a4.49,4.49,0,0,0-2,3.52c0,1.3.91,1.82,2,1.17a4.49,4.49,0,0,0,2-3.52C236.65,252.2,235.74,251.67,234.62,252.32Z" style="fill:#fafafa"/><path d="M241.05,248.6a4.49,4.49,0,0,0-2,3.52c0,1.3.91,1.82,2,1.17a4.49,4.49,0,0,0,2-3.52C243.09,248.48,242.18,248,241.05,248.6Z" style="fill:#fafafa"/><path d="M247.49,244.88a4.49,4.49,0,0,0-2,3.52c0,1.3.91,1.82,2,1.17a4.49,4.49,0,0,0,2-3.52C249.52,244.76,248.61,244.23,247.49,244.88Z" style="fill:#fafafa"/><path d="M253.92,241.16a4.49,4.49,0,0,0-2,3.52c0,1.3.91,1.82,2,1.17a4.49,4.49,0,0,0,2-3.52C256,241,255,240.51,253.92,241.16Z" style="fill:#fafafa"/><path d="M260.36,237.44a4.49,4.49,0,0,0-2,3.52c0,1.3.91,1.82,2,1.17a4.49,4.49,0,0,0,2-3.52C262.39,237.32,261.48,236.79,260.36,237.44Z" style="fill:#fafafa"/><path d="M266.79,233.72a4.49,4.49,0,0,0-2,3.52c0,1.3.91,1.82,2,1.17a4.49,4.49,0,0,0,2-3.52C268.82,233.6,267.91,233.07,266.79,233.72Z" style="fill:#fafafa"/><path d="M273.23,230a4.49,4.49,0,0,0-2,3.52c0,1.3.91,1.82,2,1.17a4.49,4.49,0,0,0,2-3.52C275.26,229.88,274.35,229.35,273.23,230Z" style="fill:#fafafa"/><path d="M363.47,272.28a19.47,19.47,0,0,1-9.85-2.6c-7.21-4.16-11.34-12.87-11.34-23.89,0-19.38,12.32-41.68,28-50.76,8.47-4.89,16.88-5.42,23.68-1.49,7.21,4.16,11.34,12.87,11.34,23.89,0,19.38-12.32,41.68-28,50.76A27.86,27.86,0,0,1,363.47,272.28Zm20.66-67.38a14.82,14.82,0,0,0-6.83,2.21c-11.42,6.59-21.07,24.31-21.07,38.68,0,5.82,1.63,10.23,4.36,11.81,3.11,1.8,7.43-.16,9.73-1.49,11.42-6.59,21.07-24.31,21.07-38.68,0-5.82-1.63-10.23-4.36-11.81A5.73,5.73,0,0,0,384.13,204.89Z" style="fill:#455a64"/><path d="M393.9,220.53c0-10.89-6.86-14.91-6.86-14.91h0c2.73,1.58,4.36,6,4.36,11.81,0,14.37-9.65,32.08-21.07,38.68-2.3,1.33-6.62,3.29-9.73,1.49,0,0,5.79,3.59,13.78-.77C386,250.5,393.9,234.9,393.9,220.53Z" style="fill:#37474f"/><path d="M382.9,84.44a7.21,7.21,0,1,0-14.43,0v0h0V199.17h0a3.58,3.58,0,0,0,2.11,2.94,11.27,11.27,0,0,0,10.2,0,3.58,3.58,0,0,0,2.11-2.94h0V84.46h0Z" style="fill:#37474f"/><path d="M377.13,110.07a9.21,9.21,0,0,0-4.17-7.21,2.89,2.89,0,0,0-3-.26h0l-17.8,10.25-.43.26a1,1,0,0,0-.17.1,5.61,5.61,0,0,0-.85.7,5.9,5.9,0,0,0,7,9.37l.34-.19,17.91-10.32h0A2.93,2.93,0,0,0,377.13,110.07Z" style="fill:#455a64"/><path d="M377.13,138.8a9.21,9.21,0,0,0-4.17-7.21,2.89,2.89,0,0,0-3-.26h0l-20.86,12-.43.26a1,1,0,0,0-.17.1,5.59,5.59,0,0,0-.85.7,5.9,5.9,0,0,0,7,9.37l.34-.19,21-12h0A2.93,2.93,0,0,0,377.13,138.8Z" style="fill:#455a64"/></svg>